<?xml version="1.0" encoding="UTF-8" standalone="no"?>
<!DOCTYPE svg PUBLIC "-//W3C//DTD SVG 1.1//EN"
 "http://www.w3.org/Graphics/SVG/1.1/DTD/svg11.dtd">
<!-- Generated by graphviz version 14.1.1 (20251213.1925)
 -->
<!-- Title: G Pages: 1 -->
<svg width="708pt" height="344pt"
 viewBox="0.00 0.00 708.00 344.00" xmlns="http://www.w3.org/2000/svg" xmlns:xlink="http://www.w3.org/1999/xlink">
<g id="graph0" class="graph" transform="scale(1 1) rotate(0) translate(4 339.8)">
<title>G</title>
<polygon fill="white" stroke="none" points="-4,4 -4,-339.8 703.58,-339.8 703.58,4 -4,4"/>
<!-- n0 -->
<g id="node1" class="node">
<title>n0</title>
<ellipse fill="black" stroke="black" cx="346.59" cy="-314" rx="21.6" ry="21.6"/>
<text xml:space="preserve" text-anchor="middle" x="346.59" y="-303.57" font-family="Helvetica,sans-Serif" font-size="24.00" fill="white">83</text>
</g>
<!-- n1 -->
<g id="node2" class="node">
<title>n1</title>
<ellipse fill="red" stroke="black" cx="292.59" cy="-235" rx="21.6" ry="21.6"/>
<text xml:space="preserve" text-anchor="middle" x="292.59" y="-224.57" font-family="Helvetica,sans-Serif" font-size="24.00" fill="white">39</text>
</g>
<!-- n0&#45;&gt;n1 -->
<g id="edge11" class="edge">
<title>n0&#45;&gt;n1</title>
<path fill="none" stroke="black" d="M334.61,-295.91C327.73,-286.11 318.96,-273.6 311.2,-262.54"/>
<polygon fill="black" stroke="black" points="314.21,-260.72 305.6,-254.55 308.47,-264.74 314.21,-260.72"/>
</g>
<!-- n6 -->
<g id="node13" class="node">
<title>n6</title>
<ellipse fill="red" stroke="black" cx="444.59" cy="-235" rx="21.6" ry="21.6"/>
<text xml:space="preserve" text-anchor="middle" x="444.59" y="-224.57" font-family="Helvetica,sans-Serif" font-size="24.00" fill="white">87</text>
</g>
<!-- n0&#45;&gt;n6 -->
<g id="edge18" class="edge">
<title>n0&#45;&gt;n6</title>
<path fill="none" stroke="black" d="M363.22,-299.94C378.56,-287.88 401.58,-269.8 419.22,-255.94"/>
<polygon fill="black" stroke="black" points="420.99,-258.99 426.7,-250.06 416.67,-253.49 420.99,-258.99"/>
</g>
<!-- n2 -->
<g id="node3" class="node">
<title>n2</title>
<ellipse fill="black" stroke="black" cx="111.59" cy="-156" rx="21.6" ry="21.6"/>
<text xml:space="preserve" text-anchor="middle" x="111.59" y="-145.57" font-family="Helvetica,sans-Serif" font-size="24.00" fill="white">3</text>
</g>
<!-- n1&#45;&gt;n2 -->
<g id="edge3" class="edge">
<title>n1&#45;&gt;n2</title>
<path fill="none" stroke="black" d="M272.88,-225.61C241.19,-212.13 178.72,-185.56 141.51,-169.73"/>
<polygon fill="black" stroke="black" points="143.25,-166.66 132.67,-165.97 140.51,-173.1 143.25,-166.66"/>
</g>
<!-- n3 -->
<g id="node6" class="node">
<title>n3</title>
<ellipse fill="black" stroke="black" cx="292.59" cy="-156" rx="21.6" ry="21.6"/>
<text xml:space="preserve" text-anchor="middle" x="292.59" y="-145.57" font-family="Helvetica,sans-Serif" font-size="24.00" fill="white">40</text>
</g>
<!-- n1&#45;&gt;n3 -->
<g id="edge10" class="edge">
<title>n1&#45;&gt;n3</title>
<path fill="none" stroke="black" d="M292.59,-212.96C292.59,-205.66 292.59,-197.3 292.59,-189.3"/>
<polygon fill="black" stroke="black" points="296.09,-189.53 292.59,-179.53 289.09,-189.53 296.09,-189.53"/>
</g>
<!-- nil0 -->
<g id="node4" class="node">
<title>nil0</title>
<polygon fill="black" stroke="black" points="12.19,-68 12.19,-86 40.99,-86 40.99,-68 12.19,-68"/>
<text xml:space="preserve" text-anchor="middle" x="27.07" y="-70.05" font-family="Helvetica,sans-Serif" font-size="16.00" fill="white">NIL</text>
</g>
<!-- n2&#45;&gt;nil0 -->
<g id="edge1" class="edge">
<title>n2&#45;&gt;nil0</title>
<path fill="none" stroke="black" d="M96,-140.88C81.26,-127.52 59.17,-107.52 43.89,-93.67"/>
<polygon fill="black" stroke="black" points="46.67,-91.47 36.91,-87.35 41.97,-96.66 46.67,-91.47"/>
</g>
<!-- nil1 -->
<g id="node5" class="node">
<title>nil1</title>
<polygon fill="black" stroke="black" points="97.19,-68 97.19,-86 125.99,-86 125.99,-68 97.19,-68"/>
<text xml:space="preserve" text-anchor="middle" x="112.07" y="-70.05" font-family="Helvetica,sans-Serif" font-size="16.00" fill="white">NIL</text>
</g>
<!-- n2&#45;&gt;nil1 -->
<g id="edge2" class="edge">
<title>n2&#45;&gt;nil1</title>
<path fill="none" stroke="black" d="M111.59,-133.96C111.59,-122.69 111.59,-108.9 111.59,-97.82"/>
<polygon fill="black" stroke="black" points="115.09,-97.9 111.59,-87.9 108.09,-97.9 115.09,-97.9"/>
</g>
<!-- n4 -->
<g id="node7" class="node">
<title>n4</title>
<ellipse fill="red" stroke="black" cx="209.59" cy="-77" rx="21.6" ry="21.6"/>
<text xml:space="preserve" text-anchor="middle" x="209.59" y="-66.58" font-family="Helvetica,sans-Serif" font-size="24.00" fill="white">39</text>
</g>
<!-- n3&#45;&gt;n4 -->
<g id="edge6" class="edge">
<title>n3&#45;&gt;n4</title>
<path fill="none" stroke="black" d="M276.98,-140.52C264.69,-129.12 247.36,-113.04 233.35,-100.04"/>
<polygon fill="black" stroke="black" points="235.95,-97.68 226.24,-93.45 231.19,-102.81 235.95,-97.68"/>
</g>
<!-- n5 -->
<g id="node10" class="node">
<title>n5</title>
<ellipse fill="red" stroke="black" cx="319.59" cy="-77" rx="21.6" ry="21.6"/>
<text xml:space="preserve" text-anchor="middle" x="319.59" y="-66.58" font-family="Helvetica,sans-Serif" font-size="24.00" fill="white">52</text>
</g>
<!-- n3&#45;&gt;n5 -->
<g id="edge9" class="edge">
<title>n3&#45;&gt;n5</title>
<path fill="none" stroke="black" d="M299.54,-135.17C302.38,-127.09 305.72,-117.55 308.86,-108.62"/>
<polygon fill="black" stroke="black" points="312.16,-109.79 312.16,-99.19 305.55,-107.47 312.16,-109.79"/>
</g>
<!-- nil2 -->
<g id="node8" class="node">
<title>nil2</title>
<polygon fill="black" stroke="black" points="115.19,-1 115.19,-19 143.99,-19 143.99,-1 115.19,-1"/>
<text xml:space="preserve" text-anchor="middle" x="130.07" y="-3.05" font-family="Helvetica,sans-Serif" font-size="16.00" fill="white">NIL</text>
</g>
<!-- n4&#45;&gt;nil2 -->
<g id="edge4" class="edge">
<title>n4&#45;&gt;nil2</title>
<path fill="none" stroke="black" d="M193.02,-62.53C180.2,-52.12 162.43,-37.68 148.96,-26.74"/>
<polygon fill="black" stroke="black" points="151.19,-24.04 141.22,-20.45 146.77,-29.47 151.19,-24.04"/>
</g>
<!-- nil3 -->
<g id="node9" class="node">
<title>nil3</title>
<polygon fill="black" stroke="black" points="200.19,-1 200.19,-19 228.99,-19 228.99,-1 200.19,-1"/>
<text xml:space="preserve" text-anchor="middle" x="215.07" y="-3.05" font-family="Helvetica,sans-Serif" font-size="16.00" fill="white">NIL</text>
</g>
<!-- n4&#45;&gt;nil3 -->
<g id="edge5" class="edge">
<title>n4&#45;&gt;nil3</title>
<path fill="none" stroke="black" d="M211.2,-55.08C211.81,-47.18 212.5,-38.24 213.09,-30.48"/>
<polygon fill="black" stroke="black" points="216.56,-31.02 213.84,-20.78 209.58,-30.48 216.56,-31.02"/>
</g>
<!-- nil4 -->
<g id="node11" class="node">
<title>nil4</title>
<polygon fill="black" stroke="black" points="298.19,-1 298.19,-19 326.99,-19 326.99,-1 298.19,-1"/>
<text xml:space="preserve" text-anchor="middle" x="313.07" y="-3.05" font-family="Helvetica,sans-Serif" font-size="16.00" fill="white">NIL</text>
</g>
<!-- n5&#45;&gt;nil4 -->
<g id="edge7" class="edge">
<title>n5&#45;&gt;nil4</title>
<path fill="none" stroke="black" d="M317.34,-55.08C316.49,-47.18 315.53,-38.24 314.69,-30.48"/>
<polygon fill="black" stroke="black" points="318.2,-30.34 313.64,-20.77 311.24,-31.09 318.2,-30.34"/>
</g>
<!-- nil5 -->
<g id="node12" class="node">
<title>nil5</title>
<polygon fill="black" stroke="black" points="383.19,-1 383.19,-19 411.99,-19 411.99,-1 383.19,-1"/>
<text xml:space="preserve" text-anchor="middle" x="398.07" y="-3.05" font-family="Helvetica,sans-Serif" font-size="16.00" fill="white">NIL</text>
</g>
<!-- n5&#45;&gt;nil5 -->
<g id="edge8" class="edge">
<title>n5&#45;&gt;nil5</title>
<path fill="none" stroke="black" d="M335.75,-62.53C348.25,-52.12 365.57,-37.68 378.71,-26.74"/>
<polygon fill="black" stroke="black" points="380.8,-29.55 386.24,-20.46 376.32,-24.17 380.8,-29.55"/>
</g>
<!-- n7 -->
<g id="node14" class="node">
<title>n7</title>
<ellipse fill="black" stroke="black" cx="444.59" cy="-156" rx="21.6" ry="21.6"/>
<text xml:space="preserve" text-anchor="middle" x="444.59" y="-145.57" font-family="Helvetica,sans-Serif" font-size="24.00" fill="white">83</text>
</g>
<!-- n6&#45;&gt;n7 -->
<g id="edge14" class="edge">
<title>n6&#45;&gt;n7</title>
<path fill="none" stroke="black" d="M444.59,-212.96C444.59,-205.66 444.59,-197.3 444.59,-189.3"/>
<polygon fill="black" stroke="black" points="448.09,-189.53 444.59,-179.53 441.09,-189.53 448.09,-189.53"/>
</g>
<!-- n8 -->
<g id="node17" class="node">
<title>n8</title>
<ellipse fill="black" stroke="black" cx="588.59" cy="-156" rx="21.6" ry="21.6"/>
<text xml:space="preserve" text-anchor="middle" x="588.59" y="-145.57" font-family="Helvetica,sans-Serif" font-size="24.00" fill="white">91</text>
</g>
<!-- n6&#45;&gt;n8 -->
<g id="edge17" class="edge">
<title>n6&#45;&gt;n8</title>
<path fill="none" stroke="black" d="M463.42,-223.93C488,-210.79 531.25,-187.66 559.92,-172.33"/>
<polygon fill="black" stroke="black" points="561.26,-175.58 568.43,-167.78 557.96,-169.41 561.26,-175.58"/>
</g>
<!-- nil6 -->
<g id="node15" class="node">
<title>nil6</title>
<polygon fill="black" stroke="black" points="403.19,-68 403.19,-86 431.99,-86 431.99,-68 403.19,-68"/>
<text xml:space="preserve" text-anchor="middle" x="418.07" y="-70.05" font-family="Helvetica,sans-Serif" font-size="16.00" fill="white">NIL</text>
</g>
<!-- n7&#45;&gt;nil6 -->
<g id="edge12" class="edge">
<title>n7&#45;&gt;nil6</title>
<path fill="none" stroke="black" d="M437.64,-135.17C433.51,-123.4 428.3,-108.55 424.23,-96.94"/>
<polygon fill="black" stroke="black" points="427.6,-95.98 420.99,-87.7 421,-98.29 427.6,-95.98"/>
</g>
<!-- nil7 -->
<g id="node16" class="node">
<title>nil7</title>
<polygon fill="black" stroke="black" points="488.19,-68 488.19,-86 516.99,-86 516.99,-68 488.19,-68"/>
<text xml:space="preserve" text-anchor="middle" x="503.07" y="-70.05" font-family="Helvetica,sans-Serif" font-size="16.00" fill="white">NIL</text>
</g>
<!-- n7&#45;&gt;nil7 -->
<g id="edge13" class="edge">
<title>n7&#45;&gt;nil7</title>
<path fill="none" stroke="black" d="M457.18,-138.29C466.75,-125.59 479.87,-108.16 489.55,-95.31"/>
<polygon fill="black" stroke="black" points="492.31,-97.47 495.53,-87.37 486.72,-93.26 492.31,-97.47"/>
</g>
<!-- nil8 -->
<g id="node18" class="node">
<title>nil8</title>
<polygon fill="black" stroke="black" points="574.19,-68 574.19,-86 602.99,-86 602.99,-68 574.19,-68"/>
<text xml:space="preserve" text-anchor="middle" x="589.07" y="-70.05" font-family="Helvetica,sans-Serif" font-size="16.00" fill="white">NIL</text>
</g>
<!-- n8&#45;&gt;nil8 -->
<g id="edge15" class="edge">
<title>n8&#45;&gt;nil8</title>
<path fill="none" stroke="black" d="M588.59,-133.96C588.59,-122.69 588.59,-108.9 588.59,-97.82"/>
<polygon fill="black" stroke="black" points="592.09,-97.9 588.59,-87.9 585.09,-97.9 592.09,-97.9"/>
</g>
<!-- nil9 -->
<g id="node19" class="node">
<title>nil9</title>
<polygon fill="black" stroke="black" points="659.19,-68 659.19,-86 687.99,-86 687.99,-68 659.19,-68"/>
<text xml:space="preserve" text-anchor="middle" x="674.07" y="-70.05" font-family="Helvetica,sans-Serif" font-size="16.00" fill="white">NIL</text>
</g>
<!-- n8&#45;&gt;nil9 -->
<g id="edge16" class="edge">
<title>n8&#45;&gt;nil9</title>
<path fill="none" stroke="black" d="M604.18,-140.88C618.93,-127.52 641.01,-107.52 656.29,-93.67"/>
<polygon fill="black" stroke="black" points="658.21,-96.66 663.27,-87.35 653.51,-91.47 658.21,-96.66"/>
</g>
</g>
</svg>
