<?xml version="1.0" encoding="UTF-8" standalone="no"?>
<!DOCTYPE svg PUBLIC "-//W3C//DTD SVG 1.1//EN"
 "http://www.w3.org/Graphics/SVG/1.1/DTD/svg11.dtd">
<!-- Generated by graphviz version 14.1.1 (20251213.1925)
 -->
<!-- Title: G Pages: 1 -->
<svg width="708pt" height="344pt"
 viewBox="0.00 0.00 708.00 344.00" xmlns="http://www.w3.org/2000/svg" xmlns:xlink="http://www.w3.org/1999/xlink">
<g id="graph0" class="graph" transform="scale(1 1) rotate(0) translate(4 339.8)">
<title>G</title>
<polygon fill="white" stroke="none" points="-4,4 -4,-339.8 703.58,-339.8 703.58,4 -4,4"/>
<!-- 12 -->
<g id="node1" class="node">
<title>12</title>
<ellipse fill="red" stroke="black" cx="295.43" cy="-235" rx="21.6" ry="21.6"/>
<text xml:space="preserve" text-anchor="middle" x="295.43" y="-224.57" font-family="Helvetica,sans-Serif" font-size="24.00" fill="white">12</text>
</g>
<!-- 0 -->
<g id="node18" class="node">
<title>0</title>
<ellipse fill="black" stroke="black" cx="153.43" cy="-156" rx="21.6" ry="21.6"/>
<text xml:space="preserve" text-anchor="middle" x="153.43" y="-145.57" font-family="Helvetica,sans-Serif" font-size="24.00" fill="white">0</text>
</g>
<!-- 12&#45;&gt;0 -->
<g id="edge2" class="edge">
<title>12&#45;&gt;0</title>
<path fill="none" stroke="black" d="M276.57,-223.77C252.49,-210.72 210.57,-187.98 182.42,-172.72"/>
<polygon fill="black" stroke="black" points="184.15,-169.68 173.7,-167.99 180.82,-175.83 184.15,-169.68"/>
</g>
<!-- 18 -->
<g id="node19" class="node">
<title>18</title>
<ellipse fill="black" stroke="black" cx="295.43" cy="-156" rx="21.6" ry="21.6"/>
<text xml:space="preserve" text-anchor="middle" x="295.43" y="-145.57" font-family="Helvetica,sans-Serif" font-size="24.00" fill="white">18</text>
</g>
<!-- 12&#45;&gt;18 -->
<g id="edge7" class="edge">
<title>12&#45;&gt;18</title>
<path fill="none" stroke="black" d="M295.43,-212.96C295.43,-205.66 295.43,-197.3 295.43,-189.3"/>
<polygon fill="black" stroke="black" points="298.93,-189.53 295.43,-179.53 291.93,-189.53 298.93,-189.53"/>
</g>
<!-- 1 -->
<g id="node2" class="node">
<title>1</title>
<ellipse fill="red" stroke="black" cx="62.43" cy="-77" rx="21.6" ry="21.6"/>
<text xml:space="preserve" text-anchor="middle" x="62.43" y="-66.58" font-family="Helvetica,sans-Serif" font-size="24.00" fill="white">1</text>
</g>
<!-- nil1 -->
<g id="node7" class="node">
<title>nil1</title>
<polygon fill="black" stroke="black" points="10.03,-1 10.03,-19 38.83,-19 38.83,-1 10.03,-1"/>
<text xml:space="preserve" text-anchor="middle" x="24.91" y="-3.05" font-family="Helvetica,sans-Serif" font-size="16.00" fill="white">NIL</text>
</g>
<!-- 1&#45;&gt;nil1 -->
<g id="edge5" class="edge">
<title>1&#45;&gt;nil1</title>
<path fill="none" stroke="black" d="M51.85,-57.89C46.6,-48.92 40.28,-38.11 35.03,-29.14"/>
<polygon fill="black" stroke="black" points="38.14,-27.51 30.07,-20.65 32.1,-31.05 38.14,-27.51"/>
</g>
<!-- nil2 -->
<g id="node8" class="node">
<title>nil2</title>
<polygon fill="black" stroke="black" points="89.03,-1 89.03,-19 117.83,-19 117.83,-1 89.03,-1"/>
<text xml:space="preserve" text-anchor="middle" x="103.91" y="-3.05" font-family="Helvetica,sans-Serif" font-size="16.00" fill="white">NIL</text>
</g>
<!-- 1&#45;&gt;nil2 -->
<g id="edge6" class="edge">
<title>1&#45;&gt;nil2</title>
<path fill="none" stroke="black" d="M73.63,-58.24C79.36,-49.16 86.31,-38.14 92.06,-29.02"/>
<polygon fill="black" stroke="black" points="94.93,-31.04 97.3,-20.71 89.01,-27.3 94.93,-31.04"/>
</g>
<!-- 50 -->
<g id="node3" class="node">
<title>50</title>
<ellipse fill="red" stroke="black" cx="419.43" cy="-235" rx="21.6" ry="21.6"/>
<text xml:space="preserve" text-anchor="middle" x="419.43" y="-224.57" font-family="Helvetica,sans-Serif" font-size="24.00" fill="white">50</text>
</g>
<!-- 33 -->
<g id="node20" class="node">
<title>33</title>
<ellipse fill="black" stroke="black" cx="419.43" cy="-156" rx="21.6" ry="21.6"/>
<text xml:space="preserve" text-anchor="middle" x="419.43" y="-145.57" font-family="Helvetica,sans-Serif" font-size="24.00" fill="white">33</text>
</g>
<!-- 50&#45;&gt;33 -->
<g id="edge11" class="edge">
<title>50&#45;&gt;33</title>
<path fill="none" stroke="black" d="M419.43,-212.96C419.43,-205.66 419.43,-197.3 419.43,-189.3"/>
<polygon fill="black" stroke="black" points="422.93,-189.53 419.43,-179.53 415.93,-189.53 422.93,-189.53"/>
</g>
<!-- 51 -->
<g id="node21" class="node">
<title>51</title>
<ellipse fill="black" stroke="black" cx="584.43" cy="-156" rx="21.6" ry="21.6"/>
<text xml:space="preserve" text-anchor="middle" x="584.43" y="-145.57" font-family="Helvetica,sans-Serif" font-size="24.00" fill="white">51</text>
</g>
<!-- 50&#45;&gt;51 -->
<g id="edge16" class="edge">
<title>50&#45;&gt;51</title>
<path fill="none" stroke="black" d="M439.01,-224.86C467.66,-211.49 521.25,-186.48 554.76,-170.85"/>
<polygon fill="black" stroke="black" points="555.93,-174.16 563.51,-166.76 552.97,-167.82 555.93,-174.16"/>
</g>
<!-- 36 -->
<g id="node4" class="node">
<title>36</title>
<ellipse fill="red" stroke="black" cx="402.43" cy="-77" rx="21.6" ry="21.6"/>
<text xml:space="preserve" text-anchor="middle" x="402.43" y="-66.58" font-family="Helvetica,sans-Serif" font-size="24.00" fill="white">36</text>
</g>
<!-- nil6 -->
<g id="node12" class="node">
<title>nil6</title>
<polygon fill="black" stroke="black" points="340.03,-1 340.03,-19 368.83,-19 368.83,-1 340.03,-1"/>
<text xml:space="preserve" text-anchor="middle" x="354.91" y="-3.05" font-family="Helvetica,sans-Serif" font-size="16.00" fill="white">NIL</text>
</g>
<!-- 36&#45;&gt;nil6 -->
<g id="edge14" class="edge">
<title>36&#45;&gt;nil6</title>
<path fill="none" stroke="black" d="M389.82,-58.92C382.88,-49.53 374.3,-37.9 367.32,-28.45"/>
<polygon fill="black" stroke="black" points="370.19,-26.44 361.43,-20.48 364.56,-30.6 370.19,-26.44"/>
</g>
<!-- nil7 -->
<g id="node13" class="node">
<title>nil7</title>
<polygon fill="black" stroke="black" points="419.03,-1 419.03,-19 447.83,-19 447.83,-1 419.03,-1"/>
<text xml:space="preserve" text-anchor="middle" x="433.91" y="-3.05" font-family="Helvetica,sans-Serif" font-size="16.00" fill="white">NIL</text>
</g>
<!-- 36&#45;&gt;nil7 -->
<g id="edge15" class="edge">
<title>36&#45;&gt;nil7</title>
<path fill="none" stroke="black" d="M411.4,-57.2C415.52,-48.54 420.41,-38.3 424.53,-29.66"/>
<polygon fill="black" stroke="black" points="427.58,-31.4 428.73,-20.87 421.26,-28.39 427.58,-31.4"/>
</g>
<!-- 58 -->
<g id="node5" class="node">
<title>58</title>
<ellipse fill="red" stroke="black" cx="584.43" cy="-77" rx="21.6" ry="21.6"/>
<text xml:space="preserve" text-anchor="middle" x="584.43" y="-66.58" font-family="Helvetica,sans-Serif" font-size="24.00" fill="white">58</text>
</g>
<!-- nil9 -->
<g id="node15" class="node">
<title>nil9</title>
<polygon fill="black" stroke="black" points="530.03,-1 530.03,-19 558.83,-19 558.83,-1 530.03,-1"/>
<text xml:space="preserve" text-anchor="middle" x="544.91" y="-3.05" font-family="Helvetica,sans-Serif" font-size="16.00" fill="white">NIL</text>
</g>
<!-- 58&#45;&gt;nil9 -->
<g id="edge19" class="edge">
<title>58&#45;&gt;nil9</title>
<path fill="none" stroke="black" d="M573.5,-58.24C567.91,-49.16 561.13,-38.14 555.52,-29.02"/>
<polygon fill="black" stroke="black" points="558.63,-27.4 550.41,-20.72 552.67,-31.07 558.63,-27.4"/>
</g>
<!-- nil10 -->
<g id="node16" class="node">
<title>nil10</title>
<polygon fill="black" stroke="black" points="609.03,-1 609.03,-19 637.83,-19 637.83,-1 609.03,-1"/>
<text xml:space="preserve" text-anchor="middle" x="623.91" y="-3.05" font-family="Helvetica,sans-Serif" font-size="16.00" fill="white">NIL</text>
</g>
<!-- 58&#45;&gt;nil10 -->
<g id="edge20" class="edge">
<title>58&#45;&gt;nil10</title>
<path fill="none" stroke="black" d="M595.29,-57.89C600.68,-48.92 607.16,-38.11 612.55,-29.14"/>
<polygon fill="black" stroke="black" points="615.5,-31.01 617.65,-20.64 609.5,-27.41 615.5,-31.01"/>
</g>
<!-- nil0 -->
<g id="node6" class="node">
<title>nil0</title>
<polygon fill="black" stroke="black" points="139.03,-68 139.03,-86 167.83,-86 167.83,-68 139.03,-68"/>
<text xml:space="preserve" text-anchor="middle" x="153.91" y="-70.05" font-family="Helvetica,sans-Serif" font-size="16.00" fill="white">NIL</text>
</g>
<!-- nil3 -->
<g id="node9" class="node">
<title>nil3</title>
<polygon fill="black" stroke="black" points="218.03,-68 218.03,-86 246.83,-86 246.83,-68 218.03,-68"/>
<text xml:space="preserve" text-anchor="middle" x="232.91" y="-70.05" font-family="Helvetica,sans-Serif" font-size="16.00" fill="white">NIL</text>
</g>
<!-- nil4 -->
<g id="node10" class="node">
<title>nil4</title>
<polygon fill="black" stroke="black" points="298.03,-68 298.03,-86 326.83,-86 326.83,-68 298.03,-68"/>
<text xml:space="preserve" text-anchor="middle" x="312.91" y="-70.05" font-family="Helvetica,sans-Serif" font-size="16.00" fill="white">NIL</text>
</g>
<!-- nil5 -->
<g id="node11" class="node">
<title>nil5</title>
<polygon fill="black" stroke="black" points="479.03,-68 479.03,-86 507.83,-86 507.83,-68 479.03,-68"/>
<text xml:space="preserve" text-anchor="middle" x="493.91" y="-70.05" font-family="Helvetica,sans-Serif" font-size="16.00" fill="white">NIL</text>
</g>
<!-- nil8 -->
<g id="node14" class="node">
<title>nil8</title>
<polygon fill="black" stroke="black" points="661.03,-68 661.03,-86 689.83,-86 689.83,-68 661.03,-68"/>
<text xml:space="preserve" text-anchor="middle" x="675.91" y="-70.05" font-family="Helvetica,sans-Serif" font-size="16.00" fill="white">NIL</text>
</g>
<!-- 30 -->
<g id="node17" class="node">
<title>30</title>
<ellipse fill="black" stroke="black" cx="345.43" cy="-314" rx="21.6" ry="21.6"/>
<text xml:space="preserve" text-anchor="middle" x="345.43" y="-303.57" font-family="Helvetica,sans-Serif" font-size="24.00" fill="white">30</text>
</g>
<!-- 30&#45;&gt;12 -->
<g id="edge1" class="edge">
<title>30&#45;&gt;12</title>
<path fill="none" stroke="black" d="M334.08,-295.53C327.86,-285.95 320.02,-273.86 313.02,-263.09"/>
<polygon fill="black" stroke="black" points="316.11,-261.42 307.73,-254.94 310.24,-265.23 316.11,-261.42"/>
</g>
<!-- 30&#45;&gt;50 -->
<g id="edge10" class="edge">
<title>30&#45;&gt;50</title>
<path fill="none" stroke="black" d="M360.05,-297.79C370.59,-286.82 385.01,-271.81 397.01,-259.33"/>
<polygon fill="black" stroke="black" points="399.39,-261.91 403.79,-252.27 394.34,-257.06 399.39,-261.91"/>
</g>
<!-- 0&#45;&gt;1 -->
<g id="edge4" class="edge">
<title>0&#45;&gt;1</title>
<path fill="none" stroke="black" d="M137.16,-141.23C123.32,-129.52 103.21,-112.5 87.33,-99.07"/>
<polygon fill="black" stroke="black" points="89.61,-96.41 79.71,-92.62 85.09,-101.76 89.61,-96.41"/>
</g>
<!-- 0&#45;&gt;nil0 -->
<g id="edge3" class="edge">
<title>0&#45;&gt;nil0</title>
<path fill="none" stroke="black" d="M153.43,-133.96C153.43,-122.69 153.43,-108.9 153.43,-97.82"/>
<polygon fill="black" stroke="black" points="156.93,-97.9 153.43,-87.9 149.93,-97.9 156.93,-97.9"/>
</g>
<!-- 18&#45;&gt;nil3 -->
<g id="edge8" class="edge">
<title>18&#45;&gt;nil3</title>
<path fill="none" stroke="black" d="M282.07,-138.67C271.59,-125.87 257.05,-108.1 246.42,-95.1"/>
<polygon fill="black" stroke="black" points="249.18,-92.94 240.14,-87.42 243.76,-97.38 249.18,-92.94"/>
</g>
<!-- 18&#45;&gt;nil4 -->
<g id="edge9" class="edge">
<title>18&#45;&gt;nil4</title>
<path fill="none" stroke="black" d="M299.9,-134.77C302.47,-123.12 305.68,-108.57 308.21,-97.11"/>
<polygon fill="black" stroke="black" points="311.56,-98.18 310.3,-87.66 304.72,-96.67 311.56,-98.18"/>
</g>
<!-- 33&#45;&gt;36 -->
<g id="edge13" class="edge">
<title>33&#45;&gt;36</title>
<path fill="none" stroke="black" d="M414.96,-134.77C413.26,-127.05 411.27,-118.05 409.39,-109.53"/>
<polygon fill="black" stroke="black" points="412.83,-108.85 407.25,-99.84 405.99,-110.36 412.83,-108.85"/>
</g>
<!-- 33&#45;&gt;nil5 -->
<g id="edge12" class="edge">
<title>33&#45;&gt;nil5</title>
<path fill="none" stroke="black" d="M434.05,-139.79C446.64,-126.68 464.78,-107.81 477.69,-94.38"/>
<polygon fill="black" stroke="black" points="480.21,-96.81 484.61,-87.18 475.16,-91.96 480.21,-96.81"/>
</g>
<!-- 51&#45;&gt;58 -->
<g id="edge18" class="edge">
<title>51&#45;&gt;58</title>
<path fill="none" stroke="black" d="M584.43,-133.96C584.43,-126.66 584.43,-118.3 584.43,-110.3"/>
<polygon fill="black" stroke="black" points="587.93,-110.53 584.43,-100.53 580.93,-110.53 587.93,-110.53"/>
</g>
<!-- 51&#45;&gt;nil8 -->
<g id="edge17" class="edge">
<title>51&#45;&gt;nil8</title>
<path fill="none" stroke="black" d="M600.7,-141.23C616.43,-127.93 640.23,-107.78 656.73,-93.82"/>
<polygon fill="black" stroke="black" points="658.96,-96.52 664.33,-87.39 654.44,-91.18 658.96,-96.52"/>
</g>
</g>
</svg>
