<?xml version="1.0" encoding="UTF-8" standalone="no"?>
<!DOCTYPE svg PUBLIC "-//W3C//DTD SVG 1.1//EN"
 "http://www.w3.org/Graphics/SVG/1.1/DTD/svg11.dtd">
<!-- Generated by graphviz version 14.1.1 (20251213.1925)
 -->
<!-- Title: G Pages: 1 -->
<svg width="708pt" height="344pt"
 viewBox="0.00 0.00 708.00 344.00" xmlns="http://www.w3.org/2000/svg" xmlns:xlink="http://www.w3.org/1999/xlink">
<g id="graph0" class="graph" transform="scale(1 1) rotate(0) translate(4 339.8)">
<title>G</title>
<polygon fill="white" stroke="none" points="-4,4 -4,-339.8 703.58,-339.8 703.58,4 -4,4"/>
<!-- n0 -->
<g id="node1" class="node">
<title>n0</title>
<ellipse fill="black" stroke="black" cx="485.47" cy="-314" rx="21.6" ry="21.6"/>
<text xml:space="preserve" text-anchor="middle" x="485.47" y="-303.57" font-family="Helvetica,sans-Serif" font-size="24.00" fill="white">87</text>
</g>
<!-- n1 -->
<g id="node2" class="node">
<title>n1</title>
<ellipse fill="red" stroke="black" cx="414.47" cy="-235" rx="21.6" ry="21.6"/>
<text xml:space="preserve" text-anchor="middle" x="414.47" y="-224.57" font-family="Helvetica,sans-Serif" font-size="24.00" fill="white">83</text>
</g>
<!-- n0&#45;&gt;n1 -->
<g id="edge11" class="edge">
<title>n0&#45;&gt;n1</title>
<path fill="none" stroke="black" d="M471.1,-297.42C461.19,-286.67 447.82,-272.17 436.56,-259.96"/>
<polygon fill="black" stroke="black" points="439.19,-257.65 429.84,-252.67 434.04,-262.4 439.19,-257.65"/>
</g>
<!-- n6 -->
<g id="node13" class="node">
<title>n6</title>
<ellipse fill="black" stroke="black" cx="559.47" cy="-235" rx="21.6" ry="21.6"/>
<text xml:space="preserve" text-anchor="middle" x="559.47" y="-224.57" font-family="Helvetica,sans-Serif" font-size="24.00" fill="white">91</text>
</g>
<!-- n0&#45;&gt;n6 -->
<g id="edge14" class="edge">
<title>n0&#45;&gt;n6</title>
<path fill="none" stroke="black" d="M500.09,-297.79C510.63,-286.82 525.05,-271.81 537.04,-259.33"/>
<polygon fill="black" stroke="black" points="539.42,-261.91 543.83,-252.27 534.37,-257.06 539.42,-261.91"/>
</g>
<!-- n2 -->
<g id="node3" class="node">
<title>n2</title>
<ellipse fill="black" stroke="black" cx="275.47" cy="-156" rx="21.6" ry="21.6"/>
<text xml:space="preserve" text-anchor="middle" x="275.47" y="-145.57" font-family="Helvetica,sans-Serif" font-size="24.00" fill="white">39</text>
</g>
<!-- n1&#45;&gt;n2 -->
<g id="edge7" class="edge">
<title>n1&#45;&gt;n2</title>
<path fill="none" stroke="black" d="M395.72,-223.62C372.06,-210.51 331.16,-187.85 303.71,-172.65"/>
<polygon fill="black" stroke="black" points="305.68,-169.74 295.24,-167.95 302.29,-175.86 305.68,-169.74"/>
</g>
<!-- n5 -->
<g id="node10" class="node">
<title>n5</title>
<ellipse fill="black" stroke="black" cx="419.47" cy="-156" rx="21.6" ry="21.6"/>
<text xml:space="preserve" text-anchor="middle" x="419.47" y="-145.57" font-family="Helvetica,sans-Serif" font-size="24.00" fill="white">83</text>
</g>
<!-- n1&#45;&gt;n5 -->
<g id="edge10" class="edge">
<title>n1&#45;&gt;n5</title>
<path fill="none" stroke="black" d="M415.83,-212.96C416.31,-205.66 416.85,-197.3 417.37,-189.3"/>
<polygon fill="black" stroke="black" points="420.85,-189.73 418,-179.53 413.86,-189.28 420.85,-189.73"/>
</g>
<!-- n3 -->
<g id="node4" class="node">
<title>n3</title>
<ellipse fill="red" stroke="black" cx="135.47" cy="-77" rx="21.6" ry="21.6"/>
<text xml:space="preserve" text-anchor="middle" x="135.47" y="-66.58" font-family="Helvetica,sans-Serif" font-size="24.00" fill="white">3</text>
</g>
<!-- n2&#45;&gt;n3 -->
<g id="edge3" class="edge">
<title>n2&#45;&gt;n3</title>
<path fill="none" stroke="black" d="M256.58,-144.62C232.76,-131.51 191.56,-108.85 163.92,-93.65"/>
<polygon fill="black" stroke="black" points="165.82,-90.7 155.37,-88.95 162.45,-96.84 165.82,-90.7"/>
</g>
<!-- n4 -->
<g id="node7" class="node">
<title>n4</title>
<ellipse fill="red" stroke="black" cx="280.47" cy="-77" rx="21.6" ry="21.6"/>
<text xml:space="preserve" text-anchor="middle" x="280.47" y="-66.58" font-family="Helvetica,sans-Serif" font-size="24.00" fill="white">40</text>
</g>
<!-- n2&#45;&gt;n4 -->
<g id="edge6" class="edge">
<title>n2&#45;&gt;n4</title>
<path fill="none" stroke="black" d="M276.83,-133.96C277.31,-126.66 277.85,-118.3 278.37,-110.3"/>
<polygon fill="black" stroke="black" points="281.85,-110.73 279,-100.53 274.86,-110.28 281.85,-110.73"/>
</g>
<!-- nil0 -->
<g id="node5" class="node">
<title>nil0</title>
<polygon fill="black" stroke="black" points="20.07,-1 20.07,-19 48.87,-19 48.87,-1 20.07,-1"/>
<text xml:space="preserve" text-anchor="middle" x="34.94" y="-3.05" font-family="Helvetica,sans-Serif" font-size="16.00" fill="white">NIL</text>
</g>
<!-- n3&#45;&gt;nil0 -->
<g id="edge1" class="edge">
<title>n3&#45;&gt;nil0</title>
<path fill="none" stroke="black" d="M117.41,-64.38C100.54,-53.52 75.29,-37.28 57.09,-25.56"/>
<polygon fill="black" stroke="black" points="59.12,-22.71 48.82,-20.24 55.34,-28.59 59.12,-22.71"/>
</g>
<!-- nil1 -->
<g id="node6" class="node">
<title>nil1</title>
<polygon fill="black" stroke="black" points="131.07,-1 131.07,-19 159.87,-19 159.87,-1 131.07,-1"/>
<text xml:space="preserve" text-anchor="middle" x="145.94" y="-3.05" font-family="Helvetica,sans-Serif" font-size="16.00" fill="white">NIL</text>
</g>
<!-- n3&#45;&gt;nil1 -->
<g id="edge2" class="edge">
<title>n3&#45;&gt;nil1</title>
<path fill="none" stroke="black" d="M138.63,-55.43C139.85,-47.52 141.23,-38.52 142.44,-30.69"/>
<polygon fill="black" stroke="black" points="145.89,-31.28 143.95,-20.86 138.97,-30.21 145.89,-31.28"/>
</g>
<!-- nil2 -->
<g id="node8" class="node">
<title>nil2</title>
<polygon fill="black" stroke="black" points="258.07,-1 258.07,-19 286.87,-19 286.87,-1 258.07,-1"/>
<text xml:space="preserve" text-anchor="middle" x="272.94" y="-3.05" font-family="Helvetica,sans-Serif" font-size="16.00" fill="white">NIL</text>
</g>
<!-- n4&#45;&gt;nil2 -->
<g id="edge4" class="edge">
<title>n4&#45;&gt;nil2</title>
<path fill="none" stroke="black" d="M277.89,-55.08C276.92,-47.18 275.82,-38.24 274.86,-30.48"/>
<polygon fill="black" stroke="black" points="278.36,-30.27 273.67,-20.77 271.42,-31.12 278.36,-30.27"/>
</g>
<!-- nil3 -->
<g id="node9" class="node">
<title>nil3</title>
<polygon fill="black" stroke="black" points="370.07,-1 370.07,-19 398.87,-19 398.87,-1 370.07,-1"/>
<text xml:space="preserve" text-anchor="middle" x="384.94" y="-3.05" font-family="Helvetica,sans-Serif" font-size="16.00" fill="white">NIL</text>
</g>
<!-- n4&#45;&gt;nil3 -->
<g id="edge5" class="edge">
<title>n4&#45;&gt;nil3</title>
<path fill="none" stroke="black" d="M298.58,-64.68C316.06,-53.75 342.59,-37.17 361.54,-25.33"/>
<polygon fill="black" stroke="black" points="363.27,-28.38 369.89,-20.11 359.56,-22.44 363.27,-28.38"/>
</g>
<!-- nil4 -->
<g id="node11" class="node">
<title>nil4</title>
<polygon fill="black" stroke="black" points="400.07,-68 400.07,-86 428.87,-86 428.87,-68 400.07,-68"/>
<text xml:space="preserve" text-anchor="middle" x="414.94" y="-70.05" font-family="Helvetica,sans-Serif" font-size="16.00" fill="white">NIL</text>
</g>
<!-- n5&#45;&gt;nil4 -->
<g id="edge8" class="edge">
<title>n5&#45;&gt;nil4</title>
<path fill="none" stroke="black" d="M418.1,-133.96C417.37,-122.69 416.47,-108.9 415.75,-97.82"/>
<polygon fill="black" stroke="black" points="419.25,-97.65 415.11,-87.9 412.26,-98.1 419.25,-97.65"/>
</g>
<!-- nil5 -->
<g id="node12" class="node">
<title>nil5</title>
<polygon fill="black" stroke="black" points="512.07,-68 512.07,-86 540.87,-86 540.87,-68 512.07,-68"/>
<text xml:space="preserve" text-anchor="middle" x="526.94" y="-70.05" font-family="Helvetica,sans-Serif" font-size="16.00" fill="white">NIL</text>
</g>
<!-- n5&#45;&gt;nil5 -->
<g id="edge9" class="edge">
<title>n5&#45;&gt;nil5</title>
<path fill="none" stroke="black" d="M436.66,-142.63C455.46,-129.1 485.58,-107.42 505.69,-92.95"/>
<polygon fill="black" stroke="black" points="507.62,-95.87 513.69,-87.19 503.53,-90.19 507.62,-95.87"/>
</g>
<!-- nil6 -->
<g id="node14" class="node">
<title>nil6</title>
<polygon fill="black" stroke="black" points="540.07,-147 540.07,-165 568.87,-165 568.87,-147 540.07,-147"/>
<text xml:space="preserve" text-anchor="middle" x="554.94" y="-149.05" font-family="Helvetica,sans-Serif" font-size="16.00" fill="white">NIL</text>
</g>
<!-- n6&#45;&gt;nil6 -->
<g id="edge12" class="edge">
<title>n6&#45;&gt;nil6</title>
<path fill="none" stroke="black" d="M558.1,-212.96C557.37,-201.69 556.47,-187.9 555.75,-176.82"/>
<polygon fill="black" stroke="black" points="559.25,-176.65 555.11,-166.9 552.26,-177.1 559.25,-176.65"/>
</g>
<!-- nil7 -->
<g id="node15" class="node">
<title>nil7</title>
<polygon fill="black" stroke="black" points="651.07,-147 651.07,-165 679.87,-165 679.87,-147 651.07,-147"/>
<text xml:space="preserve" text-anchor="middle" x="665.94" y="-149.05" font-family="Helvetica,sans-Serif" font-size="16.00" fill="white">NIL</text>
</g>
<!-- n6&#45;&gt;nil7 -->
<g id="edge13" class="edge">
<title>n6&#45;&gt;nil7</title>
<path fill="none" stroke="black" d="M576.5,-221.63C595.12,-208.1 624.96,-186.42 644.89,-171.95"/>
<polygon fill="black" stroke="black" points="646.77,-174.91 652.81,-166.2 642.66,-169.24 646.77,-174.91"/>
</g>
</g>
</svg>
