<?xml version="1.0" encoding="UTF-8" standalone="no"?>
<!DOCTYPE svg PUBLIC "-//W3C//DTD SVG 1.1//EN"
 "http://www.w3.org/Graphics/SVG/1.1/DTD/svg11.dtd">
<!-- Generated by graphviz version 14.1.1 (20251213.1925)
 -->
<!-- Title: G Pages: 1 -->
<svg width="873pt" height="423pt"
 viewBox="0.00 0.00 873.00 423.00" xmlns="http://www.w3.org/2000/svg" xmlns:xlink="http://www.w3.org/1999/xlink">
<g id="graph0" class="graph" transform="scale(1 1) rotate(0) translate(4 419)">
<title>G</title>
<polygon fill="white" stroke="none" points="-4,4 -4,-419 868.58,-419 868.58,4 -4,4"/>
<!-- 1 -->
<g id="node1" class="node">
<title>1</title>
<ellipse fill="red" stroke="black" cx="69.65" cy="-156" rx="21.6" ry="21.6"/>
<text xml:space="preserve" text-anchor="middle" x="69.65" y="-145.57" font-family="Helvetica,sans-Serif" font-size="24.00" fill="white">1</text>
</g>
<!-- nil1 -->
<g id="node6" class="node">
<title>nil1</title>
<polygon fill="black" stroke="black" points="12.25,-68 12.25,-86 41.05,-86 41.05,-68 12.25,-68"/>
<text xml:space="preserve" text-anchor="middle" x="27.13" y="-70.05" font-family="Helvetica,sans-Serif" font-size="16.00" fill="white">NIL</text>
</g>
<!-- 1&#45;&gt;nil1 -->
<g id="edge5" class="edge">
<title>1&#45;&gt;nil1</title>
<path fill="none" stroke="black" d="M59.46,-136.75C52.61,-124.49 43.63,-108.41 36.8,-96.17"/>
<polygon fill="black" stroke="black" points="39.91,-94.57 31.98,-87.55 33.8,-97.99 39.91,-94.57"/>
</g>
<!-- nil2 -->
<g id="node7" class="node">
<title>nil2</title>
<polygon fill="black" stroke="black" points="100.25,-68 100.25,-86 129.05,-86 129.05,-68 100.25,-68"/>
<text xml:space="preserve" text-anchor="middle" x="115.13" y="-70.05" font-family="Helvetica,sans-Serif" font-size="16.00" fill="white">NIL</text>
</g>
<!-- 1&#45;&gt;nil2 -->
<g id="edge6" class="edge">
<title>1&#45;&gt;nil2</title>
<path fill="none" stroke="black" d="M80.31,-136.75C87.48,-124.49 96.88,-108.41 104.03,-96.17"/>
<polygon fill="black" stroke="black" points="107.05,-97.93 109.08,-87.53 101.01,-94.4 107.05,-97.93"/>
</g>
<!-- 36 -->
<g id="node2" class="node">
<title>36</title>
<ellipse fill="red" stroke="black" cx="465.65" cy="-235" rx="21.6" ry="21.6"/>
<text xml:space="preserve" text-anchor="middle" x="465.65" y="-224.57" font-family="Helvetica,sans-Serif" font-size="24.00" fill="white">36</text>
</g>
<!-- 33 -->
<g id="node23" class="node">
<title>33</title>
<ellipse fill="black" stroke="black" cx="447.65" cy="-156" rx="21.6" ry="21.6"/>
<text xml:space="preserve" text-anchor="middle" x="447.65" y="-145.57" font-family="Helvetica,sans-Serif" font-size="24.00" fill="white">33</text>
</g>
<!-- 36&#45;&gt;33 -->
<g id="edge12" class="edge">
<title>36&#45;&gt;33</title>
<path fill="none" stroke="black" d="M460.92,-213.77C459.12,-206.05 457.01,-197.05 455.02,-188.53"/>
<polygon fill="black" stroke="black" points="458.44,-187.78 452.75,-178.84 451.62,-189.37 458.44,-187.78"/>
</g>
<!-- 41 -->
<g id="node24" class="node">
<title>41</title>
<ellipse fill="black" stroke="black" cx="561.65" cy="-156" rx="21.6" ry="21.6"/>
<text xml:space="preserve" text-anchor="middle" x="561.65" y="-145.57" font-family="Helvetica,sans-Serif" font-size="24.00" fill="white">41</text>
</g>
<!-- 36&#45;&gt;41 -->
<g id="edge15" class="edge">
<title>36&#45;&gt;41</title>
<path fill="none" stroke="black" d="M482.37,-220.59C497.24,-208.66 519.2,-191.05 536.24,-177.38"/>
<polygon fill="black" stroke="black" points="538.33,-180.19 543.94,-171.21 533.95,-174.73 538.33,-180.19"/>
</g>
<!-- 42 -->
<g id="node3" class="node">
<title>42</title>
<ellipse fill="red" stroke="black" cx="547.65" cy="-77" rx="21.6" ry="21.6"/>
<text xml:space="preserve" text-anchor="middle" x="547.65" y="-66.58" font-family="Helvetica,sans-Serif" font-size="24.00" fill="white">42</text>
</g>
<!-- nil8 -->
<g id="node13" class="node">
<title>nil8</title>
<polygon fill="black" stroke="black" points="489.25,-1 489.25,-19 518.05,-19 518.05,-1 489.25,-1"/>
<text xml:space="preserve" text-anchor="middle" x="504.13" y="-3.05" font-family="Helvetica,sans-Serif" font-size="16.00" fill="white">NIL</text>
</g>
<!-- 42&#45;&gt;nil8 -->
<g id="edge18" class="edge">
<title>42&#45;&gt;nil8</title>
<path fill="none" stroke="black" d="M535.86,-58.58C529.57,-49.29 521.85,-37.89 515.55,-28.58"/>
<polygon fill="black" stroke="black" points="518.53,-26.75 510.03,-20.43 512.74,-30.67 518.53,-26.75"/>
</g>
<!-- nil9 -->
<g id="node14" class="node">
<title>nil9</title>
<polygon fill="black" stroke="black" points="576.25,-1 576.25,-19 605.05,-19 605.05,-1 576.25,-1"/>
<text xml:space="preserve" text-anchor="middle" x="591.13" y="-3.05" font-family="Helvetica,sans-Serif" font-size="16.00" fill="white">NIL</text>
</g>
<!-- 42&#45;&gt;nil9 -->
<g id="edge19" class="edge">
<title>42&#45;&gt;nil9</title>
<path fill="none" stroke="black" d="M559.17,-58.58C565.32,-49.29 572.86,-37.89 579.02,-28.58"/>
<polygon fill="black" stroke="black" points="581.81,-30.71 584.41,-20.43 575.97,-26.84 581.81,-30.71"/>
</g>
<!-- 58 -->
<g id="node4" class="node">
<title>58</title>
<ellipse fill="red" stroke="black" cx="736.65" cy="-156" rx="21.6" ry="21.6"/>
<text xml:space="preserve" text-anchor="middle" x="736.65" y="-145.57" font-family="Helvetica,sans-Serif" font-size="24.00" fill="white">58</text>
</g>
<!-- nil11 -->
<g id="node16" class="node">
<title>nil11</title>
<polygon fill="black" stroke="black" points="722.25,-68 722.25,-86 751.05,-86 751.05,-68 722.25,-68"/>
<text xml:space="preserve" text-anchor="middle" x="737.13" y="-70.05" font-family="Helvetica,sans-Serif" font-size="16.00" fill="white">NIL</text>
</g>
<!-- 58&#45;&gt;nil11 -->
<g id="edge23" class="edge">
<title>58&#45;&gt;nil11</title>
<path fill="none" stroke="black" d="M736.65,-133.96C736.65,-122.69 736.65,-108.9 736.65,-97.82"/>
<polygon fill="black" stroke="black" points="740.15,-97.9 736.65,-87.9 733.15,-97.9 740.15,-97.9"/>
</g>
<!-- nil12 -->
<g id="node17" class="node">
<title>nil12</title>
<polygon fill="black" stroke="black" points="810.25,-68 810.25,-86 839.05,-86 839.05,-68 810.25,-68"/>
<text xml:space="preserve" text-anchor="middle" x="825.13" y="-70.05" font-family="Helvetica,sans-Serif" font-size="16.00" fill="white">NIL</text>
</g>
<!-- 58&#45;&gt;nil12 -->
<g id="edge24" class="edge">
<title>58&#45;&gt;nil12</title>
<path fill="none" stroke="black" d="M752.38,-141.23C767.59,-127.93 790.61,-107.78 806.57,-93.82"/>
<polygon fill="black" stroke="black" points="808.67,-96.63 813.89,-87.41 804.06,-91.36 808.67,-96.63"/>
</g>
<!-- nil0 -->
<g id="node5" class="node">
<title>nil0</title>
<polygon fill="black" stroke="black" points="156.25,-147 156.25,-165 185.05,-165 185.05,-147 156.25,-147"/>
<text xml:space="preserve" text-anchor="middle" x="171.13" y="-149.05" font-family="Helvetica,sans-Serif" font-size="16.00" fill="white">NIL</text>
</g>
<!-- nil3 -->
<g id="node8" class="node">
<title>nil3</title>
<polygon fill="black" stroke="black" points="244.25,-147 244.25,-165 273.05,-165 273.05,-147 244.25,-147"/>
<text xml:space="preserve" text-anchor="middle" x="259.13" y="-149.05" font-family="Helvetica,sans-Serif" font-size="16.00" fill="white">NIL</text>
</g>
<!-- nil4 -->
<g id="node9" class="node">
<title>nil4</title>
<polygon fill="black" stroke="black" points="332.25,-147 332.25,-165 361.05,-165 361.05,-147 332.25,-147"/>
<text xml:space="preserve" text-anchor="middle" x="347.13" y="-149.05" font-family="Helvetica,sans-Serif" font-size="16.00" fill="white">NIL</text>
</g>
<!-- nil5 -->
<g id="node10" class="node">
<title>nil5</title>
<polygon fill="black" stroke="black" points="345.25,-68 345.25,-86 374.05,-86 374.05,-68 345.25,-68"/>
<text xml:space="preserve" text-anchor="middle" x="360.13" y="-70.05" font-family="Helvetica,sans-Serif" font-size="16.00" fill="white">NIL</text>
</g>
<!-- nil6 -->
<g id="node11" class="node">
<title>nil6</title>
<polygon fill="black" stroke="black" points="433.25,-68 433.25,-86 462.05,-86 462.05,-68 433.25,-68"/>
<text xml:space="preserve" text-anchor="middle" x="448.13" y="-70.05" font-family="Helvetica,sans-Serif" font-size="16.00" fill="white">NIL</text>
</g>
<!-- nil7 -->
<g id="node12" class="node">
<title>nil7</title>
<polygon fill="black" stroke="black" points="634.25,-68 634.25,-86 663.05,-86 663.05,-68 634.25,-68"/>
<text xml:space="preserve" text-anchor="middle" x="649.13" y="-70.05" font-family="Helvetica,sans-Serif" font-size="16.00" fill="white">NIL</text>
</g>
<!-- nil10 -->
<g id="node15" class="node">
<title>nil10</title>
<polygon fill="black" stroke="black" points="823.25,-147 823.25,-165 852.05,-165 852.05,-147 823.25,-147"/>
<text xml:space="preserve" text-anchor="middle" x="838.13" y="-149.05" font-family="Helvetica,sans-Serif" font-size="16.00" fill="white">NIL</text>
</g>
<!-- 30 -->
<g id="node18" class="node">
<title>30</title>
<ellipse fill="black" stroke="black" cx="383.65" cy="-393" rx="21.6" ry="21.6"/>
<text xml:space="preserve" text-anchor="middle" x="383.65" y="-382.57" font-family="Helvetica,sans-Serif" font-size="24.00" fill="white">30</text>
</g>
<!-- 12 -->
<g id="node19" class="node">
<title>12</title>
<ellipse fill="black" stroke="black" cx="327.65" cy="-314" rx="21.6" ry="21.6"/>
<text xml:space="preserve" text-anchor="middle" x="327.65" y="-303.57" font-family="Helvetica,sans-Serif" font-size="24.00" fill="white">12</text>
</g>
<!-- 30&#45;&gt;12 -->
<g id="edge1" class="edge">
<title>30&#45;&gt;12</title>
<path fill="none" stroke="black" d="M371.22,-374.91C364.04,-365.04 354.86,-352.42 346.78,-341.31"/>
<polygon fill="black" stroke="black" points="349.65,-339.29 340.93,-333.27 343.99,-343.41 349.65,-339.29"/>
</g>
<!-- 50 -->
<g id="node22" class="node">
<title>50</title>
<ellipse fill="black" stroke="black" cx="465.65" cy="-314" rx="21.6" ry="21.6"/>
<text xml:space="preserve" text-anchor="middle" x="465.65" y="-303.57" font-family="Helvetica,sans-Serif" font-size="24.00" fill="white">50</text>
</g>
<!-- 30&#45;&gt;50 -->
<g id="edge10" class="edge">
<title>30&#45;&gt;50</title>
<path fill="none" stroke="black" d="M399.07,-377.52C411.21,-366.12 428.34,-350.04 442.18,-337.04"/>
<polygon fill="black" stroke="black" points="444.3,-339.85 449.19,-330.45 439.51,-334.75 444.3,-339.85"/>
</g>
<!-- 0 -->
<g id="node20" class="node">
<title>0</title>
<ellipse fill="black" stroke="black" cx="170.65" cy="-235" rx="21.6" ry="21.6"/>
<text xml:space="preserve" text-anchor="middle" x="170.65" y="-224.57" font-family="Helvetica,sans-Serif" font-size="24.00" fill="white">0</text>
</g>
<!-- 12&#45;&gt;0 -->
<g id="edge2" class="edge">
<title>12&#45;&gt;0</title>
<path fill="none" stroke="black" d="M308.4,-303.56C281.33,-290.28 231.78,-265.98 200.07,-250.43"/>
<polygon fill="black" stroke="black" points="201.94,-247.45 191.42,-246.19 198.85,-253.73 201.94,-247.45"/>
</g>
<!-- 18 -->
<g id="node21" class="node">
<title>18</title>
<ellipse fill="black" stroke="black" cx="327.65" cy="-235" rx="21.6" ry="21.6"/>
<text xml:space="preserve" text-anchor="middle" x="327.65" y="-224.57" font-family="Helvetica,sans-Serif" font-size="24.00" fill="white">18</text>
</g>
<!-- 12&#45;&gt;18 -->
<g id="edge7" class="edge">
<title>12&#45;&gt;18</title>
<path fill="none" stroke="black" d="M327.65,-291.96C327.65,-284.66 327.65,-276.3 327.65,-268.3"/>
<polygon fill="black" stroke="black" points="331.15,-268.53 327.65,-258.53 324.15,-268.53 331.15,-268.53"/>
</g>
<!-- 0&#45;&gt;1 -->
<g id="edge4" class="edge">
<title>0&#45;&gt;1</title>
<path fill="none" stroke="black" d="M153.97,-221.29C138.13,-209.21 114.07,-190.87 95.7,-176.86"/>
<polygon fill="black" stroke="black" points="97.97,-174.19 87.89,-170.91 93.72,-179.76 97.97,-174.19"/>
</g>
<!-- 0&#45;&gt;nil0 -->
<g id="edge3" class="edge">
<title>0&#45;&gt;nil0</title>
<path fill="none" stroke="black" d="M170.65,-212.96C170.65,-201.69 170.65,-187.9 170.65,-176.82"/>
<polygon fill="black" stroke="black" points="174.15,-176.9 170.65,-166.9 167.15,-176.9 174.15,-176.9"/>
</g>
<!-- 18&#45;&gt;nil3 -->
<g id="edge8" class="edge">
<title>18&#45;&gt;nil3</title>
<path fill="none" stroke="black" d="M313.69,-218.42C302.04,-205.42 285.49,-186.95 273.58,-173.66"/>
<polygon fill="black" stroke="black" points="276.48,-171.66 267.2,-166.55 271.27,-176.33 276.48,-171.66"/>
</g>
<!-- 18&#45;&gt;nil4 -->
<g id="edge9" class="edge">
<title>18&#45;&gt;nil4</title>
<path fill="none" stroke="black" d="M332.64,-213.77C335.52,-202.12 339.11,-187.57 341.93,-176.11"/>
<polygon fill="black" stroke="black" points="345.27,-177.2 344.27,-166.65 338.47,-175.52 345.27,-177.2"/>
</g>
<!-- 50&#45;&gt;36 -->
<g id="edge11" class="edge">
<title>50&#45;&gt;36</title>
<path fill="none" stroke="black" d="M465.65,-291.96C465.65,-284.66 465.65,-276.3 465.65,-268.3"/>
<polygon fill="black" stroke="black" points="469.15,-268.53 465.65,-258.53 462.15,-268.53 469.15,-268.53"/>
</g>
<!-- 51 -->
<g id="node25" class="node">
<title>51</title>
<ellipse fill="black" stroke="black" cx="736.65" cy="-235" rx="21.6" ry="21.6"/>
<text xml:space="preserve" text-anchor="middle" x="736.65" y="-224.57" font-family="Helvetica,sans-Serif" font-size="24.00" fill="white">51</text>
</g>
<!-- 50&#45;&gt;51 -->
<g id="edge20" class="edge">
<title>50&#45;&gt;51</title>
<path fill="none" stroke="black" d="M486.47,-307.09C533.56,-293.7 648.55,-261.03 704.72,-245.07"/>
<polygon fill="black" stroke="black" points="705.65,-248.45 714.31,-242.35 703.73,-241.71 705.65,-248.45"/>
</g>
<!-- 33&#45;&gt;nil5 -->
<g id="edge13" class="edge">
<title>33&#45;&gt;nil5</title>
<path fill="none" stroke="black" d="M431.92,-141.23C416.71,-127.93 393.69,-107.78 377.73,-93.82"/>
<polygon fill="black" stroke="black" points="380.24,-91.36 370.41,-87.41 375.63,-96.63 380.24,-91.36"/>
</g>
<!-- 33&#45;&gt;nil6 -->
<g id="edge14" class="edge">
<title>33&#45;&gt;nil6</title>
<path fill="none" stroke="black" d="M447.65,-133.96C447.65,-122.69 447.65,-108.9 447.65,-97.82"/>
<polygon fill="black" stroke="black" points="451.15,-97.9 447.65,-87.9 444.15,-97.9 451.15,-97.9"/>
</g>
<!-- 41&#45;&gt;42 -->
<g id="edge17" class="edge">
<title>41&#45;&gt;42</title>
<path fill="none" stroke="black" d="M557.9,-134.37C556.53,-126.86 554.96,-118.18 553.45,-109.92"/>
<polygon fill="black" stroke="black" points="556.92,-109.39 551.68,-100.18 550.03,-110.65 556.92,-109.39"/>
</g>
<!-- 41&#45;&gt;nil7 -->
<g id="edge16" class="edge">
<title>41&#45;&gt;nil7</title>
<path fill="none" stroke="black" d="M577.61,-140.88C592.7,-127.52 615.3,-107.52 630.94,-93.67"/>
<polygon fill="black" stroke="black" points="632.93,-96.58 638.1,-87.33 628.29,-91.34 632.93,-96.58"/>
</g>
<!-- 51&#45;&gt;58 -->
<g id="edge22" class="edge">
<title>51&#45;&gt;58</title>
<path fill="none" stroke="black" d="M736.65,-212.96C736.65,-205.66 736.65,-197.3 736.65,-189.3"/>
<polygon fill="black" stroke="black" points="740.15,-189.53 736.65,-179.53 733.15,-189.53 740.15,-189.53"/>
</g>
<!-- 51&#45;&gt;nil10 -->
<g id="edge21" class="edge">
<title>51&#45;&gt;nil10</title>
<path fill="none" stroke="black" d="M753.33,-221.29C770.98,-207.83 798.84,-186.59 817.66,-172.24"/>
<polygon fill="black" stroke="black" points="819.54,-175.21 825.37,-166.36 815.3,-169.64 819.54,-175.21"/>
</g>
</g>
</svg>
