<?xml version="1.0" encoding="UTF-8" standalone="no"?>
<!DOCTYPE svg PUBLIC "-//W3C//DTD SVG 1.1//EN"
 "http://www.w3.org/Graphics/SVG/1.1/DTD/svg11.dtd">
<!-- Generated by graphviz version 14.1.1 (20251213.1925)
 -->
<!-- Title: G Pages: 1 -->
<svg width="708pt" height="344pt"
 viewBox="0.00 0.00 708.00 344.00" xmlns="http://www.w3.org/2000/svg" xmlns:xlink="http://www.w3.org/1999/xlink">
<g id="graph0" class="graph" transform="scale(1 1) rotate(0) translate(4 339.8)">
<title>G</title>
<polygon fill="white" stroke="none" points="-4,4 -4,-339.8 703.58,-339.8 703.58,4 -4,4"/>
<!-- n0 -->
<g id="node1" class="node">
<title>n0</title>
<ellipse fill="black" stroke="black" cx="339.84" cy="-314" rx="21.6" ry="21.6"/>
<text xml:space="preserve" text-anchor="middle" x="339.84" y="-303.57" font-family="Helvetica,sans-Serif" font-size="24.00" fill="white">83</text>
</g>
<!-- n1 -->
<g id="node2" class="node">
<title>n1</title>
<ellipse fill="red" stroke="black" cx="282.84" cy="-235" rx="21.6" ry="21.6"/>
<text xml:space="preserve" text-anchor="middle" x="282.84" y="-224.57" font-family="Helvetica,sans-Serif" font-size="24.00" fill="white">39</text>
</g>
<!-- n0&#45;&gt;n1 -->
<g id="edge9" class="edge">
<title>n0&#45;&gt;n1</title>
<path fill="none" stroke="black" d="M327.19,-295.91C319.81,-285.94 310.35,-273.17 302.06,-261.97"/>
<polygon fill="black" stroke="black" points="305.11,-260.21 296.35,-254.26 299.49,-264.38 305.11,-260.21"/>
</g>
<!-- n5 -->
<g id="node11" class="node">
<title>n5</title>
<ellipse fill="red" stroke="black" cx="427.84" cy="-235" rx="21.6" ry="21.6"/>
<text xml:space="preserve" text-anchor="middle" x="427.84" y="-224.57" font-family="Helvetica,sans-Serif" font-size="24.00" fill="white">87</text>
</g>
<!-- n0&#45;&gt;n5 -->
<g id="edge16" class="edge">
<title>n0&#45;&gt;n5</title>
<path fill="none" stroke="black" d="M355.57,-299.23C368.88,-287.59 388.16,-270.71 403.47,-257.32"/>
<polygon fill="black" stroke="black" points="405.58,-260.12 410.8,-250.9 400.97,-254.85 405.58,-260.12"/>
</g>
<!-- n2 -->
<g id="node3" class="node">
<title>n2</title>
<ellipse fill="black" stroke="black" cx="115.84" cy="-156" rx="21.6" ry="21.6"/>
<text xml:space="preserve" text-anchor="middle" x="115.84" y="-145.57" font-family="Helvetica,sans-Serif" font-size="24.00" fill="white">3</text>
</g>
<!-- n1&#45;&gt;n2 -->
<g id="edge3" class="edge">
<title>n1&#45;&gt;n2</title>
<path fill="none" stroke="black" d="M263.35,-225.02C234.39,-211.66 179.76,-186.47 145.72,-170.78"/>
<polygon fill="black" stroke="black" points="147.37,-167.69 136.83,-166.68 144.44,-174.04 147.37,-167.69"/>
</g>
<!-- n3 -->
<g id="node6" class="node">
<title>n3</title>
<ellipse fill="black" stroke="black" cx="282.84" cy="-156" rx="21.6" ry="21.6"/>
<text xml:space="preserve" text-anchor="middle" x="282.84" y="-145.57" font-family="Helvetica,sans-Serif" font-size="24.00" fill="white">40</text>
</g>
<!-- n1&#45;&gt;n3 -->
<g id="edge8" class="edge">
<title>n1&#45;&gt;n3</title>
<path fill="none" stroke="black" d="M282.84,-212.96C282.84,-205.66 282.84,-197.3 282.84,-189.3"/>
<polygon fill="black" stroke="black" points="286.34,-189.53 282.84,-179.53 279.34,-189.53 286.34,-189.53"/>
</g>
<!-- nil0 -->
<g id="node4" class="node">
<title>nil0</title>
<polygon fill="black" stroke="black" points="12.44,-68 12.44,-86 41.24,-86 41.24,-68 12.44,-68"/>
<text xml:space="preserve" text-anchor="middle" x="27.31" y="-70.05" font-family="Helvetica,sans-Serif" font-size="16.00" fill="white">NIL</text>
</g>
<!-- n2&#45;&gt;nil0 -->
<g id="edge1" class="edge">
<title>n2&#45;&gt;nil0</title>
<path fill="none" stroke="black" d="M99.92,-141.23C84.54,-127.93 61.26,-107.78 45.12,-93.82"/>
<polygon fill="black" stroke="black" points="47.56,-91.3 37.71,-87.4 42.98,-96.59 47.56,-91.3"/>
</g>
<!-- nil1 -->
<g id="node5" class="node">
<title>nil1</title>
<polygon fill="black" stroke="black" points="101.44,-68 101.44,-86 130.24,-86 130.24,-68 101.44,-68"/>
<text xml:space="preserve" text-anchor="middle" x="116.31" y="-70.05" font-family="Helvetica,sans-Serif" font-size="16.00" fill="white">NIL</text>
</g>
<!-- n2&#45;&gt;nil1 -->
<g id="edge2" class="edge">
<title>n2&#45;&gt;nil1</title>
<path fill="none" stroke="black" d="M115.84,-133.96C115.84,-122.69 115.84,-108.9 115.84,-97.82"/>
<polygon fill="black" stroke="black" points="119.34,-97.9 115.84,-87.9 112.34,-97.9 119.34,-97.9"/>
</g>
<!-- nil2 -->
<g id="node7" class="node">
<title>nil2</title>
<polygon fill="black" stroke="black" points="189.44,-68 189.44,-86 218.24,-86 218.24,-68 189.44,-68"/>
<text xml:space="preserve" text-anchor="middle" x="204.31" y="-70.05" font-family="Helvetica,sans-Serif" font-size="16.00" fill="white">NIL</text>
</g>
<!-- n3&#45;&gt;nil2 -->
<g id="edge4" class="edge">
<title>n3&#45;&gt;nil2</title>
<path fill="none" stroke="black" d="M267.6,-140.15C254.07,-126.96 234.33,-107.72 220.4,-94.15"/>
<polygon fill="black" stroke="black" points="222.9,-91.7 213.3,-87.22 218.02,-96.71 222.9,-91.7"/>
</g>
<!-- n4 -->
<g id="node8" class="node">
<title>n4</title>
<ellipse fill="red" stroke="black" cx="305.84" cy="-77" rx="21.6" ry="21.6"/>
<text xml:space="preserve" text-anchor="middle" x="305.84" y="-66.58" font-family="Helvetica,sans-Serif" font-size="24.00" fill="white">52</text>
</g>
<!-- n3&#45;&gt;n4 -->
<g id="edge7" class="edge">
<title>n3&#45;&gt;n4</title>
<path fill="none" stroke="black" d="M288.88,-134.77C291.23,-126.9 293.98,-117.7 296.57,-109.03"/>
<polygon fill="black" stroke="black" points="299.89,-110.13 299.4,-99.55 293.18,-108.13 299.89,-110.13"/>
</g>
<!-- nil3 -->
<g id="node9" class="node">
<title>nil3</title>
<polygon fill="black" stroke="black" points="246.44,-1 246.44,-19 275.24,-19 275.24,-1 246.44,-1"/>
<text xml:space="preserve" text-anchor="middle" x="261.31" y="-3.05" font-family="Helvetica,sans-Serif" font-size="16.00" fill="white">NIL</text>
</g>
<!-- n4&#45;&gt;nil3 -->
<g id="edge5" class="edge">
<title>n4&#45;&gt;nil3</title>
<path fill="none" stroke="black" d="M293.78,-58.58C287.35,-49.29 279.45,-37.89 273,-28.58"/>
<polygon fill="black" stroke="black" points="275.93,-26.65 267.36,-20.42 270.17,-30.63 275.93,-26.65"/>
</g>
<!-- nil4 -->
<g id="node10" class="node">
<title>nil4</title>
<polygon fill="black" stroke="black" points="334.44,-1 334.44,-19 363.24,-19 363.24,-1 334.44,-1"/>
<text xml:space="preserve" text-anchor="middle" x="349.31" y="-3.05" font-family="Helvetica,sans-Serif" font-size="16.00" fill="white">NIL</text>
</g>
<!-- n4&#45;&gt;nil4 -->
<g id="edge6" class="edge">
<title>n4&#45;&gt;nil4</title>
<path fill="none" stroke="black" d="M317.36,-58.58C323.5,-49.29 331.05,-37.89 337.21,-28.58"/>
<polygon fill="black" stroke="black" points="340,-30.71 342.59,-20.43 334.16,-26.84 340,-30.71"/>
</g>
<!-- n6 -->
<g id="node12" class="node">
<title>n6</title>
<ellipse fill="black" stroke="black" cx="427.84" cy="-156" rx="21.6" ry="21.6"/>
<text xml:space="preserve" text-anchor="middle" x="427.84" y="-145.57" font-family="Helvetica,sans-Serif" font-size="24.00" fill="white">83</text>
</g>
<!-- n5&#45;&gt;n6 -->
<g id="edge12" class="edge">
<title>n5&#45;&gt;n6</title>
<path fill="none" stroke="black" d="M427.84,-212.96C427.84,-205.66 427.84,-197.3 427.84,-189.3"/>
<polygon fill="black" stroke="black" points="431.34,-189.53 427.84,-179.53 424.34,-189.53 431.34,-189.53"/>
</g>
<!-- n7 -->
<g id="node15" class="node">
<title>n7</title>
<ellipse fill="black" stroke="black" cx="583.84" cy="-156" rx="21.6" ry="21.6"/>
<text xml:space="preserve" text-anchor="middle" x="583.84" y="-145.57" font-family="Helvetica,sans-Serif" font-size="24.00" fill="white">91</text>
</g>
<!-- n5&#45;&gt;n7 -->
<g id="edge15" class="edge">
<title>n5&#45;&gt;n7</title>
<path fill="none" stroke="black" d="M446.96,-224.56C473.86,-211.28 523.1,-186.98 554.6,-171.43"/>
<polygon fill="black" stroke="black" points="555.78,-174.75 563.19,-167.19 552.68,-168.48 555.78,-174.75"/>
</g>
<!-- nil5 -->
<g id="node13" class="node">
<title>nil5</title>
<polygon fill="black" stroke="black" points="392.44,-68 392.44,-86 421.24,-86 421.24,-68 392.44,-68"/>
<text xml:space="preserve" text-anchor="middle" x="407.31" y="-70.05" font-family="Helvetica,sans-Serif" font-size="16.00" fill="white">NIL</text>
</g>
<!-- n6&#45;&gt;nil5 -->
<g id="edge10" class="edge">
<title>n6&#45;&gt;nil5</title>
<path fill="none" stroke="black" d="M422.32,-134.77C419.14,-123.12 415.17,-108.57 412.05,-97.11"/>
<polygon fill="black" stroke="black" points="415.47,-96.37 409.47,-87.64 408.72,-98.21 415.47,-96.37"/>
</g>
<!-- nil6 -->
<g id="node14" class="node">
<title>nil6</title>
<polygon fill="black" stroke="black" points="481.44,-68 481.44,-86 510.24,-86 510.24,-68 481.44,-68"/>
<text xml:space="preserve" text-anchor="middle" x="496.31" y="-70.05" font-family="Helvetica,sans-Serif" font-size="16.00" fill="white">NIL</text>
</g>
<!-- n6&#45;&gt;nil6 -->
<g id="edge11" class="edge">
<title>n6&#45;&gt;nil6</title>
<path fill="none" stroke="black" d="M441.93,-139.05C453.32,-126.14 469.32,-108.02 480.93,-94.88"/>
<polygon fill="black" stroke="black" points="483.48,-97.28 487.47,-87.47 478.23,-92.65 483.48,-97.28"/>
</g>
<!-- nil7 -->
<g id="node16" class="node">
<title>nil7</title>
<polygon fill="black" stroke="black" points="569.44,-68 569.44,-86 598.24,-86 598.24,-68 569.44,-68"/>
<text xml:space="preserve" text-anchor="middle" x="584.31" y="-70.05" font-family="Helvetica,sans-Serif" font-size="16.00" fill="white">NIL</text>
</g>
<!-- n7&#45;&gt;nil7 -->
<g id="edge13" class="edge">
<title>n7&#45;&gt;nil7</title>
<path fill="none" stroke="black" d="M583.84,-133.96C583.84,-122.69 583.84,-108.9 583.84,-97.82"/>
<polygon fill="black" stroke="black" points="587.34,-97.9 583.84,-87.9 580.34,-97.9 587.34,-97.9"/>
</g>
<!-- nil8 -->
<g id="node17" class="node">
<title>nil8</title>
<polygon fill="black" stroke="black" points="658.44,-68 658.44,-86 687.24,-86 687.24,-68 658.44,-68"/>
<text xml:space="preserve" text-anchor="middle" x="673.31" y="-70.05" font-family="Helvetica,sans-Serif" font-size="16.00" fill="white">NIL</text>
</g>
<!-- n7&#45;&gt;nil8 -->
<g id="edge14" class="edge">
<title>n7&#45;&gt;nil8</title>
<path fill="none" stroke="black" d="M599.75,-141.23C615.13,-127.93 638.41,-107.78 654.55,-93.82"/>
<polygon fill="black" stroke="black" points="656.69,-96.59 661.97,-87.4 652.11,-91.3 656.69,-96.59"/>
</g>
</g>
</svg>
