<?xml version="1.0" encoding="UTF-8" standalone="no"?>
<!DOCTYPE svg PUBLIC "-//W3C//DTD SVG 1.1//EN"
 "http://www.w3.org/Graphics/SVG/1.1/DTD/svg11.dtd">
<!-- Generated by graphviz version 14.1.1 (20251213.1925)
 -->
<!-- Title: G Pages: 1 -->
<svg width="873pt" height="423pt"
 viewBox="0.00 0.00 873.00 423.00" xmlns="http://www.w3.org/2000/svg" xmlns:xlink="http://www.w3.org/1999/xlink">
<g id="graph0" class="graph" transform="scale(1 1) rotate(0) translate(4 419)">
<title>G</title>
<polygon fill="white" stroke="none" points="-4,4 -4,-419 868.58,-419 868.58,4 -4,4"/>
<!-- n0 -->
<g id="node1" class="node">
<title>n0</title>
<ellipse fill="black" stroke="black" cx="518.83" cy="-393" rx="21.6" ry="21.6"/>
<text xml:space="preserve" text-anchor="middle" x="518.83" y="-382.57" font-family="Helvetica,sans-Serif" font-size="24.00" fill="white">83</text>
</g>
<!-- n1 -->
<g id="node2" class="node">
<title>n1</title>
<ellipse fill="black" stroke="black" cx="427.83" cy="-314" rx="21.6" ry="21.6"/>
<text xml:space="preserve" text-anchor="middle" x="427.83" y="-303.57" font-family="Helvetica,sans-Serif" font-size="24.00" fill="white">40</text>
</g>
<!-- n0&#45;&gt;n1 -->
<g id="edge17" class="edge">
<title>n0&#45;&gt;n1</title>
<path fill="none" stroke="black" d="M502.56,-378.23C488.72,-366.52 468.61,-349.5 452.74,-336.07"/>
<polygon fill="black" stroke="black" points="455.01,-333.41 445.12,-329.62 450.49,-338.76 455.01,-333.41"/>
</g>
<!-- n9 -->
<g id="node19" class="node">
<title>n9</title>
<ellipse fill="black" stroke="black" cx="593.83" cy="-314" rx="21.6" ry="21.6"/>
<text xml:space="preserve" text-anchor="middle" x="593.83" y="-303.57" font-family="Helvetica,sans-Serif" font-size="24.00" fill="white">87</text>
</g>
<!-- n0&#45;&gt;n9 -->
<g id="edge26" class="edge">
<title>n0&#45;&gt;n9</title>
<path fill="none" stroke="black" d="M533.65,-376.79C544.33,-365.82 558.95,-350.81 571.1,-338.33"/>
<polygon fill="black" stroke="black" points="573.52,-340.87 577.99,-331.27 568.51,-335.99 573.52,-340.87"/>
</g>
<!-- n2 -->
<g id="node3" class="node">
<title>n2</title>
<ellipse fill="red" stroke="black" cx="221.83" cy="-235" rx="21.6" ry="21.6"/>
<text xml:space="preserve" text-anchor="middle" x="221.83" y="-224.57" font-family="Helvetica,sans-Serif" font-size="24.00" fill="white">39</text>
</g>
<!-- n1&#45;&gt;n2 -->
<g id="edge7" class="edge">
<title>n1&#45;&gt;n2</title>
<path fill="none" stroke="black" d="M407.71,-305.48C371.55,-291.96 295.42,-263.5 252.65,-247.52"/>
<polygon fill="black" stroke="black" points="254.05,-244.31 243.46,-244.08 251.6,-250.86 254.05,-244.31"/>
</g>
<!-- n5 -->
<g id="node10" class="node">
<title>n5</title>
<ellipse fill="red" stroke="black" cx="427.83" cy="-235" rx="21.6" ry="21.6"/>
<text xml:space="preserve" text-anchor="middle" x="427.83" y="-224.57" font-family="Helvetica,sans-Serif" font-size="24.00" fill="white">52</text>
</g>
<!-- n1&#45;&gt;n5 -->
<g id="edge16" class="edge">
<title>n1&#45;&gt;n5</title>
<path fill="none" stroke="black" d="M427.83,-291.96C427.83,-284.66 427.83,-276.3 427.83,-268.3"/>
<polygon fill="black" stroke="black" points="431.33,-268.53 427.83,-258.53 424.33,-268.53 431.33,-268.53"/>
</g>
<!-- n3 -->
<g id="node4" class="node">
<title>n3</title>
<ellipse fill="black" stroke="black" cx="97.83" cy="-156" rx="21.6" ry="21.6"/>
<text xml:space="preserve" text-anchor="middle" x="97.83" y="-145.57" font-family="Helvetica,sans-Serif" font-size="24.00" fill="white">3</text>
</g>
<!-- n2&#45;&gt;n3 -->
<g id="edge3" class="edge">
<title>n2&#45;&gt;n3</title>
<path fill="none" stroke="black" d="M203.54,-222.64C182.9,-209.83 149.14,-188.86 125.33,-174.07"/>
<polygon fill="black" stroke="black" points="127.43,-171.26 117.09,-168.96 123.74,-177.21 127.43,-171.26"/>
</g>
<!-- n4 -->
<g id="node7" class="node">
<title>n4</title>
<ellipse fill="black" stroke="black" cx="221.83" cy="-156" rx="21.6" ry="21.6"/>
<text xml:space="preserve" text-anchor="middle" x="221.83" y="-145.57" font-family="Helvetica,sans-Serif" font-size="24.00" fill="white">39</text>
</g>
<!-- n2&#45;&gt;n4 -->
<g id="edge6" class="edge">
<title>n2&#45;&gt;n4</title>
<path fill="none" stroke="black" d="M221.83,-212.96C221.83,-205.66 221.83,-197.3 221.83,-189.3"/>
<polygon fill="black" stroke="black" points="225.33,-189.53 221.83,-179.53 218.33,-189.53 225.33,-189.53"/>
</g>
<!-- nil0 -->
<g id="node5" class="node">
<title>nil0</title>
<polygon fill="black" stroke="black" points="8.43,-68 8.43,-86 37.23,-86 37.23,-68 8.43,-68"/>
<text xml:space="preserve" text-anchor="middle" x="23.31" y="-70.05" font-family="Helvetica,sans-Serif" font-size="16.00" fill="white">NIL</text>
</g>
<!-- n3&#45;&gt;nil0 -->
<g id="edge1" class="edge">
<title>n3&#45;&gt;nil0</title>
<path fill="none" stroke="black" d="M83.02,-139.79C70.13,-126.56 51.52,-107.45 38.41,-93.99"/>
<polygon fill="black" stroke="black" points="41.25,-91.89 31.76,-87.17 36.24,-96.78 41.25,-91.89"/>
</g>
<!-- nil1 -->
<g id="node6" class="node">
<title>nil1</title>
<polygon fill="black" stroke="black" points="83.43,-68 83.43,-86 112.23,-86 112.23,-68 83.43,-68"/>
<text xml:space="preserve" text-anchor="middle" x="98.31" y="-70.05" font-family="Helvetica,sans-Serif" font-size="16.00" fill="white">NIL</text>
</g>
<!-- n3&#45;&gt;nil1 -->
<g id="edge2" class="edge">
<title>n3&#45;&gt;nil1</title>
<path fill="none" stroke="black" d="M97.83,-133.96C97.83,-122.69 97.83,-108.9 97.83,-97.82"/>
<polygon fill="black" stroke="black" points="101.33,-97.9 97.83,-87.9 94.33,-97.9 101.33,-97.9"/>
</g>
<!-- nil2 -->
<g id="node8" class="node">
<title>nil2</title>
<polygon fill="black" stroke="black" points="158.43,-68 158.43,-86 187.23,-86 187.23,-68 158.43,-68"/>
<text xml:space="preserve" text-anchor="middle" x="173.31" y="-70.05" font-family="Helvetica,sans-Serif" font-size="16.00" fill="white">NIL</text>
</g>
<!-- n4&#45;&gt;nil2 -->
<g id="edge4" class="edge">
<title>n4&#45;&gt;nil2</title>
<path fill="none" stroke="black" d="M210.47,-137.14C202.6,-124.77 192.16,-108.36 184.27,-95.97"/>
<polygon fill="black" stroke="black" points="187.26,-94.15 178.94,-87.59 181.35,-97.91 187.26,-94.15"/>
</g>
<!-- nil3 -->
<g id="node9" class="node">
<title>nil3</title>
<polygon fill="black" stroke="black" points="232.43,-68 232.43,-86 261.23,-86 261.23,-68 232.43,-68"/>
<text xml:space="preserve" text-anchor="middle" x="247.31" y="-70.05" font-family="Helvetica,sans-Serif" font-size="16.00" fill="white">NIL</text>
</g>
<!-- n4&#45;&gt;nil3 -->
<g id="edge5" class="edge">
<title>n4&#45;&gt;nil3</title>
<path fill="none" stroke="black" d="M228.27,-135.17C232.09,-123.4 236.91,-108.55 240.68,-96.94"/>
<polygon fill="black" stroke="black" points="243.92,-98.3 243.68,-87.71 237.26,-96.14 243.92,-98.3"/>
</g>
<!-- n6 -->
<g id="node11" class="node">
<title>n6</title>
<ellipse fill="black" stroke="black" cx="385.83" cy="-156" rx="21.6" ry="21.6"/>
<text xml:space="preserve" text-anchor="middle" x="385.83" y="-145.57" font-family="Helvetica,sans-Serif" font-size="24.00" fill="white">49</text>
</g>
<!-- n5&#45;&gt;n6 -->
<g id="edge10" class="edge">
<title>n5&#45;&gt;n6</title>
<path fill="none" stroke="black" d="M417.88,-215.75C412.95,-206.71 406.88,-195.58 401.35,-185.45"/>
<polygon fill="black" stroke="black" points="404.45,-183.82 396.59,-176.71 398.3,-187.17 404.45,-183.82"/>
</g>
<!-- n7 -->
<g id="node14" class="node">
<title>n7</title>
<ellipse fill="black" stroke="black" cx="482.83" cy="-156" rx="21.6" ry="21.6"/>
<text xml:space="preserve" text-anchor="middle" x="482.83" y="-145.57" font-family="Helvetica,sans-Serif" font-size="24.00" fill="white">63</text>
</g>
<!-- n5&#45;&gt;n7 -->
<g id="edge15" class="edge">
<title>n5&#45;&gt;n7</title>
<path fill="none" stroke="black" d="M440.04,-216.91C447.04,-207.11 455.98,-194.6 463.88,-183.54"/>
<polygon fill="black" stroke="black" points="466.63,-185.71 469.59,-175.54 460.93,-181.64 466.63,-185.71"/>
</g>
<!-- nil4 -->
<g id="node12" class="node">
<title>nil4</title>
<polygon fill="black" stroke="black" points="307.43,-68 307.43,-86 336.23,-86 336.23,-68 307.43,-68"/>
<text xml:space="preserve" text-anchor="middle" x="322.31" y="-70.05" font-family="Helvetica,sans-Serif" font-size="16.00" fill="white">NIL</text>
</g>
<!-- n6&#45;&gt;nil4 -->
<g id="edge8" class="edge">
<title>n6&#45;&gt;nil4</title>
<path fill="none" stroke="black" d="M372.26,-138.67C361.62,-125.87 346.85,-108.1 336.04,-95.1"/>
<polygon fill="black" stroke="black" points="338.74,-92.87 329.66,-87.41 333.36,-97.34 338.74,-92.87"/>
</g>
<!-- nil5 -->
<g id="node13" class="node">
<title>nil5</title>
<polygon fill="black" stroke="black" points="382.43,-68 382.43,-86 411.23,-86 411.23,-68 382.43,-68"/>
<text xml:space="preserve" text-anchor="middle" x="397.31" y="-70.05" font-family="Helvetica,sans-Serif" font-size="16.00" fill="white">NIL</text>
</g>
<!-- n6&#45;&gt;nil5 -->
<g id="edge9" class="edge">
<title>n6&#45;&gt;nil5</title>
<path fill="none" stroke="black" d="M388.78,-134.37C390.41,-122.97 392.42,-108.9 394.02,-97.66"/>
<polygon fill="black" stroke="black" points="397.46,-98.37 395.41,-87.98 390.53,-97.38 397.46,-98.37"/>
</g>
<!-- n8 -->
<g id="node15" class="node">
<title>n8</title>
<ellipse fill="red" stroke="black" cx="482.83" cy="-77" rx="21.6" ry="21.6"/>
<text xml:space="preserve" text-anchor="middle" x="482.83" y="-66.58" font-family="Helvetica,sans-Serif" font-size="24.00" fill="white">56</text>
</g>
<!-- n7&#45;&gt;n8 -->
<g id="edge13" class="edge">
<title>n7&#45;&gt;n8</title>
<path fill="none" stroke="black" d="M482.83,-133.96C482.83,-126.66 482.83,-118.3 482.83,-110.3"/>
<polygon fill="black" stroke="black" points="486.33,-110.53 482.83,-100.53 479.33,-110.53 486.33,-110.53"/>
</g>
<!-- nil8 -->
<g id="node18" class="node">
<title>nil8</title>
<polygon fill="black" stroke="black" points="553.43,-68 553.43,-86 582.23,-86 582.23,-68 553.43,-68"/>
<text xml:space="preserve" text-anchor="middle" x="568.31" y="-70.05" font-family="Helvetica,sans-Serif" font-size="16.00" fill="white">NIL</text>
</g>
<!-- n7&#45;&gt;nil8 -->
<g id="edge14" class="edge">
<title>n7&#45;&gt;nil8</title>
<path fill="none" stroke="black" d="M498.42,-140.88C513.17,-127.52 535.25,-107.52 550.53,-93.67"/>
<polygon fill="black" stroke="black" points="552.45,-96.66 557.51,-87.35 547.75,-91.47 552.45,-96.66"/>
</g>
<!-- nil6 -->
<g id="node16" class="node">
<title>nil6</title>
<polygon fill="black" stroke="black" points="429.43,-1 429.43,-19 458.23,-19 458.23,-1 429.43,-1"/>
<text xml:space="preserve" text-anchor="middle" x="444.31" y="-3.05" font-family="Helvetica,sans-Serif" font-size="16.00" fill="white">NIL</text>
</g>
<!-- n8&#45;&gt;nil6 -->
<g id="edge11" class="edge">
<title>n8&#45;&gt;nil6</title>
<path fill="none" stroke="black" d="M471.97,-57.89C466.59,-48.92 460.1,-38.11 454.71,-29.14"/>
<polygon fill="black" stroke="black" points="457.76,-27.41 449.62,-20.64 451.76,-31.01 457.76,-27.41"/>
</g>
<!-- nil7 -->
<g id="node17" class="node">
<title>nil7</title>
<polygon fill="black" stroke="black" points="504.43,-1 504.43,-19 533.23,-19 533.23,-1 504.43,-1"/>
<text xml:space="preserve" text-anchor="middle" x="519.31" y="-3.05" font-family="Helvetica,sans-Serif" font-size="16.00" fill="white">NIL</text>
</g>
<!-- n8&#45;&gt;nil7 -->
<g id="edge12" class="edge">
<title>n8&#45;&gt;nil7</title>
<path fill="none" stroke="black" d="M493.05,-57.55C497.96,-48.68 503.83,-38.09 508.73,-29.25"/>
<polygon fill="black" stroke="black" points="511.75,-31.02 513.53,-20.57 505.62,-27.62 511.75,-31.02"/>
</g>
<!-- n10 -->
<g id="node20" class="node">
<title>n10</title>
<ellipse fill="black" stroke="black" cx="593.83" cy="-235" rx="21.6" ry="21.6"/>
<text xml:space="preserve" text-anchor="middle" x="593.83" y="-224.57" font-family="Helvetica,sans-Serif" font-size="24.00" fill="white">83</text>
</g>
<!-- n9&#45;&gt;n10 -->
<g id="edge20" class="edge">
<title>n9&#45;&gt;n10</title>
<path fill="none" stroke="black" d="M593.83,-291.96C593.83,-284.66 593.83,-276.3 593.83,-268.3"/>
<polygon fill="black" stroke="black" points="597.33,-268.53 593.83,-258.53 590.33,-268.53 597.33,-268.53"/>
</g>
<!-- n11 -->
<g id="node23" class="node">
<title>n11</title>
<ellipse fill="black" stroke="black" cx="717.83" cy="-235" rx="21.6" ry="21.6"/>
<text xml:space="preserve" text-anchor="middle" x="717.83" y="-224.57" font-family="Helvetica,sans-Serif" font-size="24.00" fill="white">91</text>
</g>
<!-- n9&#45;&gt;n11 -->
<g id="edge25" class="edge">
<title>n9&#45;&gt;n11</title>
<path fill="none" stroke="black" d="M612.13,-301.64C632.76,-288.83 666.53,-267.86 690.34,-253.07"/>
<polygon fill="black" stroke="black" points="691.93,-256.21 698.58,-247.96 688.24,-250.26 691.93,-256.21"/>
</g>
<!-- nil9 -->
<g id="node21" class="node">
<title>nil9</title>
<polygon fill="black" stroke="black" points="553.43,-147 553.43,-165 582.23,-165 582.23,-147 553.43,-147"/>
<text xml:space="preserve" text-anchor="middle" x="568.31" y="-149.05" font-family="Helvetica,sans-Serif" font-size="16.00" fill="white">NIL</text>
</g>
<!-- n10&#45;&gt;nil9 -->
<g id="edge18" class="edge">
<title>n10&#45;&gt;nil9</title>
<path fill="none" stroke="black" d="M587.14,-214.17C583.16,-202.4 578.15,-187.55 574.23,-175.94"/>
<polygon fill="black" stroke="black" points="577.63,-175.06 571.11,-166.7 570.99,-177.3 577.63,-175.06"/>
</g>
<!-- nil10 -->
<g id="node22" class="node">
<title>nil10</title>
<polygon fill="black" stroke="black" points="628.43,-147 628.43,-165 657.23,-165 657.23,-147 628.43,-147"/>
<text xml:space="preserve" text-anchor="middle" x="643.31" y="-149.05" font-family="Helvetica,sans-Serif" font-size="16.00" fill="white">NIL</text>
</g>
<!-- n10&#45;&gt;nil10 -->
<g id="edge19" class="edge">
<title>n10&#45;&gt;nil10</title>
<path fill="none" stroke="black" d="M605.2,-216.14C613.07,-203.77 623.51,-187.36 631.4,-174.97"/>
<polygon fill="black" stroke="black" points="634.31,-176.91 636.73,-166.59 628.41,-173.15 634.31,-176.91"/>
</g>
<!-- nil11 -->
<g id="node24" class="node">
<title>nil11</title>
<polygon fill="black" stroke="black" points="703.43,-147 703.43,-165 732.23,-165 732.23,-147 703.43,-147"/>
<text xml:space="preserve" text-anchor="middle" x="718.31" y="-149.05" font-family="Helvetica,sans-Serif" font-size="16.00" fill="white">NIL</text>
</g>
<!-- n11&#45;&gt;nil11 -->
<g id="edge21" class="edge">
<title>n11&#45;&gt;nil11</title>
<path fill="none" stroke="black" d="M717.83,-212.96C717.83,-201.69 717.83,-187.9 717.83,-176.82"/>
<polygon fill="black" stroke="black" points="721.33,-176.9 717.83,-166.9 714.33,-176.9 721.33,-176.9"/>
</g>
<!-- n12 -->
<g id="node25" class="node">
<title>n12</title>
<ellipse fill="red" stroke="black" cx="803.83" cy="-156" rx="21.6" ry="21.6"/>
<text xml:space="preserve" text-anchor="middle" x="803.83" y="-145.57" font-family="Helvetica,sans-Serif" font-size="24.00" fill="white">94</text>
</g>
<!-- n11&#45;&gt;n12 -->
<g id="edge24" class="edge">
<title>n11&#45;&gt;n12</title>
<path fill="none" stroke="black" d="M733.61,-219.88C746.58,-208.26 765.16,-191.62 779.96,-178.38"/>
<polygon fill="black" stroke="black" points="781.92,-181.32 787.03,-172.04 777.25,-176.11 781.92,-181.32"/>
</g>
<!-- nil12 -->
<g id="node26" class="node">
<title>nil12</title>
<polygon fill="black" stroke="black" points="752.43,-68 752.43,-86 781.23,-86 781.23,-68 752.43,-68"/>
<text xml:space="preserve" text-anchor="middle" x="767.31" y="-70.05" font-family="Helvetica,sans-Serif" font-size="16.00" fill="white">NIL</text>
</g>
<!-- n12&#45;&gt;nil12 -->
<g id="edge22" class="edge">
<title>n12&#45;&gt;nil12</title>
<path fill="none" stroke="black" d="M794.69,-135.97C788.91,-123.95 781.49,-108.5 775.76,-96.58"/>
<polygon fill="black" stroke="black" points="779.03,-95.31 771.55,-87.81 772.73,-98.34 779.03,-95.31"/>
</g>
<!-- nil13 -->
<g id="node27" class="node">
<title>nil13</title>
<polygon fill="black" stroke="black" points="827.43,-68 827.43,-86 856.23,-86 856.23,-68 827.43,-68"/>
<text xml:space="preserve" text-anchor="middle" x="842.31" y="-70.05" font-family="Helvetica,sans-Serif" font-size="16.00" fill="white">NIL</text>
</g>
<!-- n12&#45;&gt;nil13 -->
<g id="edge23" class="edge">
<title>n12&#45;&gt;nil13</title>
<path fill="none" stroke="black" d="M813.03,-136.36C819.02,-124.22 826.81,-108.45 832.77,-96.36"/>
<polygon fill="black" stroke="black" points="835.86,-98.01 837.15,-87.5 829.58,-94.92 835.86,-98.01"/>
</g>
</g>
</svg>
