<?xml version="1.0" encoding="UTF-8" standalone="no"?>
<!DOCTYPE svg PUBLIC "-//W3C//DTD SVG 1.1//EN"
 "http://www.w3.org/Graphics/SVG/1.1/DTD/svg11.dtd">
<!-- Generated by graphviz version 14.1.1 (20251213.1925)
 -->
<!-- Title: G Pages: 1 -->
<svg width="708pt" height="344pt"
 viewBox="0.00 0.00 708.00 344.00" xmlns="http://www.w3.org/2000/svg" xmlns:xlink="http://www.w3.org/1999/xlink">
<g id="graph0" class="graph" transform="scale(1 1) rotate(0) translate(4 339.8)">
<title>G</title>
<polygon fill="white" stroke="none" points="-4,4 -4,-339.8 703.58,-339.8 703.58,4 -4,4"/>
<!-- 12 -->
<g id="node1" class="node">
<title>12</title>
<ellipse fill="red" stroke="black" cx="305.31" cy="-235" rx="21.6" ry="21.6"/>
<text xml:space="preserve" text-anchor="middle" x="305.31" y="-224.57" font-family="Helvetica,sans-Serif" font-size="24.00" fill="white">12</text>
</g>
<!-- 0 -->
<g id="node16" class="node">
<title>0</title>
<ellipse fill="black" stroke="black" cx="159.31" cy="-156" rx="21.6" ry="21.6"/>
<text xml:space="preserve" text-anchor="middle" x="159.31" y="-145.57" font-family="Helvetica,sans-Serif" font-size="24.00" fill="white">0</text>
</g>
<!-- 12&#45;&gt;0 -->
<g id="edge2" class="edge">
<title>12&#45;&gt;0</title>
<path fill="none" stroke="black" d="M286.22,-223.93C261.3,-210.79 217.44,-187.66 188.38,-172.33"/>
<polygon fill="black" stroke="black" points="190.22,-169.34 179.74,-167.77 186.95,-175.54 190.22,-169.34"/>
</g>
<!-- 18 -->
<g id="node17" class="node">
<title>18</title>
<ellipse fill="black" stroke="black" cx="305.31" cy="-156" rx="21.6" ry="21.6"/>
<text xml:space="preserve" text-anchor="middle" x="305.31" y="-145.57" font-family="Helvetica,sans-Serif" font-size="24.00" fill="white">18</text>
</g>
<!-- 12&#45;&gt;18 -->
<g id="edge7" class="edge">
<title>12&#45;&gt;18</title>
<path fill="none" stroke="black" d="M305.31,-212.96C305.31,-205.66 305.31,-197.3 305.31,-189.3"/>
<polygon fill="black" stroke="black" points="308.81,-189.53 305.31,-179.53 301.81,-189.53 308.81,-189.53"/>
</g>
<!-- 1 -->
<g id="node2" class="node">
<title>1</title>
<ellipse fill="red" stroke="black" cx="65.31" cy="-77" rx="21.6" ry="21.6"/>
<text xml:space="preserve" text-anchor="middle" x="65.31" y="-66.58" font-family="Helvetica,sans-Serif" font-size="24.00" fill="white">1</text>
</g>
<!-- nil1 -->
<g id="node6" class="node">
<title>nil1</title>
<polygon fill="black" stroke="black" points="10.91,-1 10.91,-19 39.71,-19 39.71,-1 10.91,-1"/>
<text xml:space="preserve" text-anchor="middle" x="25.79" y="-3.05" font-family="Helvetica,sans-Serif" font-size="16.00" fill="white">NIL</text>
</g>
<!-- 1&#45;&gt;nil1 -->
<g id="edge5" class="edge">
<title>1&#45;&gt;nil1</title>
<path fill="none" stroke="black" d="M54.38,-58.24C48.8,-49.16 42.01,-38.14 36.4,-29.02"/>
<polygon fill="black" stroke="black" points="39.52,-27.4 31.29,-20.72 33.55,-31.07 39.52,-27.4"/>
</g>
<!-- nil2 -->
<g id="node7" class="node">
<title>nil2</title>
<polygon fill="black" stroke="black" points="92.91,-1 92.91,-19 121.71,-19 121.71,-1 92.91,-1"/>
<text xml:space="preserve" text-anchor="middle" x="107.79" y="-3.05" font-family="Helvetica,sans-Serif" font-size="16.00" fill="white">NIL</text>
</g>
<!-- 1&#45;&gt;nil2 -->
<g id="edge6" class="edge">
<title>1&#45;&gt;nil2</title>
<path fill="none" stroke="black" d="M76.79,-58.24C82.65,-49.16 89.78,-38.14 95.67,-29.02"/>
<polygon fill="black" stroke="black" points="98.56,-31 101.04,-20.7 92.68,-27.2 98.56,-31"/>
</g>
<!-- 50 -->
<g id="node3" class="node">
<title>50</title>
<ellipse fill="red" stroke="black" cx="434.31" cy="-235" rx="21.6" ry="21.6"/>
<text xml:space="preserve" text-anchor="middle" x="434.31" y="-224.57" font-family="Helvetica,sans-Serif" font-size="24.00" fill="white">50</text>
</g>
<!-- 33 -->
<g id="node18" class="node">
<title>33</title>
<ellipse fill="black" stroke="black" cx="434.31" cy="-156" rx="21.6" ry="21.6"/>
<text xml:space="preserve" text-anchor="middle" x="434.31" y="-145.57" font-family="Helvetica,sans-Serif" font-size="24.00" fill="white">33</text>
</g>
<!-- 50&#45;&gt;33 -->
<g id="edge11" class="edge">
<title>50&#45;&gt;33</title>
<path fill="none" stroke="black" d="M434.31,-212.96C434.31,-205.66 434.31,-197.3 434.31,-189.3"/>
<polygon fill="black" stroke="black" points="437.81,-189.53 434.31,-179.53 430.81,-189.53 437.81,-189.53"/>
</g>
<!-- 51 -->
<g id="node19" class="node">
<title>51</title>
<ellipse fill="black" stroke="black" cx="592.31" cy="-156" rx="21.6" ry="21.6"/>
<text xml:space="preserve" text-anchor="middle" x="592.31" y="-145.57" font-family="Helvetica,sans-Serif" font-size="24.00" fill="white">51</text>
</g>
<!-- 50&#45;&gt;51 -->
<g id="edge16" class="edge">
<title>50&#45;&gt;51</title>
<path fill="none" stroke="black" d="M453.69,-224.56C481.08,-211.21 531.34,-186.72 563.22,-171.18"/>
<polygon fill="black" stroke="black" points="564.46,-174.47 571.91,-166.94 561.39,-168.18 564.46,-174.47"/>
</g>
<!-- 36 -->
<g id="node4" class="node">
<title>36</title>
<ellipse fill="red" stroke="black" cx="417.31" cy="-77" rx="21.6" ry="21.6"/>
<text xml:space="preserve" text-anchor="middle" x="417.31" y="-66.58" font-family="Helvetica,sans-Serif" font-size="24.00" fill="white">36</text>
</g>
<!-- nil6 -->
<g id="node11" class="node">
<title>nil6</title>
<polygon fill="black" stroke="black" points="360.91,-1 360.91,-19 389.71,-19 389.71,-1 360.91,-1"/>
<text xml:space="preserve" text-anchor="middle" x="375.79" y="-3.05" font-family="Helvetica,sans-Serif" font-size="16.00" fill="white">NIL</text>
</g>
<!-- 36&#45;&gt;nil6 -->
<g id="edge14" class="edge">
<title>36&#45;&gt;nil6</title>
<path fill="none" stroke="black" d="M405.83,-58.24C399.97,-49.16 392.85,-38.14 386.96,-29.02"/>
<polygon fill="black" stroke="black" points="389.95,-27.2 381.58,-20.7 384.07,-31 389.95,-27.2"/>
</g>
<!-- nil7 -->
<g id="node12" class="node">
<title>nil7</title>
<polygon fill="black" stroke="black" points="442.91,-1 442.91,-19 471.71,-19 471.71,-1 442.91,-1"/>
<text xml:space="preserve" text-anchor="middle" x="457.79" y="-3.05" font-family="Helvetica,sans-Serif" font-size="16.00" fill="white">NIL</text>
</g>
<!-- 36&#45;&gt;nil7 -->
<g id="edge15" class="edge">
<title>36&#45;&gt;nil7</title>
<path fill="none" stroke="black" d="M428.24,-58.24C433.83,-49.16 440.61,-38.14 446.22,-29.02"/>
<polygon fill="black" stroke="black" points="449.07,-31.07 451.33,-20.72 443.11,-27.4 449.07,-31.07"/>
</g>
<!-- nil0 -->
<g id="node5" class="node">
<title>nil0</title>
<polygon fill="black" stroke="black" points="144.91,-68 144.91,-86 173.71,-86 173.71,-68 144.91,-68"/>
<text xml:space="preserve" text-anchor="middle" x="159.79" y="-70.05" font-family="Helvetica,sans-Serif" font-size="16.00" fill="white">NIL</text>
</g>
<!-- nil3 -->
<g id="node8" class="node">
<title>nil3</title>
<polygon fill="black" stroke="black" points="226.91,-68 226.91,-86 255.71,-86 255.71,-68 226.91,-68"/>
<text xml:space="preserve" text-anchor="middle" x="241.79" y="-70.05" font-family="Helvetica,sans-Serif" font-size="16.00" fill="white">NIL</text>
</g>
<!-- nil4 -->
<g id="node9" class="node">
<title>nil4</title>
<polygon fill="black" stroke="black" points="307.91,-68 307.91,-86 336.71,-86 336.71,-68 307.91,-68"/>
<text xml:space="preserve" text-anchor="middle" x="322.79" y="-70.05" font-family="Helvetica,sans-Serif" font-size="16.00" fill="white">NIL</text>
</g>
<!-- nil5 -->
<g id="node10" class="node">
<title>nil5</title>
<polygon fill="black" stroke="black" points="496.91,-68 496.91,-86 525.71,-86 525.71,-68 496.91,-68"/>
<text xml:space="preserve" text-anchor="middle" x="511.79" y="-70.05" font-family="Helvetica,sans-Serif" font-size="16.00" fill="white">NIL</text>
</g>
<!-- nil8 -->
<g id="node13" class="node">
<title>nil8</title>
<polygon fill="black" stroke="black" points="577.91,-68 577.91,-86 606.71,-86 606.71,-68 577.91,-68"/>
<text xml:space="preserve" text-anchor="middle" x="592.79" y="-70.05" font-family="Helvetica,sans-Serif" font-size="16.00" fill="white">NIL</text>
</g>
<!-- nil9 -->
<g id="node14" class="node">
<title>nil9</title>
<polygon fill="black" stroke="black" points="659.91,-68 659.91,-86 688.71,-86 688.71,-68 659.91,-68"/>
<text xml:space="preserve" text-anchor="middle" x="674.79" y="-70.05" font-family="Helvetica,sans-Serif" font-size="16.00" fill="white">NIL</text>
</g>
<!-- 30 -->
<g id="node15" class="node">
<title>30</title>
<ellipse fill="black" stroke="black" cx="357.31" cy="-314" rx="21.6" ry="21.6"/>
<text xml:space="preserve" text-anchor="middle" x="357.31" y="-303.57" font-family="Helvetica,sans-Serif" font-size="24.00" fill="white">30</text>
</g>
<!-- 30&#45;&gt;12 -->
<g id="edge1" class="edge">
<title>30&#45;&gt;12</title>
<path fill="none" stroke="black" d="M345.51,-295.53C339,-285.88 330.76,-273.69 323.45,-262.86"/>
<polygon fill="black" stroke="black" points="326.41,-260.99 317.91,-254.66 320.61,-264.9 326.41,-260.99"/>
</g>
<!-- 30&#45;&gt;50 -->
<g id="edge10" class="edge">
<title>30&#45;&gt;50</title>
<path fill="none" stroke="black" d="M372.16,-298.15C383.27,-287.04 398.68,-271.63 411.37,-258.94"/>
<polygon fill="black" stroke="black" points="413.58,-261.68 418.18,-252.13 408.63,-256.73 413.58,-261.68"/>
</g>
<!-- 0&#45;&gt;1 -->
<g id="edge4" class="edge">
<title>0&#45;&gt;1</title>
<path fill="none" stroke="black" d="M142.94,-141.59C128.47,-129.74 107.14,-112.27 90.5,-98.63"/>
<polygon fill="black" stroke="black" points="92.94,-96.11 82.98,-92.48 88.5,-101.52 92.94,-96.11"/>
</g>
<!-- 0&#45;&gt;nil0 -->
<g id="edge3" class="edge">
<title>0&#45;&gt;nil0</title>
<path fill="none" stroke="black" d="M159.31,-133.96C159.31,-122.69 159.31,-108.9 159.31,-97.82"/>
<polygon fill="black" stroke="black" points="162.81,-97.9 159.31,-87.9 155.81,-97.9 162.81,-97.9"/>
</g>
<!-- 18&#45;&gt;nil3 -->
<g id="edge8" class="edge">
<title>18&#45;&gt;nil3</title>
<path fill="none" stroke="black" d="M291.74,-138.67C281.1,-125.87 266.33,-108.1 255.52,-95.1"/>
<polygon fill="black" stroke="black" points="258.22,-92.87 249.14,-87.41 252.84,-97.34 258.22,-92.87"/>
</g>
<!-- 18&#45;&gt;nil4 -->
<g id="edge9" class="edge">
<title>18&#45;&gt;nil4</title>
<path fill="none" stroke="black" d="M309.78,-134.77C312.35,-123.12 315.56,-108.57 318.09,-97.11"/>
<polygon fill="black" stroke="black" points="321.44,-98.18 320.18,-87.66 314.61,-96.67 321.44,-98.18"/>
</g>
<!-- 33&#45;&gt;36 -->
<g id="edge13" class="edge">
<title>33&#45;&gt;36</title>
<path fill="none" stroke="black" d="M429.85,-134.77C428.14,-127.05 426.15,-118.05 424.27,-109.53"/>
<polygon fill="black" stroke="black" points="427.71,-108.85 422.13,-99.84 420.87,-110.36 427.71,-108.85"/>
</g>
<!-- 33&#45;&gt;nil5 -->
<g id="edge12" class="edge">
<title>33&#45;&gt;nil5</title>
<path fill="none" stroke="black" d="M449.16,-140.15C462.35,-126.96 481.59,-107.72 495.16,-94.15"/>
<polygon fill="black" stroke="black" points="497.48,-96.78 502.07,-87.24 492.53,-91.83 497.48,-96.78"/>
</g>
<!-- 51&#45;&gt;nil8 -->
<g id="edge17" class="edge">
<title>51&#45;&gt;nil8</title>
<path fill="none" stroke="black" d="M592.31,-133.96C592.31,-122.69 592.31,-108.9 592.31,-97.82"/>
<polygon fill="black" stroke="black" points="595.81,-97.9 592.31,-87.9 588.81,-97.9 595.81,-97.9"/>
</g>
<!-- 51&#45;&gt;nil9 -->
<g id="edge18" class="edge">
<title>51&#45;&gt;nil9</title>
<path fill="none" stroke="black" d="M607.74,-140.52C621.87,-127.24 642.77,-107.62 657.37,-93.91"/>
<polygon fill="black" stroke="black" points="659.53,-96.68 664.42,-87.29 654.74,-91.58 659.53,-96.68"/>
</g>
</g>
</svg>
