<?xml version="1.0" encoding="UTF-8" standalone="no"?>
<!DOCTYPE svg PUBLIC "-//W3C//DTD SVG 1.1//EN"
 "http://www.w3.org/Graphics/SVG/1.1/DTD/svg11.dtd">
<!-- Generated by graphviz version 14.1.1 (20251213.1925)
 -->
<!-- Title: G Pages: 1 -->
<svg width="873pt" height="423pt"
 viewBox="0.00 0.00 873.00 423.00" xmlns="http://www.w3.org/2000/svg" xmlns:xlink="http://www.w3.org/1999/xlink">
<g id="graph0" class="graph" transform="scale(1 1) rotate(0) translate(4 419)">
<title>G</title>
<polygon fill="white" stroke="none" points="-4,4 -4,-419 868.58,-419 868.58,4 -4,4"/>
<!-- 1 -->
<g id="node1" class="node">
<title>1</title>
<ellipse fill="red" stroke="black" cx="196.96" cy="-235" rx="21.6" ry="21.6"/>
<text xml:space="preserve" text-anchor="middle" x="196.96" y="-224.57" font-family="Helvetica,sans-Serif" font-size="24.00" fill="white">1</text>
</g>
<!-- nil2 -->
<g id="node8" class="node">
<title>nil2</title>
<polygon fill="black" stroke="black" points="4.56,-147 4.56,-165 33.36,-165 33.36,-147 4.56,-147"/>
<text xml:space="preserve" text-anchor="middle" x="19.44" y="-149.05" font-family="Helvetica,sans-Serif" font-size="16.00" fill="white">NIL</text>
</g>
<!-- 1&#45;&gt;nil2 -->
<g id="edge8" class="edge">
<title>1&#45;&gt;nil2</title>
<path fill="none" stroke="black" d="M176.79,-226.25C149.9,-215.78 100.91,-196.29 59.96,-177.6 54.71,-175.2 49.15,-172.52 43.87,-169.89"/>
<polygon fill="black" stroke="black" points="45.49,-166.78 34.98,-165.39 42.33,-173.03 45.49,-166.78"/>
</g>
<!-- nil3 -->
<g id="node9" class="node">
<title>nil3</title>
<polygon fill="black" stroke="black" points="68.56,-147 68.56,-165 97.36,-165 97.36,-147 68.56,-147"/>
<text xml:space="preserve" text-anchor="middle" x="83.44" y="-149.05" font-family="Helvetica,sans-Serif" font-size="16.00" fill="white">NIL</text>
</g>
<!-- 1&#45;&gt;nil3 -->
<g id="edge9" class="edge">
<title>1&#45;&gt;nil3</title>
<path fill="none" stroke="black" d="M179.15,-221.97C159.04,-208.39 126.31,-186.28 104.71,-171.69"/>
<polygon fill="black" stroke="black" points="106.88,-168.93 96.63,-166.23 102.96,-174.73 106.88,-168.93"/>
</g>
<!-- 0 -->
<g id="node24" class="node">
<title>0</title>
<ellipse fill="black" stroke="black" cx="154.96" cy="-156" rx="21.6" ry="21.6"/>
<text xml:space="preserve" text-anchor="middle" x="154.96" y="-145.57" font-family="Helvetica,sans-Serif" font-size="24.00" fill="white">0</text>
</g>
<!-- 1&#45;&gt;0 -->
<g id="edge3" class="edge">
<title>1&#45;&gt;0</title>
<path fill="none" stroke="black" d="M187.01,-215.75C182.08,-206.71 176.01,-195.58 170.48,-185.45"/>
<polygon fill="black" stroke="black" points="173.58,-183.82 165.71,-176.71 167.43,-187.17 173.58,-183.82"/>
</g>
<!-- 3 -->
<g id="node25" class="node">
<title>3</title>
<ellipse fill="black" stroke="black" cx="237.96" cy="-156" rx="21.6" ry="21.6"/>
<text xml:space="preserve" text-anchor="middle" x="237.96" y="-145.57" font-family="Helvetica,sans-Serif" font-size="24.00" fill="white">3</text>
</g>
<!-- 1&#45;&gt;3 -->
<g id="edge6" class="edge">
<title>1&#45;&gt;3</title>
<path fill="none" stroke="black" d="M201.71,-213.77C205.98,-204.21 211.98,-192.7 217.96,-182.55"/>
<polygon fill="black" stroke="black" points="220.8,-184.61 223.07,-174.26 214.84,-180.93 220.8,-184.61"/>
</g>
<!-- 36 -->
<g id="node2" class="node">
<title>36</title>
<ellipse fill="red" stroke="black" cx="460.96" cy="-235" rx="21.6" ry="21.6"/>
<text xml:space="preserve" text-anchor="middle" x="460.96" y="-224.57" font-family="Helvetica,sans-Serif" font-size="24.00" fill="white">36</text>
</g>
<!-- 33 -->
<g id="node28" class="node">
<title>33</title>
<ellipse fill="black" stroke="black" cx="445.96" cy="-156" rx="21.6" ry="21.6"/>
<text xml:space="preserve" text-anchor="middle" x="445.96" y="-145.57" font-family="Helvetica,sans-Serif" font-size="24.00" fill="white">33</text>
</g>
<!-- 36&#45;&gt;33 -->
<g id="edge16" class="edge">
<title>36&#45;&gt;33</title>
<path fill="none" stroke="black" d="M456.94,-213.37C455.48,-205.86 453.79,-197.18 452.18,-188.92"/>
<polygon fill="black" stroke="black" points="455.63,-188.32 450.28,-179.18 448.76,-189.66 455.63,-188.32"/>
</g>
<!-- 41 -->
<g id="node29" class="node">
<title>41</title>
<ellipse fill="black" stroke="black" cx="528.96" cy="-156" rx="21.6" ry="21.6"/>
<text xml:space="preserve" text-anchor="middle" x="528.96" y="-145.57" font-family="Helvetica,sans-Serif" font-size="24.00" fill="white">41</text>
</g>
<!-- 36&#45;&gt;41 -->
<g id="edge19" class="edge">
<title>36&#45;&gt;41</title>
<path fill="none" stroke="black" d="M475.05,-218.05C484.44,-207.41 496.96,-193.23 507.57,-181.22"/>
<polygon fill="black" stroke="black" points="509.89,-183.88 513.89,-174.07 504.65,-179.25 509.89,-183.88"/>
</g>
<!-- 42 -->
<g id="node3" class="node">
<title>42</title>
<ellipse fill="red" stroke="black" cx="518.96" cy="-77" rx="21.6" ry="21.6"/>
<text xml:space="preserve" text-anchor="middle" x="518.96" y="-66.58" font-family="Helvetica,sans-Serif" font-size="24.00" fill="white">42</text>
</g>
<!-- nil10 -->
<g id="node16" class="node">
<title>nil10</title>
<polygon fill="black" stroke="black" points="472.56,-1 472.56,-19 501.36,-19 501.36,-1 472.56,-1"/>
<text xml:space="preserve" text-anchor="middle" x="487.44" y="-3.05" font-family="Helvetica,sans-Serif" font-size="16.00" fill="white">NIL</text>
</g>
<!-- 42&#45;&gt;nil10 -->
<g id="edge22" class="edge">
<title>42&#45;&gt;nil10</title>
<path fill="none" stroke="black" d="M509.71,-57.2C505.44,-48.54 500.4,-38.3 496.15,-29.66"/>
<polygon fill="black" stroke="black" points="499.37,-28.28 491.81,-20.86 493.09,-31.38 499.37,-28.28"/>
</g>
<!-- nil11 -->
<g id="node17" class="node">
<title>nil11</title>
<polygon fill="black" stroke="black" points="535.56,-1 535.56,-19 564.36,-19 564.36,-1 535.56,-1"/>
<text xml:space="preserve" text-anchor="middle" x="550.44" y="-3.05" font-family="Helvetica,sans-Serif" font-size="16.00" fill="white">NIL</text>
</g>
<!-- 42&#45;&gt;nil11 -->
<g id="edge23" class="edge">
<title>42&#45;&gt;nil11</title>
<path fill="none" stroke="black" d="M527.93,-57.2C532.06,-48.54 536.94,-38.3 541.06,-29.66"/>
<polygon fill="black" stroke="black" points="544.11,-31.4 545.26,-20.87 537.79,-28.39 544.11,-31.4"/>
</g>
<!-- 51 -->
<g id="node4" class="node">
<title>51</title>
<ellipse fill="red" stroke="black" cx="676.96" cy="-156" rx="21.6" ry="21.6"/>
<text xml:space="preserve" text-anchor="middle" x="676.96" y="-145.57" font-family="Helvetica,sans-Serif" font-size="24.00" fill="white">51</text>
</g>
<!-- nil12 -->
<g id="node18" class="node">
<title>nil12</title>
<polygon fill="black" stroke="black" points="640.56,-68 640.56,-86 669.36,-86 669.36,-68 640.56,-68"/>
<text xml:space="preserve" text-anchor="middle" x="655.44" y="-70.05" font-family="Helvetica,sans-Serif" font-size="16.00" fill="white">NIL</text>
</g>
<!-- 51&#45;&gt;nil12 -->
<g id="edge26" class="edge">
<title>51&#45;&gt;nil12</title>
<path fill="none" stroke="black" d="M671.18,-134.77C667.85,-123.12 663.69,-108.57 660.42,-97.11"/>
<polygon fill="black" stroke="black" points="663.83,-96.29 657.71,-87.64 657.1,-98.21 663.83,-96.29"/>
</g>
<!-- nil13 -->
<g id="node19" class="node">
<title>nil13</title>
<polygon fill="black" stroke="black" points="704.56,-68 704.56,-86 733.36,-86 733.36,-68 704.56,-68"/>
<text xml:space="preserve" text-anchor="middle" x="719.44" y="-70.05" font-family="Helvetica,sans-Serif" font-size="16.00" fill="white">NIL</text>
</g>
<!-- 51&#45;&gt;nil13 -->
<g id="edge27" class="edge">
<title>51&#45;&gt;nil13</title>
<path fill="none" stroke="black" d="M686.91,-136.75C693.6,-124.49 702.38,-108.41 709.05,-96.17"/>
<polygon fill="black" stroke="black" points="712.03,-98.01 713.75,-87.56 705.89,-94.66 712.03,-98.01"/>
</g>
<!-- 80 -->
<g id="node5" class="node">
<title>80</title>
<ellipse fill="red" stroke="black" cx="781.96" cy="-156" rx="21.6" ry="21.6"/>
<text xml:space="preserve" text-anchor="middle" x="781.96" y="-145.57" font-family="Helvetica,sans-Serif" font-size="24.00" fill="white">80</text>
</g>
<!-- nil14 -->
<g id="node20" class="node">
<title>nil14</title>
<polygon fill="black" stroke="black" points="767.56,-68 767.56,-86 796.36,-86 796.36,-68 767.56,-68"/>
<text xml:space="preserve" text-anchor="middle" x="782.44" y="-70.05" font-family="Helvetica,sans-Serif" font-size="16.00" fill="white">NIL</text>
</g>
<!-- 80&#45;&gt;nil14 -->
<g id="edge29" class="edge">
<title>80&#45;&gt;nil14</title>
<path fill="none" stroke="black" d="M781.96,-133.96C781.96,-122.69 781.96,-108.9 781.96,-97.82"/>
<polygon fill="black" stroke="black" points="785.46,-97.9 781.96,-87.9 778.46,-97.9 785.46,-97.9"/>
</g>
<!-- nil15 -->
<g id="node21" class="node">
<title>nil15</title>
<polygon fill="black" stroke="black" points="830.56,-68 830.56,-86 859.36,-86 859.36,-68 830.56,-68"/>
<text xml:space="preserve" text-anchor="middle" x="845.44" y="-70.05" font-family="Helvetica,sans-Serif" font-size="16.00" fill="white">NIL</text>
</g>
<!-- 80&#45;&gt;nil15 -->
<g id="edge30" class="edge">
<title>80&#45;&gt;nil15</title>
<path fill="none" stroke="black" d="M795.32,-138.67C805.8,-125.87 820.34,-108.1 830.97,-95.1"/>
<polygon fill="black" stroke="black" points="833.63,-97.38 837.25,-87.42 828.21,-92.94 833.63,-97.38"/>
</g>
<!-- nil0 -->
<g id="node6" class="node">
<title>nil0</title>
<polygon fill="black" stroke="black" points="87.56,-68 87.56,-86 116.36,-86 116.36,-68 87.56,-68"/>
<text xml:space="preserve" text-anchor="middle" x="102.44" y="-70.05" font-family="Helvetica,sans-Serif" font-size="16.00" fill="white">NIL</text>
</g>
<!-- nil1 -->
<g id="node7" class="node">
<title>nil1</title>
<polygon fill="black" stroke="black" points="150.56,-68 150.56,-86 179.36,-86 179.36,-68 150.56,-68"/>
<text xml:space="preserve" text-anchor="middle" x="165.44" y="-70.05" font-family="Helvetica,sans-Serif" font-size="16.00" fill="white">NIL</text>
</g>
<!-- nil4 -->
<g id="node10" class="node">
<title>nil4</title>
<polygon fill="black" stroke="black" points="223.56,-68 223.56,-86 252.36,-86 252.36,-68 223.56,-68"/>
<text xml:space="preserve" text-anchor="middle" x="238.44" y="-70.05" font-family="Helvetica,sans-Serif" font-size="16.00" fill="white">NIL</text>
</g>
<!-- nil5 -->
<g id="node11" class="node">
<title>nil5</title>
<polygon fill="black" stroke="black" points="295.56,-147 295.56,-165 324.36,-165 324.36,-147 295.56,-147"/>
<text xml:space="preserve" text-anchor="middle" x="310.44" y="-149.05" font-family="Helvetica,sans-Serif" font-size="16.00" fill="white">NIL</text>
</g>
<!-- nil6 -->
<g id="node12" class="node">
<title>nil6</title>
<polygon fill="black" stroke="black" points="359.56,-147 359.56,-165 388.36,-165 388.36,-147 359.56,-147"/>
<text xml:space="preserve" text-anchor="middle" x="374.44" y="-149.05" font-family="Helvetica,sans-Serif" font-size="16.00" fill="white">NIL</text>
</g>
<!-- nil7 -->
<g id="node13" class="node">
<title>nil7</title>
<polygon fill="black" stroke="black" points="368.56,-68 368.56,-86 397.36,-86 397.36,-68 368.56,-68"/>
<text xml:space="preserve" text-anchor="middle" x="383.44" y="-70.05" font-family="Helvetica,sans-Serif" font-size="16.00" fill="white">NIL</text>
</g>
<!-- nil8 -->
<g id="node14" class="node">
<title>nil8</title>
<polygon fill="black" stroke="black" points="431.56,-68 431.56,-86 460.36,-86 460.36,-68 431.56,-68"/>
<text xml:space="preserve" text-anchor="middle" x="446.44" y="-70.05" font-family="Helvetica,sans-Serif" font-size="16.00" fill="white">NIL</text>
</g>
<!-- nil9 -->
<g id="node15" class="node">
<title>nil9</title>
<polygon fill="black" stroke="black" points="577.56,-68 577.56,-86 606.36,-86 606.36,-68 577.56,-68"/>
<text xml:space="preserve" text-anchor="middle" x="592.44" y="-70.05" font-family="Helvetica,sans-Serif" font-size="16.00" fill="white">NIL</text>
</g>
<!-- 30 -->
<g id="node22" class="node">
<title>30</title>
<ellipse fill="black" stroke="black" cx="397.96" cy="-393" rx="21.6" ry="21.6"/>
<text xml:space="preserve" text-anchor="middle" x="397.96" y="-382.57" font-family="Helvetica,sans-Serif" font-size="24.00" fill="white">30</text>
</g>
<!-- 12 -->
<g id="node23" class="node">
<title>12</title>
<ellipse fill="black" stroke="black" cx="357.96" cy="-314" rx="21.6" ry="21.6"/>
<text xml:space="preserve" text-anchor="middle" x="357.96" y="-303.57" font-family="Helvetica,sans-Serif" font-size="24.00" fill="white">12</text>
</g>
<!-- 30&#45;&gt;12 -->
<g id="edge1" class="edge">
<title>30&#45;&gt;12</title>
<path fill="none" stroke="black" d="M388.28,-373.36C383.69,-364.54 378.11,-353.79 373,-343.94"/>
<polygon fill="black" stroke="black" points="376.11,-342.34 368.39,-335.08 369.9,-345.57 376.11,-342.34"/>
</g>
<!-- 50 -->
<g id="node27" class="node">
<title>50</title>
<ellipse fill="black" stroke="black" cx="460.96" cy="-314" rx="21.6" ry="21.6"/>
<text xml:space="preserve" text-anchor="middle" x="460.96" y="-303.57" font-family="Helvetica,sans-Serif" font-size="24.00" fill="white">50</text>
</g>
<!-- 30&#45;&gt;50 -->
<g id="edge14" class="edge">
<title>30&#45;&gt;50</title>
<path fill="none" stroke="black" d="M411.32,-375.67C419.76,-365.36 430.83,-351.83 440.37,-340.17"/>
<polygon fill="black" stroke="black" points="443.04,-342.43 446.66,-332.48 437.62,-338 443.04,-342.43"/>
</g>
<!-- 12&#45;&gt;1 -->
<g id="edge2" class="edge">
<title>12&#45;&gt;1</title>
<path fill="none" stroke="black" d="M338.54,-303.71C310.74,-290.42 259.36,-265.84 226.73,-250.24"/>
<polygon fill="black" stroke="black" points="228.35,-247.13 217.82,-245.97 225.33,-253.45 228.35,-247.13"/>
</g>
<!-- 18 -->
<g id="node26" class="node">
<title>18</title>
<ellipse fill="black" stroke="black" cx="357.96" cy="-235" rx="21.6" ry="21.6"/>
<text xml:space="preserve" text-anchor="middle" x="357.96" y="-224.57" font-family="Helvetica,sans-Serif" font-size="24.00" fill="white">18</text>
</g>
<!-- 12&#45;&gt;18 -->
<g id="edge11" class="edge">
<title>12&#45;&gt;18</title>
<path fill="none" stroke="black" d="M357.96,-291.96C357.96,-284.66 357.96,-276.3 357.96,-268.3"/>
<polygon fill="black" stroke="black" points="361.46,-268.53 357.96,-258.53 354.46,-268.53 361.46,-268.53"/>
</g>
<!-- 0&#45;&gt;nil0 -->
<g id="edge4" class="edge">
<title>0&#45;&gt;nil0</title>
<path fill="none" stroke="black" d="M142.94,-137.53C134.35,-125.05 122.83,-108.32 114.19,-95.77"/>
<polygon fill="black" stroke="black" points="117.15,-93.9 108.6,-87.65 111.39,-97.87 117.15,-93.9"/>
</g>
<!-- 0&#45;&gt;nil1 -->
<g id="edge5" class="edge">
<title>0&#45;&gt;nil1</title>
<path fill="none" stroke="black" d="M157.64,-134.37C159.12,-122.97 160.95,-108.9 162.41,-97.66"/>
<polygon fill="black" stroke="black" points="165.85,-98.35 163.67,-87.98 158.91,-97.45 165.85,-98.35"/>
</g>
<!-- 3&#45;&gt;1 -->
<g id="edge7" class="edge">
<title>3&#45;&gt;1</title>
<path fill="none" stroke="black" d="M233.17,-177.33C228.9,-186.88 222.9,-198.37 216.94,-208.49"/>
<polygon fill="black" stroke="black" points="214.11,-206.41 211.84,-216.76 220.07,-210.08 214.11,-206.41"/>
</g>
<!-- 3&#45;&gt;nil4 -->
<g id="edge10" class="edge">
<title>3&#45;&gt;nil4</title>
<path fill="none" stroke="black" d="M237.96,-133.96C237.96,-122.69 237.96,-108.9 237.96,-97.82"/>
<polygon fill="black" stroke="black" points="241.46,-97.9 237.96,-87.9 234.46,-97.9 241.46,-97.9"/>
</g>
<!-- 18&#45;&gt;nil5 -->
<g id="edge12" class="edge">
<title>18&#45;&gt;nil5</title>
<path fill="none" stroke="black" d="M346.83,-216.14C339.12,-203.77 328.89,-187.36 321.16,-174.97"/>
<polygon fill="black" stroke="black" points="324.2,-173.23 315.94,-166.6 318.26,-176.94 324.2,-173.23"/>
</g>
<!-- 18&#45;&gt;nil6 -->
<g id="edge13" class="edge">
<title>18&#45;&gt;nil6</title>
<path fill="none" stroke="black" d="M362.25,-213.37C364.62,-201.97 367.54,-187.9 369.88,-176.66"/>
<polygon fill="black" stroke="black" points="373.28,-177.46 371.89,-166.96 366.43,-176.04 373.28,-177.46"/>
</g>
<!-- 50&#45;&gt;36 -->
<g id="edge15" class="edge">
<title>50&#45;&gt;36</title>
<path fill="none" stroke="black" d="M460.96,-291.96C460.96,-284.66 460.96,-276.3 460.96,-268.3"/>
<polygon fill="black" stroke="black" points="464.46,-268.53 460.96,-258.53 457.46,-268.53 464.46,-268.53"/>
</g>
<!-- 58 -->
<g id="node30" class="node">
<title>58</title>
<ellipse fill="black" stroke="black" cx="676.96" cy="-235" rx="21.6" ry="21.6"/>
<text xml:space="preserve" text-anchor="middle" x="676.96" y="-224.57" font-family="Helvetica,sans-Serif" font-size="24.00" fill="white">58</text>
</g>
<!-- 50&#45;&gt;58 -->
<g id="edge24" class="edge">
<title>50&#45;&gt;58</title>
<path fill="none" stroke="black" d="M481.28,-305.76C519.23,-292.23 601.09,-263.05 645.97,-247.05"/>
<polygon fill="black" stroke="black" points="646.87,-250.44 655.11,-243.79 644.52,-243.85 646.87,-250.44"/>
</g>
<!-- 33&#45;&gt;nil7 -->
<g id="edge17" class="edge">
<title>33&#45;&gt;nil7</title>
<path fill="none" stroke="black" d="M432.6,-138.67C422.12,-125.87 407.59,-108.1 396.95,-95.1"/>
<polygon fill="black" stroke="black" points="399.71,-92.94 390.67,-87.42 394.29,-97.38 399.71,-92.94"/>
</g>
<!-- 33&#45;&gt;nil8 -->
<g id="edge18" class="edge">
<title>33&#45;&gt;nil8</title>
<path fill="none" stroke="black" d="M445.96,-133.96C445.96,-122.69 445.96,-108.9 445.96,-97.82"/>
<polygon fill="black" stroke="black" points="449.46,-97.9 445.96,-87.9 442.46,-97.9 449.46,-97.9"/>
</g>
<!-- 41&#45;&gt;42 -->
<g id="edge21" class="edge">
<title>41&#45;&gt;42</title>
<path fill="none" stroke="black" d="M526.28,-134.37C525.31,-126.86 524.18,-118.18 523.11,-109.92"/>
<polygon fill="black" stroke="black" points="526.6,-109.66 521.84,-100.19 519.66,-110.56 526.6,-109.66"/>
</g>
<!-- 41&#45;&gt;nil9 -->
<g id="edge20" class="edge">
<title>41&#45;&gt;nil9</title>
<path fill="none" stroke="black" d="M542.32,-138.67C552.8,-125.87 567.34,-108.1 577.97,-95.1"/>
<polygon fill="black" stroke="black" points="580.63,-97.38 584.25,-87.42 575.21,-92.94 580.63,-97.38"/>
</g>
<!-- 58&#45;&gt;51 -->
<g id="edge25" class="edge">
<title>58&#45;&gt;51</title>
<path fill="none" stroke="black" d="M676.96,-212.96C676.96,-205.66 676.96,-197.3 676.96,-189.3"/>
<polygon fill="black" stroke="black" points="680.46,-189.53 676.96,-179.53 673.46,-189.53 680.46,-189.53"/>
</g>
<!-- 58&#45;&gt;80 -->
<g id="edge28" class="edge">
<title>58&#45;&gt;80</title>
<path fill="none" stroke="black" d="M693.83,-221.63C710.49,-209.41 736.22,-190.54 755.59,-176.34"/>
<polygon fill="black" stroke="black" points="757.57,-179.23 763.56,-170.49 753.43,-173.58 757.57,-179.23"/>
</g>
</g>
</svg>
