<?xml version="1.0" encoding="UTF-8" standalone="no"?>
<!DOCTYPE svg PUBLIC "-//W3C//DTD SVG 1.1//EN"
 "http://www.w3.org/Graphics/SVG/1.1/DTD/svg11.dtd">
<!-- Generated by graphviz version 14.1.1 (20251213.1925)
 -->
<!-- Title: G Pages: 1 -->
<svg width="708pt" height="344pt"
 viewBox="0.00 0.00 708.00 344.00" xmlns="http://www.w3.org/2000/svg" xmlns:xlink="http://www.w3.org/1999/xlink">
<g id="graph0" class="graph" transform="scale(1 1) rotate(0) translate(4 339.8)">
<title>G</title>
<polygon fill="white" stroke="none" points="-4,4 -4,-339.8 703.58,-339.8 703.58,4 -4,4"/>
<!-- 12 -->
<g id="node1" class="node">
<title>12</title>
<ellipse fill="red" stroke="black" cx="273.36" cy="-235" rx="21.6" ry="21.6"/>
<text xml:space="preserve" text-anchor="middle" x="273.36" y="-224.57" font-family="Helvetica,sans-Serif" font-size="24.00" fill="white">12</text>
</g>
<!-- 0 -->
<g id="node20" class="node">
<title>0</title>
<ellipse fill="black" stroke="black" cx="142.36" cy="-156" rx="21.6" ry="21.6"/>
<text xml:space="preserve" text-anchor="middle" x="142.36" y="-145.57" font-family="Helvetica,sans-Serif" font-size="24.00" fill="white">0</text>
</g>
<!-- 12&#45;&gt;0 -->
<g id="edge2" class="edge">
<title>12&#45;&gt;0</title>
<path fill="none" stroke="black" d="M254.87,-223.13C232.92,-210.23 196.1,-188.59 170.59,-173.59"/>
<polygon fill="black" stroke="black" points="172.45,-170.63 162.06,-168.58 168.91,-176.67 172.45,-170.63"/>
</g>
<!-- 18 -->
<g id="node21" class="node">
<title>18</title>
<ellipse fill="black" stroke="black" cx="273.36" cy="-156" rx="21.6" ry="21.6"/>
<text xml:space="preserve" text-anchor="middle" x="273.36" y="-145.57" font-family="Helvetica,sans-Serif" font-size="24.00" fill="white">18</text>
</g>
<!-- 12&#45;&gt;18 -->
<g id="edge7" class="edge">
<title>12&#45;&gt;18</title>
<path fill="none" stroke="black" d="M273.36,-212.96C273.36,-205.66 273.36,-197.3 273.36,-189.3"/>
<polygon fill="black" stroke="black" points="276.86,-189.53 273.36,-179.53 269.86,-189.53 276.86,-189.53"/>
</g>
<!-- 1 -->
<g id="node2" class="node">
<title>1</title>
<ellipse fill="red" stroke="black" cx="58.36" cy="-77" rx="21.6" ry="21.6"/>
<text xml:space="preserve" text-anchor="middle" x="58.36" y="-66.58" font-family="Helvetica,sans-Serif" font-size="24.00" fill="white">1</text>
</g>
<!-- nil1 -->
<g id="node8" class="node">
<title>nil1</title>
<polygon fill="black" stroke="black" points="7.96,-1 7.96,-19 36.76,-19 36.76,-1 7.96,-1"/>
<text xml:space="preserve" text-anchor="middle" x="22.83" y="-3.05" font-family="Helvetica,sans-Serif" font-size="16.00" fill="white">NIL</text>
</g>
<!-- 1&#45;&gt;nil1 -->
<g id="edge5" class="edge">
<title>1&#45;&gt;nil1</title>
<path fill="none" stroke="black" d="M48.14,-57.55C43.23,-48.68 37.36,-38.09 32.46,-29.25"/>
<polygon fill="black" stroke="black" points="35.57,-27.62 27.66,-20.57 29.44,-31.02 35.57,-27.62"/>
</g>
<!-- nil2 -->
<g id="node9" class="node">
<title>nil2</title>
<polygon fill="black" stroke="black" points="80.96,-1 80.96,-19 109.76,-19 109.76,-1 80.96,-1"/>
<text xml:space="preserve" text-anchor="middle" x="95.83" y="-3.05" font-family="Helvetica,sans-Serif" font-size="16.00" fill="white">NIL</text>
</g>
<!-- 1&#45;&gt;nil2 -->
<g id="edge6" class="edge">
<title>1&#45;&gt;nil2</title>
<path fill="none" stroke="black" d="M68.66,-57.89C73.77,-48.92 79.92,-38.11 85.03,-29.14"/>
<polygon fill="black" stroke="black" points="87.96,-31.08 89.86,-20.66 81.87,-27.61 87.96,-31.08"/>
</g>
<!-- 50 -->
<g id="node3" class="node">
<title>50</title>
<ellipse fill="red" stroke="black" cx="388.36" cy="-235" rx="21.6" ry="21.6"/>
<text xml:space="preserve" text-anchor="middle" x="388.36" y="-224.57" font-family="Helvetica,sans-Serif" font-size="24.00" fill="white">50</text>
</g>
<!-- 36 -->
<g id="node22" class="node">
<title>36</title>
<ellipse fill="black" stroke="black" cx="388.36" cy="-156" rx="21.6" ry="21.6"/>
<text xml:space="preserve" text-anchor="middle" x="388.36" y="-145.57" font-family="Helvetica,sans-Serif" font-size="24.00" fill="white">36</text>
</g>
<!-- 50&#45;&gt;36 -->
<g id="edge11" class="edge">
<title>50&#45;&gt;36</title>
<path fill="none" stroke="black" d="M388.36,-212.96C388.36,-205.66 388.36,-197.3 388.36,-189.3"/>
<polygon fill="black" stroke="black" points="391.86,-189.53 388.36,-179.53 384.86,-189.53 391.86,-189.53"/>
</g>
<!-- 51 -->
<g id="node23" class="node">
<title>51</title>
<ellipse fill="black" stroke="black" cx="593.36" cy="-156" rx="21.6" ry="21.6"/>
<text xml:space="preserve" text-anchor="middle" x="593.36" y="-145.57" font-family="Helvetica,sans-Serif" font-size="24.00" fill="white">51</text>
</g>
<!-- 50&#45;&gt;51 -->
<g id="edge18" class="edge">
<title>50&#45;&gt;51</title>
<path fill="none" stroke="black" d="M408.39,-226.48C444.36,-212.96 520.13,-184.5 562.69,-168.52"/>
<polygon fill="black" stroke="black" points="563.7,-171.88 571.83,-165.09 561.24,-165.33 563.7,-171.88"/>
</g>
<!-- 33 -->
<g id="node4" class="node">
<title>33</title>
<ellipse fill="red" stroke="black" cx="373.36" cy="-77" rx="21.6" ry="21.6"/>
<text xml:space="preserve" text-anchor="middle" x="373.36" y="-66.58" font-family="Helvetica,sans-Serif" font-size="24.00" fill="white">33</text>
</g>
<!-- nil5 -->
<g id="node12" class="node">
<title>nil5</title>
<polygon fill="black" stroke="black" points="285.96,-1 285.96,-19 314.76,-19 314.76,-1 285.96,-1"/>
<text xml:space="preserve" text-anchor="middle" x="300.83" y="-3.05" font-family="Helvetica,sans-Serif" font-size="16.00" fill="white">NIL</text>
</g>
<!-- 33&#45;&gt;nil5 -->
<g id="edge13" class="edge">
<title>33&#45;&gt;nil5</title>
<path fill="none" stroke="black" d="M357.52,-61.9C345.89,-51.54 330.09,-37.47 318.05,-26.75"/>
<polygon fill="black" stroke="black" points="320.63,-24.36 310.83,-20.33 315.97,-29.59 320.63,-24.36"/>
</g>
<!-- nil6 -->
<g id="node13" class="node">
<title>nil6</title>
<polygon fill="black" stroke="black" points="358.96,-1 358.96,-19 387.76,-19 387.76,-1 358.96,-1"/>
<text xml:space="preserve" text-anchor="middle" x="373.83" y="-3.05" font-family="Helvetica,sans-Serif" font-size="16.00" fill="white">NIL</text>
</g>
<!-- 33&#45;&gt;nil6 -->
<g id="edge14" class="edge">
<title>33&#45;&gt;nil6</title>
<path fill="none" stroke="black" d="M373.36,-55.08C373.36,-47.28 373.36,-38.46 373.36,-30.77"/>
<polygon fill="black" stroke="black" points="376.86,-30.78 373.36,-20.78 369.86,-30.78 376.86,-30.78"/>
</g>
<!-- 41 -->
<g id="node5" class="node">
<title>41</title>
<ellipse fill="red" stroke="black" cx="468.36" cy="-77" rx="21.6" ry="21.6"/>
<text xml:space="preserve" text-anchor="middle" x="468.36" y="-66.58" font-family="Helvetica,sans-Serif" font-size="24.00" fill="white">41</text>
</g>
<!-- nil7 -->
<g id="node14" class="node">
<title>nil7</title>
<polygon fill="black" stroke="black" points="431.96,-1 431.96,-19 460.76,-19 460.76,-1 431.96,-1"/>
<text xml:space="preserve" text-anchor="middle" x="446.83" y="-3.05" font-family="Helvetica,sans-Serif" font-size="16.00" fill="white">NIL</text>
</g>
<!-- 41&#45;&gt;nil7 -->
<g id="edge16" class="edge">
<title>41&#45;&gt;nil7</title>
<path fill="none" stroke="black" d="M461.64,-56.14C458.82,-47.82 455.55,-38.18 452.77,-29.95"/>
<polygon fill="black" stroke="black" points="456.15,-29 449.62,-20.65 449.51,-31.25 456.15,-29"/>
</g>
<!-- nil8 -->
<g id="node15" class="node">
<title>nil8</title>
<polygon fill="black" stroke="black" points="504.96,-1 504.96,-19 533.76,-19 533.76,-1 504.96,-1"/>
<text xml:space="preserve" text-anchor="middle" x="519.83" y="-3.05" font-family="Helvetica,sans-Serif" font-size="16.00" fill="white">NIL</text>
</g>
<!-- 41&#45;&gt;nil8 -->
<g id="edge17" class="edge">
<title>41&#45;&gt;nil8</title>
<path fill="none" stroke="black" d="M481.49,-59.26C488.94,-49.77 498.24,-37.91 505.76,-28.32"/>
<polygon fill="black" stroke="black" points="508.45,-30.57 511.87,-20.54 502.94,-26.25 508.45,-30.57"/>
</g>
<!-- 58 -->
<g id="node6" class="node">
<title>58</title>
<ellipse fill="red" stroke="black" cx="593.36" cy="-77" rx="21.6" ry="21.6"/>
<text xml:space="preserve" text-anchor="middle" x="593.36" y="-66.58" font-family="Helvetica,sans-Serif" font-size="24.00" fill="white">58</text>
</g>
<!-- nil10 -->
<g id="node17" class="node">
<title>nil10</title>
<polygon fill="black" stroke="black" points="578.96,-1 578.96,-19 607.76,-19 607.76,-1 578.96,-1"/>
<text xml:space="preserve" text-anchor="middle" x="593.83" y="-3.05" font-family="Helvetica,sans-Serif" font-size="16.00" fill="white">NIL</text>
</g>
<!-- 58&#45;&gt;nil10 -->
<g id="edge21" class="edge">
<title>58&#45;&gt;nil10</title>
<path fill="none" stroke="black" d="M593.36,-55.08C593.36,-47.28 593.36,-38.46 593.36,-30.77"/>
<polygon fill="black" stroke="black" points="596.86,-30.78 593.36,-20.78 589.86,-30.78 596.86,-30.78"/>
</g>
<!-- nil11 -->
<g id="node18" class="node">
<title>nil11</title>
<polygon fill="black" stroke="black" points="651.96,-1 651.96,-19 680.76,-19 680.76,-1 651.96,-1"/>
<text xml:space="preserve" text-anchor="middle" x="666.83" y="-3.05" font-family="Helvetica,sans-Serif" font-size="16.00" fill="white">NIL</text>
</g>
<!-- 58&#45;&gt;nil11 -->
<g id="edge22" class="edge">
<title>58&#45;&gt;nil11</title>
<path fill="none" stroke="black" d="M609.2,-61.9C620.83,-51.54 636.63,-37.47 648.67,-26.75"/>
<polygon fill="black" stroke="black" points="650.74,-29.59 655.88,-20.33 646.09,-24.36 650.74,-29.59"/>
</g>
<!-- nil0 -->
<g id="node7" class="node">
<title>nil0</title>
<polygon fill="black" stroke="black" points="127.96,-68 127.96,-86 156.76,-86 156.76,-68 127.96,-68"/>
<text xml:space="preserve" text-anchor="middle" x="142.83" y="-70.05" font-family="Helvetica,sans-Serif" font-size="16.00" fill="white">NIL</text>
</g>
<!-- nil3 -->
<g id="node10" class="node">
<title>nil3</title>
<polygon fill="black" stroke="black" points="200.96,-68 200.96,-86 229.76,-86 229.76,-68 200.96,-68"/>
<text xml:space="preserve" text-anchor="middle" x="215.83" y="-70.05" font-family="Helvetica,sans-Serif" font-size="16.00" fill="white">NIL</text>
</g>
<!-- nil4 -->
<g id="node11" class="node">
<title>nil4</title>
<polygon fill="black" stroke="black" points="274.96,-68 274.96,-86 303.76,-86 303.76,-68 274.96,-68"/>
<text xml:space="preserve" text-anchor="middle" x="289.83" y="-70.05" font-family="Helvetica,sans-Serif" font-size="16.00" fill="white">NIL</text>
</g>
<!-- nil9 -->
<g id="node16" class="node">
<title>nil9</title>
<polygon fill="black" stroke="black" points="662.96,-68 662.96,-86 691.76,-86 691.76,-68 662.96,-68"/>
<text xml:space="preserve" text-anchor="middle" x="677.83" y="-70.05" font-family="Helvetica,sans-Serif" font-size="16.00" fill="white">NIL</text>
</g>
<!-- 30 -->
<g id="node19" class="node">
<title>30</title>
<ellipse fill="black" stroke="black" cx="320.36" cy="-314" rx="21.6" ry="21.6"/>
<text xml:space="preserve" text-anchor="middle" x="320.36" y="-303.57" font-family="Helvetica,sans-Serif" font-size="24.00" fill="white">30</text>
</g>
<!-- 30&#45;&gt;12 -->
<g id="edge1" class="edge">
<title>30&#45;&gt;12</title>
<path fill="none" stroke="black" d="M309.46,-295.14C303.74,-285.78 296.62,-274.11 290.21,-263.62"/>
<polygon fill="black" stroke="black" points="293.35,-262.03 285.15,-255.32 287.37,-265.68 293.35,-262.03"/>
</g>
<!-- 30&#45;&gt;50 -->
<g id="edge10" class="edge">
<title>30&#45;&gt;50</title>
<path fill="none" stroke="black" d="M334.45,-297.05C343.84,-286.41 356.36,-272.23 366.97,-260.22"/>
<polygon fill="black" stroke="black" points="369.29,-262.88 373.28,-253.07 364.04,-258.25 369.29,-262.88"/>
</g>
<!-- 0&#45;&gt;1 -->
<g id="edge4" class="edge">
<title>0&#45;&gt;1</title>
<path fill="none" stroke="black" d="M126.95,-140.88C114.48,-129.44 96.69,-113.14 82.35,-100"/>
<polygon fill="black" stroke="black" points="84.8,-97.49 75.07,-93.32 80.07,-102.65 84.8,-97.49"/>
</g>
<!-- 0&#45;&gt;nil0 -->
<g id="edge3" class="edge">
<title>0&#45;&gt;nil0</title>
<path fill="none" stroke="black" d="M142.36,-133.96C142.36,-122.69 142.36,-108.9 142.36,-97.82"/>
<polygon fill="black" stroke="black" points="145.86,-97.9 142.36,-87.9 138.86,-97.9 145.86,-97.9"/>
</g>
<!-- 18&#45;&gt;nil3 -->
<g id="edge8" class="edge">
<title>18&#45;&gt;nil3</title>
<path fill="none" stroke="black" d="M260.77,-138.29C251.2,-125.59 238.08,-108.16 228.4,-95.31"/>
<polygon fill="black" stroke="black" points="231.23,-93.26 222.42,-87.37 225.64,-97.47 231.23,-93.26"/>
</g>
<!-- 18&#45;&gt;nil4 -->
<g id="edge9" class="edge">
<title>18&#45;&gt;nil4</title>
<path fill="none" stroke="black" d="M277.64,-134.37C280.01,-122.97 282.94,-108.9 285.27,-97.66"/>
<polygon fill="black" stroke="black" points="288.68,-98.46 287.29,-87.96 281.83,-97.04 288.68,-98.46"/>
</g>
<!-- 36&#45;&gt;33 -->
<g id="edge12" class="edge">
<title>36&#45;&gt;33</title>
<path fill="none" stroke="black" d="M384.34,-134.37C382.87,-126.86 381.18,-118.18 379.58,-109.92"/>
<polygon fill="black" stroke="black" points="383.02,-109.32 377.68,-100.18 376.15,-110.66 383.02,-109.32"/>
</g>
<!-- 36&#45;&gt;41 -->
<g id="edge15" class="edge">
<title>36&#45;&gt;41</title>
<path fill="none" stroke="black" d="M403.4,-140.52C415.06,-129.3 431.43,-113.54 444.82,-100.66"/>
<polygon fill="black" stroke="black" points="447.24,-103.19 452.01,-93.73 442.38,-98.14 447.24,-103.19"/>
</g>
<!-- 51&#45;&gt;58 -->
<g id="edge20" class="edge">
<title>51&#45;&gt;58</title>
<path fill="none" stroke="black" d="M593.36,-133.96C593.36,-126.66 593.36,-118.3 593.36,-110.3"/>
<polygon fill="black" stroke="black" points="596.86,-110.53 593.36,-100.53 589.86,-110.53 596.86,-110.53"/>
</g>
<!-- 51&#45;&gt;nil9 -->
<g id="edge19" class="edge">
<title>51&#45;&gt;nil9</title>
<path fill="none" stroke="black" d="M608.76,-140.88C623.2,-127.65 644.75,-107.89 659.83,-94.06"/>
<polygon fill="black" stroke="black" points="662.15,-96.69 667.15,-87.35 657.42,-91.53 662.15,-96.69"/>
</g>
</g>
</svg>
