<?xml version="1.0" encoding="UTF-8" standalone="no"?>
<!DOCTYPE svg PUBLIC "-//W3C//DTD SVG 1.1//EN"
 "http://www.w3.org/Graphics/SVG/1.1/DTD/svg11.dtd">
<!-- Generated by graphviz version 14.1.1 (20251213.1925)
 -->
<!-- Title: G Pages: 1 -->
<svg width="873pt" height="423pt"
 viewBox="0.00 0.00 873.00 423.00" xmlns="http://www.w3.org/2000/svg" xmlns:xlink="http://www.w3.org/1999/xlink">
<g id="graph0" class="graph" transform="scale(1 1) rotate(0) translate(4 419)">
<title>G</title>
<polygon fill="white" stroke="none" points="-4,4 -4,-419 868.58,-419 868.58,4 -4,4"/>
<!-- 1 -->
<g id="node1" class="node">
<title>1</title>
<ellipse fill="red" stroke="black" cx="59.03" cy="-156" rx="21.6" ry="21.6"/>
<text xml:space="preserve" text-anchor="middle" x="59.03" y="-145.57" font-family="Helvetica,sans-Serif" font-size="24.00" fill="white">1</text>
</g>
<!-- nil1 -->
<g id="node7" class="node">
<title>nil1</title>
<polygon fill="black" stroke="black" points="8.63,-68 8.63,-86 37.43,-86 37.43,-68 8.63,-68"/>
<text xml:space="preserve" text-anchor="middle" x="23.5" y="-70.05" font-family="Helvetica,sans-Serif" font-size="16.00" fill="white">NIL</text>
</g>
<!-- 1&#45;&gt;nil1 -->
<g id="edge5" class="edge">
<title>1&#45;&gt;nil1</title>
<path fill="none" stroke="black" d="M50.13,-135.97C44.51,-123.95 37.29,-108.5 31.71,-96.58"/>
<polygon fill="black" stroke="black" points="35.03,-95.4 27.62,-87.82 28.68,-98.36 35.03,-95.4"/>
</g>
<!-- nil2 -->
<g id="node8" class="node">
<title>nil2</title>
<polygon fill="black" stroke="black" points="82.63,-68 82.63,-86 111.43,-86 111.43,-68 82.63,-68"/>
<text xml:space="preserve" text-anchor="middle" x="97.5" y="-70.05" font-family="Helvetica,sans-Serif" font-size="16.00" fill="white">NIL</text>
</g>
<!-- 1&#45;&gt;nil2 -->
<g id="edge6" class="edge">
<title>1&#45;&gt;nil2</title>
<path fill="none" stroke="black" d="M68.23,-136.36C74.22,-124.22 82,-108.45 87.97,-96.36"/>
<polygon fill="black" stroke="black" points="91.05,-98.01 92.34,-87.5 84.78,-94.92 91.05,-98.01"/>
</g>
<!-- 36 -->
<g id="node2" class="node">
<title>36</title>
<ellipse fill="red" stroke="black" cx="392.03" cy="-235" rx="21.6" ry="21.6"/>
<text xml:space="preserve" text-anchor="middle" x="392.03" y="-224.57" font-family="Helvetica,sans-Serif" font-size="24.00" fill="white">36</text>
</g>
<!-- 33 -->
<g id="node25" class="node">
<title>33</title>
<ellipse fill="black" stroke="black" cx="376.03" cy="-156" rx="21.6" ry="21.6"/>
<text xml:space="preserve" text-anchor="middle" x="376.03" y="-145.57" font-family="Helvetica,sans-Serif" font-size="24.00" fill="white">33</text>
</g>
<!-- 36&#45;&gt;33 -->
<g id="edge12" class="edge">
<title>36&#45;&gt;33</title>
<path fill="none" stroke="black" d="M387.74,-213.37C386.15,-205.71 384.31,-196.84 382.56,-188.44"/>
<polygon fill="black" stroke="black" points="386.04,-187.99 380.58,-178.91 379.19,-189.41 386.04,-187.99"/>
</g>
<!-- 41 -->
<g id="node26" class="node">
<title>41</title>
<ellipse fill="black" stroke="black" cx="472.03" cy="-156" rx="21.6" ry="21.6"/>
<text xml:space="preserve" text-anchor="middle" x="472.03" y="-145.57" font-family="Helvetica,sans-Serif" font-size="24.00" fill="white">41</text>
</g>
<!-- 36&#45;&gt;41 -->
<g id="edge15" class="edge">
<title>36&#45;&gt;41</title>
<path fill="none" stroke="black" d="M407.08,-219.52C418.73,-208.3 435.1,-192.54 448.49,-179.66"/>
<polygon fill="black" stroke="black" points="450.91,-182.19 455.69,-172.73 446.05,-177.14 450.91,-182.19"/>
</g>
<!-- 42 -->
<g id="node3" class="node">
<title>42</title>
<ellipse fill="red" stroke="black" cx="461.03" cy="-77" rx="21.6" ry="21.6"/>
<text xml:space="preserve" text-anchor="middle" x="461.03" y="-66.58" font-family="Helvetica,sans-Serif" font-size="24.00" fill="white">42</text>
</g>
<!-- nil8 -->
<g id="node14" class="node">
<title>nil8</title>
<polygon fill="black" stroke="black" points="409.63,-1 409.63,-19 438.43,-19 438.43,-1 409.63,-1"/>
<text xml:space="preserve" text-anchor="middle" x="424.5" y="-3.05" font-family="Helvetica,sans-Serif" font-size="16.00" fill="white">NIL</text>
</g>
<!-- 42&#45;&gt;nil8 -->
<g id="edge18" class="edge">
<title>42&#45;&gt;nil8</title>
<path fill="none" stroke="black" d="M450.72,-57.89C445.61,-48.92 439.46,-38.11 434.35,-29.14"/>
<polygon fill="black" stroke="black" points="437.51,-27.61 429.52,-20.66 431.43,-31.08 437.51,-27.61"/>
</g>
<!-- nil9 -->
<g id="node15" class="node">
<title>nil9</title>
<polygon fill="black" stroke="black" points="483.63,-1 483.63,-19 512.43,-19 512.43,-1 483.63,-1"/>
<text xml:space="preserve" text-anchor="middle" x="498.5" y="-3.05" font-family="Helvetica,sans-Serif" font-size="16.00" fill="white">NIL</text>
</g>
<!-- 42&#45;&gt;nil9 -->
<g id="edge19" class="edge">
<title>42&#45;&gt;nil9</title>
<path fill="none" stroke="black" d="M471.33,-57.89C476.44,-48.92 482.59,-38.11 487.7,-29.14"/>
<polygon fill="black" stroke="black" points="490.63,-31.08 492.53,-20.66 484.54,-27.61 490.63,-31.08"/>
</g>
<!-- 51 -->
<g id="node4" class="node">
<title>51</title>
<ellipse fill="red" stroke="black" cx="645.03" cy="-156" rx="21.6" ry="21.6"/>
<text xml:space="preserve" text-anchor="middle" x="645.03" y="-145.57" font-family="Helvetica,sans-Serif" font-size="24.00" fill="white">51</text>
</g>
<!-- nil10 -->
<g id="node16" class="node">
<title>nil10</title>
<polygon fill="black" stroke="black" points="605.63,-68 605.63,-86 634.43,-86 634.43,-68 605.63,-68"/>
<text xml:space="preserve" text-anchor="middle" x="620.5" y="-70.05" font-family="Helvetica,sans-Serif" font-size="16.00" fill="white">NIL</text>
</g>
<!-- 51&#45;&gt;nil10 -->
<g id="edge22" class="edge">
<title>51&#45;&gt;nil10</title>
<path fill="none" stroke="black" d="M638.59,-135.17C634.77,-123.4 629.95,-108.55 626.18,-96.94"/>
<polygon fill="black" stroke="black" points="629.6,-96.14 623.18,-87.71 622.94,-98.3 629.6,-96.14"/>
</g>
<!-- nil11 -->
<g id="node17" class="node">
<title>nil11</title>
<polygon fill="black" stroke="black" points="679.63,-68 679.63,-86 708.43,-86 708.43,-68 679.63,-68"/>
<text xml:space="preserve" text-anchor="middle" x="694.5" y="-70.05" font-family="Helvetica,sans-Serif" font-size="16.00" fill="white">NIL</text>
</g>
<!-- 51&#45;&gt;nil11 -->
<g id="edge23" class="edge">
<title>51&#45;&gt;nil11</title>
<path fill="none" stroke="black" d="M656.39,-137.14C664.26,-124.77 674.71,-108.36 682.59,-95.97"/>
<polygon fill="black" stroke="black" points="685.51,-97.91 687.93,-87.59 679.6,-94.15 685.51,-97.91"/>
</g>
<!-- 80 -->
<g id="node5" class="node">
<title>80</title>
<ellipse fill="red" stroke="black" cx="768.03" cy="-156" rx="21.6" ry="21.6"/>
<text xml:space="preserve" text-anchor="middle" x="768.03" y="-145.57" font-family="Helvetica,sans-Serif" font-size="24.00" fill="white">80</text>
</g>
<!-- nil12 -->
<g id="node18" class="node">
<title>nil12</title>
<polygon fill="black" stroke="black" points="753.63,-68 753.63,-86 782.43,-86 782.43,-68 753.63,-68"/>
<text xml:space="preserve" text-anchor="middle" x="768.5" y="-70.05" font-family="Helvetica,sans-Serif" font-size="16.00" fill="white">NIL</text>
</g>
<!-- 80&#45;&gt;nil12 -->
<g id="edge25" class="edge">
<title>80&#45;&gt;nil12</title>
<path fill="none" stroke="black" d="M768.03,-133.96C768.03,-122.69 768.03,-108.9 768.03,-97.82"/>
<polygon fill="black" stroke="black" points="771.53,-97.9 768.03,-87.9 764.53,-97.9 771.53,-97.9"/>
</g>
<!-- nil13 -->
<g id="node19" class="node">
<title>nil13</title>
<polygon fill="black" stroke="black" points="827.63,-68 827.63,-86 856.43,-86 856.43,-68 827.63,-68"/>
<text xml:space="preserve" text-anchor="middle" x="842.5" y="-70.05" font-family="Helvetica,sans-Serif" font-size="16.00" fill="white">NIL</text>
</g>
<!-- 80&#45;&gt;nil13 -->
<g id="edge26" class="edge">
<title>80&#45;&gt;nil13</title>
<path fill="none" stroke="black" d="M782.65,-139.79C795.24,-126.68 813.38,-107.81 826.29,-94.38"/>
<polygon fill="black" stroke="black" points="828.8,-96.81 833.21,-87.18 823.76,-91.96 828.8,-96.81"/>
</g>
<!-- nil0 -->
<g id="node6" class="node">
<title>nil0</title>
<polygon fill="black" stroke="black" points="129.63,-147 129.63,-165 158.43,-165 158.43,-147 129.63,-147"/>
<text xml:space="preserve" text-anchor="middle" x="144.5" y="-149.05" font-family="Helvetica,sans-Serif" font-size="16.00" fill="white">NIL</text>
</g>
<!-- nil3 -->
<g id="node9" class="node">
<title>nil3</title>
<polygon fill="black" stroke="black" points="203.63,-147 203.63,-165 232.43,-165 232.43,-147 203.63,-147"/>
<text xml:space="preserve" text-anchor="middle" x="218.5" y="-149.05" font-family="Helvetica,sans-Serif" font-size="16.00" fill="white">NIL</text>
</g>
<!-- nil4 -->
<g id="node10" class="node">
<title>nil4</title>
<polygon fill="black" stroke="black" points="277.63,-147 277.63,-165 306.43,-165 306.43,-147 277.63,-147"/>
<text xml:space="preserve" text-anchor="middle" x="292.5" y="-149.05" font-family="Helvetica,sans-Serif" font-size="16.00" fill="white">NIL</text>
</g>
<!-- nil5 -->
<g id="node11" class="node">
<title>nil5</title>
<polygon fill="black" stroke="black" points="288.63,-68 288.63,-86 317.43,-86 317.43,-68 288.63,-68"/>
<text xml:space="preserve" text-anchor="middle" x="303.5" y="-70.05" font-family="Helvetica,sans-Serif" font-size="16.00" fill="white">NIL</text>
</g>
<!-- nil6 -->
<g id="node12" class="node">
<title>nil6</title>
<polygon fill="black" stroke="black" points="361.63,-68 361.63,-86 390.43,-86 390.43,-68 361.63,-68"/>
<text xml:space="preserve" text-anchor="middle" x="376.5" y="-70.05" font-family="Helvetica,sans-Serif" font-size="16.00" fill="white">NIL</text>
</g>
<!-- nil7 -->
<g id="node13" class="node">
<title>nil7</title>
<polygon fill="black" stroke="black" points="531.63,-68 531.63,-86 560.43,-86 560.43,-68 531.63,-68"/>
<text xml:space="preserve" text-anchor="middle" x="546.5" y="-70.05" font-family="Helvetica,sans-Serif" font-size="16.00" fill="white">NIL</text>
</g>
<!-- 30 -->
<g id="node20" class="node">
<title>30</title>
<ellipse fill="black" stroke="black" cx="323.03" cy="-393" rx="21.6" ry="21.6"/>
<text xml:space="preserve" text-anchor="middle" x="323.03" y="-382.57" font-family="Helvetica,sans-Serif" font-size="24.00" fill="white">30</text>
</g>
<!-- 12 -->
<g id="node21" class="node">
<title>12</title>
<ellipse fill="black" stroke="black" cx="276.03" cy="-314" rx="21.6" ry="21.6"/>
<text xml:space="preserve" text-anchor="middle" x="276.03" y="-303.57" font-family="Helvetica,sans-Serif" font-size="24.00" fill="white">12</text>
</g>
<!-- 30&#45;&gt;12 -->
<g id="edge1" class="edge">
<title>30&#45;&gt;12</title>
<path fill="none" stroke="black" d="M312.13,-374.14C306.41,-364.78 299.29,-353.11 292.89,-342.62"/>
<polygon fill="black" stroke="black" points="296.02,-341.03 287.82,-334.32 290.04,-344.68 296.02,-341.03"/>
</g>
<!-- 50 -->
<g id="node24" class="node">
<title>50</title>
<ellipse fill="black" stroke="black" cx="392.03" cy="-314" rx="21.6" ry="21.6"/>
<text xml:space="preserve" text-anchor="middle" x="392.03" y="-303.57" font-family="Helvetica,sans-Serif" font-size="24.00" fill="white">50</text>
</g>
<!-- 30&#45;&gt;50 -->
<g id="edge10" class="edge">
<title>30&#45;&gt;50</title>
<path fill="none" stroke="black" d="M336.99,-376.42C346.56,-365.74 359.45,-351.36 370.34,-339.2"/>
<polygon fill="black" stroke="black" points="372.77,-341.73 376.84,-331.95 367.56,-337.06 372.77,-341.73"/>
</g>
<!-- 0 -->
<g id="node22" class="node">
<title>0</title>
<ellipse fill="black" stroke="black" cx="144.03" cy="-235" rx="21.6" ry="21.6"/>
<text xml:space="preserve" text-anchor="middle" x="144.03" y="-224.57" font-family="Helvetica,sans-Serif" font-size="24.00" fill="white">0</text>
</g>
<!-- 12&#45;&gt;0 -->
<g id="edge2" class="edge">
<title>12&#45;&gt;0</title>
<path fill="none" stroke="black" d="M257.4,-302.13C235.28,-289.23 198.18,-267.59 172.47,-252.59"/>
<polygon fill="black" stroke="black" points="174.27,-249.59 163.87,-247.58 170.75,-255.64 174.27,-249.59"/>
</g>
<!-- 18 -->
<g id="node23" class="node">
<title>18</title>
<ellipse fill="black" stroke="black" cx="276.03" cy="-235" rx="21.6" ry="21.6"/>
<text xml:space="preserve" text-anchor="middle" x="276.03" y="-224.57" font-family="Helvetica,sans-Serif" font-size="24.00" fill="white">18</text>
</g>
<!-- 12&#45;&gt;18 -->
<g id="edge7" class="edge">
<title>12&#45;&gt;18</title>
<path fill="none" stroke="black" d="M276.03,-291.96C276.03,-284.66 276.03,-276.3 276.03,-268.3"/>
<polygon fill="black" stroke="black" points="279.53,-268.53 276.03,-258.53 272.53,-268.53 279.53,-268.53"/>
</g>
<!-- 0&#45;&gt;1 -->
<g id="edge4" class="edge">
<title>0&#45;&gt;1</title>
<path fill="none" stroke="black" d="M128.44,-219.88C115.82,-208.44 97.82,-192.14 83.31,-179"/>
<polygon fill="black" stroke="black" points="85.69,-176.43 75.93,-172.31 80.99,-181.62 85.69,-176.43"/>
</g>
<!-- 0&#45;&gt;nil0 -->
<g id="edge3" class="edge">
<title>0&#45;&gt;nil0</title>
<path fill="none" stroke="black" d="M144.03,-212.96C144.03,-201.69 144.03,-187.9 144.03,-176.82"/>
<polygon fill="black" stroke="black" points="147.53,-176.9 144.03,-166.9 140.53,-176.9 147.53,-176.9"/>
</g>
<!-- 18&#45;&gt;nil3 -->
<g id="edge8" class="edge">
<title>18&#45;&gt;nil3</title>
<path fill="none" stroke="black" d="M263.44,-217.29C253.87,-204.59 240.75,-187.16 231.07,-174.31"/>
<polygon fill="black" stroke="black" points="233.9,-172.26 225.09,-166.37 228.31,-176.47 233.9,-172.26"/>
</g>
<!-- 18&#45;&gt;nil4 -->
<g id="edge9" class="edge">
<title>18&#45;&gt;nil4</title>
<path fill="none" stroke="black" d="M280.32,-213.37C282.68,-201.97 285.61,-187.9 287.94,-176.66"/>
<polygon fill="black" stroke="black" points="291.35,-177.46 289.96,-166.96 284.5,-176.04 291.35,-177.46"/>
</g>
<!-- 50&#45;&gt;36 -->
<g id="edge11" class="edge">
<title>50&#45;&gt;36</title>
<path fill="none" stroke="black" d="M392.03,-291.96C392.03,-284.66 392.03,-276.3 392.03,-268.3"/>
<polygon fill="black" stroke="black" points="395.53,-268.53 392.03,-258.53 388.53,-268.53 395.53,-268.53"/>
</g>
<!-- 58 -->
<g id="node27" class="node">
<title>58</title>
<ellipse fill="black" stroke="black" cx="645.03" cy="-235" rx="21.6" ry="21.6"/>
<text xml:space="preserve" text-anchor="middle" x="645.03" y="-224.57" font-family="Helvetica,sans-Serif" font-size="24.00" fill="white">58</text>
</g>
<!-- 50&#45;&gt;58 -->
<g id="edge20" class="edge">
<title>50&#45;&gt;58</title>
<path fill="none" stroke="black" d="M412.73,-306.7C456.95,-293.24 560.84,-261.62 613.4,-245.63"/>
<polygon fill="black" stroke="black" points="614.4,-248.98 622.94,-242.72 612.36,-242.28 614.4,-248.98"/>
</g>
<!-- 33&#45;&gt;nil5 -->
<g id="edge13" class="edge">
<title>33&#45;&gt;nil5</title>
<path fill="none" stroke="black" d="M361.61,-139.79C349.18,-126.68 331.29,-107.81 318.56,-94.38"/>
<polygon fill="black" stroke="black" points="321.16,-92.03 311.74,-87.18 316.08,-96.85 321.16,-92.03"/>
</g>
<!-- 33&#45;&gt;nil6 -->
<g id="edge14" class="edge">
<title>33&#45;&gt;nil6</title>
<path fill="none" stroke="black" d="M376.03,-133.96C376.03,-122.69 376.03,-108.9 376.03,-97.82"/>
<polygon fill="black" stroke="black" points="379.53,-97.9 376.03,-87.9 372.53,-97.9 379.53,-97.9"/>
</g>
<!-- 41&#45;&gt;42 -->
<g id="edge17" class="edge">
<title>41&#45;&gt;42</title>
<path fill="none" stroke="black" d="M469.08,-134.37C468.01,-126.86 466.77,-118.18 465.59,-109.92"/>
<polygon fill="black" stroke="black" points="469.08,-109.59 464.2,-100.19 462.15,-110.58 469.08,-109.59"/>
</g>
<!-- 41&#45;&gt;nil7 -->
<g id="edge16" class="edge">
<title>41&#45;&gt;nil7</title>
<path fill="none" stroke="black" d="M486.65,-139.79C499.24,-126.68 517.38,-107.81 530.29,-94.38"/>
<polygon fill="black" stroke="black" points="532.8,-96.81 537.21,-87.18 527.76,-91.96 532.8,-96.81"/>
</g>
<!-- 58&#45;&gt;51 -->
<g id="edge21" class="edge">
<title>58&#45;&gt;51</title>
<path fill="none" stroke="black" d="M645.03,-212.96C645.03,-205.66 645.03,-197.3 645.03,-189.3"/>
<polygon fill="black" stroke="black" points="648.53,-189.53 645.03,-179.53 641.53,-189.53 648.53,-189.53"/>
</g>
<!-- 58&#45;&gt;80 -->
<g id="edge24" class="edge">
<title>58&#45;&gt;80</title>
<path fill="none" stroke="black" d="M663.18,-222.64C683.53,-209.9 716.76,-189.1 740.35,-174.33"/>
<polygon fill="black" stroke="black" points="741.9,-177.48 748.52,-169.21 738.19,-171.55 741.9,-177.48"/>
</g>
</g>
</svg>
