<?xml version="1.0" encoding="UTF-8" standalone="no"?>
<!DOCTYPE svg PUBLIC "-//W3C//DTD SVG 1.1//EN"
 "http://www.w3.org/Graphics/SVG/1.1/DTD/svg11.dtd">
<!-- Generated by graphviz version 14.1.1 (20251213.1925)
 -->
<!-- Title: G Pages: 1 -->
<svg width="708pt" height="344pt"
 viewBox="0.00 0.00 708.00 344.00" xmlns="http://www.w3.org/2000/svg" xmlns:xlink="http://www.w3.org/1999/xlink">
<g id="graph0" class="graph" transform="scale(1 1) rotate(0) translate(4 339.8)">
<title>G</title>
<polygon fill="white" stroke="none" points="-4,4 -4,-339.8 703.58,-339.8 703.58,4 -4,4"/>
<!-- 12 -->
<g id="node1" class="node">
<title>12</title>
<ellipse fill="red" stroke="black" cx="377.44" cy="-235" rx="21.6" ry="21.6"/>
<text xml:space="preserve" text-anchor="middle" x="377.44" y="-224.57" font-family="Helvetica,sans-Serif" font-size="24.00" fill="white">12</text>
</g>
<!-- 0 -->
<g id="node13" class="node">
<title>0</title>
<ellipse fill="black" stroke="black" cx="212.44" cy="-156" rx="21.6" ry="21.6"/>
<text xml:space="preserve" text-anchor="middle" x="212.44" y="-145.57" font-family="Helvetica,sans-Serif" font-size="24.00" fill="white">0</text>
</g>
<!-- 12&#45;&gt;0 -->
<g id="edge2" class="edge">
<title>12&#45;&gt;0</title>
<path fill="none" stroke="black" d="M357.86,-224.86C329.21,-211.49 275.62,-186.48 242.1,-170.85"/>
<polygon fill="black" stroke="black" points="243.9,-167.82 233.36,-166.76 240.94,-174.16 243.9,-167.82"/>
</g>
<!-- 18 -->
<g id="node14" class="node">
<title>18</title>
<ellipse fill="black" stroke="black" cx="377.44" cy="-156" rx="21.6" ry="21.6"/>
<text xml:space="preserve" text-anchor="middle" x="377.44" y="-145.57" font-family="Helvetica,sans-Serif" font-size="24.00" fill="white">18</text>
</g>
<!-- 12&#45;&gt;18 -->
<g id="edge7" class="edge">
<title>12&#45;&gt;18</title>
<path fill="none" stroke="black" d="M377.44,-212.96C377.44,-205.66 377.44,-197.3 377.44,-189.3"/>
<polygon fill="black" stroke="black" points="380.94,-189.53 377.44,-179.53 373.94,-189.53 380.94,-189.53"/>
</g>
<!-- 1 -->
<g id="node2" class="node">
<title>1</title>
<ellipse fill="red" stroke="black" cx="87.44" cy="-77" rx="21.6" ry="21.6"/>
<text xml:space="preserve" text-anchor="middle" x="87.44" y="-66.58" font-family="Helvetica,sans-Serif" font-size="24.00" fill="white">1</text>
</g>
<!-- nil1 -->
<g id="node5" class="node">
<title>nil1</title>
<polygon fill="black" stroke="black" points="19.04,-1 19.04,-19 47.84,-19 47.84,-1 19.04,-1"/>
<text xml:space="preserve" text-anchor="middle" x="33.91" y="-3.05" font-family="Helvetica,sans-Serif" font-size="16.00" fill="white">NIL</text>
</g>
<!-- 1&#45;&gt;nil1 -->
<g id="edge5" class="edge">
<title>1&#45;&gt;nil1</title>
<path fill="none" stroke="black" d="M74.09,-59.93C66.03,-50.23 55.77,-37.88 47.57,-28.02"/>
<polygon fill="black" stroke="black" points="50.27,-25.79 41.19,-20.33 44.89,-30.26 50.27,-25.79"/>
</g>
<!-- nil2 -->
<g id="node6" class="node">
<title>nil2</title>
<polygon fill="black" stroke="black" points="128.04,-1 128.04,-19 156.84,-19 156.84,-1 128.04,-1"/>
<text xml:space="preserve" text-anchor="middle" x="142.91" y="-3.05" font-family="Helvetica,sans-Serif" font-size="16.00" fill="white">NIL</text>
</g>
<!-- 1&#45;&gt;nil2 -->
<g id="edge6" class="edge">
<title>1&#45;&gt;nil2</title>
<path fill="none" stroke="black" d="M101.03,-59.93C109.32,-50.13 119.91,-37.63 128.3,-27.71"/>
<polygon fill="black" stroke="black" points="130.76,-30.22 134.54,-20.33 125.41,-25.7 130.76,-30.22"/>
</g>
<!-- 51 -->
<g id="node3" class="node">
<title>51</title>
<ellipse fill="red" stroke="black" cx="540.44" cy="-156" rx="21.6" ry="21.6"/>
<text xml:space="preserve" text-anchor="middle" x="540.44" y="-145.57" font-family="Helvetica,sans-Serif" font-size="24.00" fill="white">51</text>
</g>
<!-- nil6 -->
<g id="node10" class="node">
<title>nil6</title>
<polygon fill="black" stroke="black" points="526.04,-68 526.04,-86 554.84,-86 554.84,-68 526.04,-68"/>
<text xml:space="preserve" text-anchor="middle" x="540.91" y="-70.05" font-family="Helvetica,sans-Serif" font-size="16.00" fill="white">NIL</text>
</g>
<!-- 51&#45;&gt;nil6 -->
<g id="edge13" class="edge">
<title>51&#45;&gt;nil6</title>
<path fill="none" stroke="black" d="M540.44,-133.96C540.44,-122.69 540.44,-108.9 540.44,-97.82"/>
<polygon fill="black" stroke="black" points="543.94,-97.9 540.44,-87.9 536.94,-97.9 543.94,-97.9"/>
</g>
<!-- nil7 -->
<g id="node11" class="node">
<title>nil7</title>
<polygon fill="black" stroke="black" points="635.04,-68 635.04,-86 663.84,-86 663.84,-68 635.04,-68"/>
<text xml:space="preserve" text-anchor="middle" x="649.91" y="-70.05" font-family="Helvetica,sans-Serif" font-size="16.00" fill="white">NIL</text>
</g>
<!-- 51&#45;&gt;nil7 -->
<g id="edge14" class="edge">
<title>51&#45;&gt;nil7</title>
<path fill="none" stroke="black" d="M557.95,-142.63C577.19,-129.04 608.07,-107.22 628.55,-92.75"/>
<polygon fill="black" stroke="black" points="630.29,-95.81 636.44,-87.18 626.25,-90.09 630.29,-95.81"/>
</g>
<!-- nil0 -->
<g id="node4" class="node">
<title>nil0</title>
<polygon fill="black" stroke="black" points="198.04,-68 198.04,-86 226.84,-86 226.84,-68 198.04,-68"/>
<text xml:space="preserve" text-anchor="middle" x="212.91" y="-70.05" font-family="Helvetica,sans-Serif" font-size="16.00" fill="white">NIL</text>
</g>
<!-- nil3 -->
<g id="node7" class="node">
<title>nil3</title>
<polygon fill="black" stroke="black" points="307.04,-68 307.04,-86 335.84,-86 335.84,-68 307.04,-68"/>
<text xml:space="preserve" text-anchor="middle" x="321.91" y="-70.05" font-family="Helvetica,sans-Serif" font-size="16.00" fill="white">NIL</text>
</g>
<!-- nil4 -->
<g id="node8" class="node">
<title>nil4</title>
<polygon fill="black" stroke="black" points="417.04,-68 417.04,-86 445.84,-86 445.84,-68 417.04,-68"/>
<text xml:space="preserve" text-anchor="middle" x="431.91" y="-70.05" font-family="Helvetica,sans-Serif" font-size="16.00" fill="white">NIL</text>
</g>
<!-- nil5 -->
<g id="node9" class="node">
<title>nil5</title>
<polygon fill="black" stroke="black" points="652.04,-147 652.04,-165 680.84,-165 680.84,-147 652.04,-147"/>
<text xml:space="preserve" text-anchor="middle" x="666.91" y="-149.05" font-family="Helvetica,sans-Serif" font-size="16.00" fill="white">NIL</text>
</g>
<!-- 30 -->
<g id="node12" class="node">
<title>30</title>
<ellipse fill="black" stroke="black" cx="447.44" cy="-314" rx="21.6" ry="21.6"/>
<text xml:space="preserve" text-anchor="middle" x="447.44" y="-303.57" font-family="Helvetica,sans-Serif" font-size="24.00" fill="white">30</text>
</g>
<!-- 30&#45;&gt;12 -->
<g id="edge1" class="edge">
<title>30&#45;&gt;12</title>
<path fill="none" stroke="black" d="M433.27,-297.42C423.5,-286.67 410.32,-272.17 399.22,-259.96"/>
<polygon fill="black" stroke="black" points="401.92,-257.72 392.6,-252.68 396.74,-262.43 401.92,-257.72"/>
</g>
<!-- 33 -->
<g id="node15" class="node">
<title>33</title>
<ellipse fill="black" stroke="black" cx="540.44" cy="-235" rx="21.6" ry="21.6"/>
<text xml:space="preserve" text-anchor="middle" x="540.44" y="-224.57" font-family="Helvetica,sans-Serif" font-size="24.00" fill="white">33</text>
</g>
<!-- 30&#45;&gt;33 -->
<g id="edge10" class="edge">
<title>30&#45;&gt;33</title>
<path fill="none" stroke="black" d="M463.64,-299.59C477.95,-287.74 499.05,-270.27 515.51,-256.63"/>
<polygon fill="black" stroke="black" points="517.47,-259.56 522.94,-250.48 513.01,-254.16 517.47,-259.56"/>
</g>
<!-- 0&#45;&gt;1 -->
<g id="edge4" class="edge">
<title>0&#45;&gt;1</title>
<path fill="none" stroke="black" d="M194.26,-143.8C173.52,-131.03 139.37,-109.99 115.28,-95.15"/>
<polygon fill="black" stroke="black" points="117.27,-92.27 106.92,-90 113.6,-98.23 117.27,-92.27"/>
</g>
<!-- 0&#45;&gt;nil0 -->
<g id="edge3" class="edge">
<title>0&#45;&gt;nil0</title>
<path fill="none" stroke="black" d="M212.44,-133.96C212.44,-122.69 212.44,-108.9 212.44,-97.82"/>
<polygon fill="black" stroke="black" points="215.94,-97.9 212.44,-87.9 208.94,-97.9 215.94,-97.9"/>
</g>
<!-- 18&#45;&gt;nil3 -->
<g id="edge8" class="edge">
<title>18&#45;&gt;nil3</title>
<path fill="none" stroke="black" d="M365.01,-137.91C355.85,-125.33 343.45,-108.26 334.21,-95.57"/>
<polygon fill="black" stroke="black" points="337.21,-93.74 328.5,-87.71 331.55,-97.86 337.21,-93.74"/>
</g>
<!-- 18&#45;&gt;nil4 -->
<g id="edge9" class="edge">
<title>18&#45;&gt;nil4</title>
<path fill="none" stroke="black" d="M389.42,-137.91C398.25,-125.33 410.21,-108.26 419.12,-95.57"/>
<polygon fill="black" stroke="black" points="421.74,-97.92 424.61,-87.73 416.01,-93.91 421.74,-97.92"/>
</g>
<!-- 33&#45;&gt;51 -->
<g id="edge12" class="edge">
<title>33&#45;&gt;51</title>
<path fill="none" stroke="black" d="M540.44,-212.96C540.44,-205.66 540.44,-197.3 540.44,-189.3"/>
<polygon fill="black" stroke="black" points="543.94,-189.53 540.44,-179.53 536.94,-189.53 543.94,-189.53"/>
</g>
<!-- 33&#45;&gt;nil5 -->
<g id="edge11" class="edge">
<title>33&#45;&gt;nil5</title>
<path fill="none" stroke="black" d="M558.76,-222.8C581.09,-209.15 618.87,-186.07 643.22,-171.19"/>
<polygon fill="black" stroke="black" points="644.75,-174.35 651.46,-166.15 641.1,-168.38 644.75,-174.35"/>
</g>
</g>
</svg>
