<?xml version="1.0" encoding="UTF-8" standalone="no"?>
<!DOCTYPE svg PUBLIC "-//W3C//DTD SVG 1.1//EN"
 "http://www.w3.org/Graphics/SVG/1.1/DTD/svg11.dtd">
<!-- Generated by graphviz version 14.1.1 (20251213.1925)
 -->
<!-- Title: G Pages: 1 -->
<svg width="873pt" height="423pt"
 viewBox="0.00 0.00 873.00 423.00" xmlns="http://www.w3.org/2000/svg" xmlns:xlink="http://www.w3.org/1999/xlink">
<g id="graph0" class="graph" transform="scale(1 1) rotate(0) translate(4 419)">
<title>G</title>
<polygon fill="white" stroke="none" points="-4,4 -4,-419 868.58,-419 868.58,4 -4,4"/>
<!-- n0 -->
<g id="node1" class="node">
<title>n0</title>
<ellipse fill="black" stroke="black" cx="555.84" cy="-393" rx="21.6" ry="21.6"/>
<text xml:space="preserve" text-anchor="middle" x="555.84" y="-382.57" font-family="Helvetica,sans-Serif" font-size="24.00" fill="white">83</text>
</g>
<!-- n1 -->
<g id="node2" class="node">
<title>n1</title>
<ellipse fill="black" stroke="black" cx="458.84" cy="-314" rx="21.6" ry="21.6"/>
<text xml:space="preserve" text-anchor="middle" x="458.84" y="-303.57" font-family="Helvetica,sans-Serif" font-size="24.00" fill="white">40</text>
</g>
<!-- n0&#45;&gt;n1 -->
<g id="edge17" class="edge">
<title>n0&#45;&gt;n1</title>
<path fill="none" stroke="black" d="M539.38,-378.94C524.19,-366.88 501.41,-348.8 483.95,-334.94"/>
<polygon fill="black" stroke="black" points="486.57,-332.54 476.56,-329.07 482.21,-338.03 486.57,-332.54"/>
</g>
<!-- n9 -->
<g id="node19" class="node">
<title>n9</title>
<ellipse fill="black" stroke="black" cx="629.84" cy="-314" rx="21.6" ry="21.6"/>
<text xml:space="preserve" text-anchor="middle" x="629.84" y="-303.57" font-family="Helvetica,sans-Serif" font-size="24.00" fill="white">87</text>
</g>
<!-- n0&#45;&gt;n9 -->
<g id="edge24" class="edge">
<title>n0&#45;&gt;n9</title>
<path fill="none" stroke="black" d="M570.46,-376.79C581,-365.82 595.42,-350.81 607.41,-338.33"/>
<polygon fill="black" stroke="black" points="609.79,-340.91 614.2,-331.27 604.75,-336.06 609.79,-340.91"/>
</g>
<!-- n2 -->
<g id="node3" class="node">
<title>n2</title>
<ellipse fill="red" stroke="black" cx="234.84" cy="-235" rx="21.6" ry="21.6"/>
<text xml:space="preserve" text-anchor="middle" x="234.84" y="-224.57" font-family="Helvetica,sans-Serif" font-size="24.00" fill="white">39</text>
</g>
<!-- n1&#45;&gt;n2 -->
<g id="edge7" class="edge">
<title>n1&#45;&gt;n2</title>
<path fill="none" stroke="black" d="M438.56,-306.03C399.27,-292.52 312.5,-262.7 265.89,-246.67"/>
<polygon fill="black" stroke="black" points="267.25,-243.44 256.66,-243.5 264.98,-250.06 267.25,-243.44"/>
</g>
<!-- n5 -->
<g id="node10" class="node">
<title>n5</title>
<ellipse fill="red" stroke="black" cx="458.84" cy="-235" rx="21.6" ry="21.6"/>
<text xml:space="preserve" text-anchor="middle" x="458.84" y="-224.57" font-family="Helvetica,sans-Serif" font-size="24.00" fill="white">52</text>
</g>
<!-- n1&#45;&gt;n5 -->
<g id="edge16" class="edge">
<title>n1&#45;&gt;n5</title>
<path fill="none" stroke="black" d="M458.84,-291.96C458.84,-284.66 458.84,-276.3 458.84,-268.3"/>
<polygon fill="black" stroke="black" points="462.34,-268.53 458.84,-258.53 455.34,-268.53 462.34,-268.53"/>
</g>
<!-- n3 -->
<g id="node4" class="node">
<title>n3</title>
<ellipse fill="black" stroke="black" cx="103.84" cy="-156" rx="21.6" ry="21.6"/>
<text xml:space="preserve" text-anchor="middle" x="103.84" y="-145.57" font-family="Helvetica,sans-Serif" font-size="24.00" fill="white">3</text>
</g>
<!-- n2&#45;&gt;n3 -->
<g id="edge3" class="edge">
<title>n2&#45;&gt;n3</title>
<path fill="none" stroke="black" d="M216.35,-223.13C194.4,-210.23 157.58,-188.59 132.07,-173.59"/>
<polygon fill="black" stroke="black" points="133.93,-170.63 123.54,-168.58 130.39,-176.67 133.93,-170.63"/>
</g>
<!-- n4 -->
<g id="node7" class="node">
<title>n4</title>
<ellipse fill="black" stroke="black" cx="234.84" cy="-156" rx="21.6" ry="21.6"/>
<text xml:space="preserve" text-anchor="middle" x="234.84" y="-145.57" font-family="Helvetica,sans-Serif" font-size="24.00" fill="white">39</text>
</g>
<!-- n2&#45;&gt;n4 -->
<g id="edge6" class="edge">
<title>n2&#45;&gt;n4</title>
<path fill="none" stroke="black" d="M234.84,-212.96C234.84,-205.66 234.84,-197.3 234.84,-189.3"/>
<polygon fill="black" stroke="black" points="238.34,-189.53 234.84,-179.53 231.34,-189.53 238.34,-189.53"/>
</g>
<!-- nil0 -->
<g id="node5" class="node">
<title>nil0</title>
<polygon fill="black" stroke="black" points="9.44,-68 9.44,-86 38.24,-86 38.24,-68 9.44,-68"/>
<text xml:space="preserve" text-anchor="middle" x="24.31" y="-70.05" font-family="Helvetica,sans-Serif" font-size="16.00" fill="white">NIL</text>
</g>
<!-- n3&#45;&gt;nil0 -->
<g id="edge1" class="edge">
<title>n3&#45;&gt;nil0</title>
<path fill="none" stroke="black" d="M88.79,-140.52C75,-127.24 54.61,-107.62 40.37,-93.91"/>
<polygon fill="black" stroke="black" points="43.13,-91.71 33.5,-87.3 38.28,-96.76 43.13,-91.71"/>
</g>
<!-- nil1 -->
<g id="node6" class="node">
<title>nil1</title>
<polygon fill="black" stroke="black" points="89.44,-68 89.44,-86 118.24,-86 118.24,-68 89.44,-68"/>
<text xml:space="preserve" text-anchor="middle" x="104.31" y="-70.05" font-family="Helvetica,sans-Serif" font-size="16.00" fill="white">NIL</text>
</g>
<!-- n3&#45;&gt;nil1 -->
<g id="edge2" class="edge">
<title>n3&#45;&gt;nil1</title>
<path fill="none" stroke="black" d="M103.84,-133.96C103.84,-122.69 103.84,-108.9 103.84,-97.82"/>
<polygon fill="black" stroke="black" points="107.34,-97.9 103.84,-87.9 100.34,-97.9 107.34,-97.9"/>
</g>
<!-- nil2 -->
<g id="node8" class="node">
<title>nil2</title>
<polygon fill="black" stroke="black" points="168.44,-68 168.44,-86 197.24,-86 197.24,-68 168.44,-68"/>
<text xml:space="preserve" text-anchor="middle" x="183.31" y="-70.05" font-family="Helvetica,sans-Serif" font-size="16.00" fill="white">NIL</text>
</g>
<!-- n4&#45;&gt;nil2 -->
<g id="edge4" class="edge">
<title>n4&#45;&gt;nil2</title>
<path fill="none" stroke="black" d="M223.04,-137.53C214.61,-125.05 203.31,-108.32 194.84,-95.77"/>
<polygon fill="black" stroke="black" points="197.86,-93.98 189.36,-87.66 192.05,-97.9 197.86,-93.98"/>
</g>
<!-- nil3 -->
<g id="node9" class="node">
<title>nil3</title>
<polygon fill="black" stroke="black" points="247.44,-68 247.44,-86 276.24,-86 276.24,-68 247.44,-68"/>
<text xml:space="preserve" text-anchor="middle" x="262.31" y="-70.05" font-family="Helvetica,sans-Serif" font-size="16.00" fill="white">NIL</text>
</g>
<!-- n4&#45;&gt;nil3 -->
<g id="edge5" class="edge">
<title>n4&#45;&gt;nil3</title>
<path fill="none" stroke="black" d="M241.79,-135.17C245.92,-123.4 251.13,-108.55 255.2,-96.94"/>
<polygon fill="black" stroke="black" points="258.43,-98.29 258.44,-87.7 251.83,-95.98 258.43,-98.29"/>
</g>
<!-- n6 -->
<g id="node11" class="node">
<title>n6</title>
<ellipse fill="black" stroke="black" cx="408.84" cy="-156" rx="21.6" ry="21.6"/>
<text xml:space="preserve" text-anchor="middle" x="408.84" y="-145.57" font-family="Helvetica,sans-Serif" font-size="24.00" fill="white">49</text>
</g>
<!-- n5&#45;&gt;n6 -->
<g id="edge10" class="edge">
<title>n5&#45;&gt;n6</title>
<path fill="none" stroke="black" d="M447.49,-216.53C441.27,-206.95 433.42,-194.86 426.43,-184.09"/>
<polygon fill="black" stroke="black" points="429.52,-182.42 421.14,-175.94 423.65,-186.23 429.52,-182.42"/>
</g>
<!-- n7 -->
<g id="node14" class="node">
<title>n7</title>
<ellipse fill="black" stroke="black" cx="511.84" cy="-156" rx="21.6" ry="21.6"/>
<text xml:space="preserve" text-anchor="middle" x="511.84" y="-145.57" font-family="Helvetica,sans-Serif" font-size="24.00" fill="white">63</text>
</g>
<!-- n5&#45;&gt;n7 -->
<g id="edge15" class="edge">
<title>n5&#45;&gt;n7</title>
<path fill="none" stroke="black" d="M470.86,-216.53C477.51,-206.88 485.9,-194.69 493.35,-183.86"/>
<polygon fill="black" stroke="black" points="496.21,-185.87 499,-175.65 490.45,-181.9 496.21,-185.87"/>
</g>
<!-- nil4 -->
<g id="node12" class="node">
<title>nil4</title>
<polygon fill="black" stroke="black" points="326.44,-68 326.44,-86 355.24,-86 355.24,-68 326.44,-68"/>
<text xml:space="preserve" text-anchor="middle" x="341.31" y="-70.05" font-family="Helvetica,sans-Serif" font-size="16.00" fill="white">NIL</text>
</g>
<!-- n6&#45;&gt;nil4 -->
<g id="edge8" class="edge">
<title>n6&#45;&gt;nil4</title>
<path fill="none" stroke="black" d="M394.75,-139.05C383.35,-126.14 367.35,-108.02 355.74,-94.88"/>
<polygon fill="black" stroke="black" points="358.44,-92.65 349.2,-87.47 353.2,-97.28 358.44,-92.65"/>
</g>
<!-- nil5 -->
<g id="node13" class="node">
<title>nil5</title>
<polygon fill="black" stroke="black" points="406.44,-68 406.44,-86 435.24,-86 435.24,-68 406.44,-68"/>
<text xml:space="preserve" text-anchor="middle" x="421.31" y="-70.05" font-family="Helvetica,sans-Serif" font-size="16.00" fill="white">NIL</text>
</g>
<!-- n6&#45;&gt;nil5 -->
<g id="edge9" class="edge">
<title>n6&#45;&gt;nil5</title>
<path fill="none" stroke="black" d="M412.05,-134.37C413.83,-122.97 416.02,-108.9 417.77,-97.66"/>
<polygon fill="black" stroke="black" points="421.2,-98.39 419.28,-87.97 414.29,-97.32 421.2,-98.39"/>
</g>
<!-- n8 -->
<g id="node15" class="node">
<title>n8</title>
<ellipse fill="red" stroke="black" cx="511.84" cy="-77" rx="21.6" ry="21.6"/>
<text xml:space="preserve" text-anchor="middle" x="511.84" y="-66.58" font-family="Helvetica,sans-Serif" font-size="24.00" fill="white">56</text>
</g>
<!-- n7&#45;&gt;n8 -->
<g id="edge13" class="edge">
<title>n7&#45;&gt;n8</title>
<path fill="none" stroke="black" d="M511.84,-133.96C511.84,-126.66 511.84,-118.3 511.84,-110.3"/>
<polygon fill="black" stroke="black" points="515.34,-110.53 511.84,-100.53 508.34,-110.53 515.34,-110.53"/>
</g>
<!-- nil8 -->
<g id="node18" class="node">
<title>nil8</title>
<polygon fill="black" stroke="black" points="588.44,-68 588.44,-86 617.24,-86 617.24,-68 588.44,-68"/>
<text xml:space="preserve" text-anchor="middle" x="603.31" y="-70.05" font-family="Helvetica,sans-Serif" font-size="16.00" fill="white">NIL</text>
</g>
<!-- n7&#45;&gt;nil8 -->
<g id="edge14" class="edge">
<title>n7&#45;&gt;nil8</title>
<path fill="none" stroke="black" d="M528.11,-141.23C543.83,-127.93 567.64,-107.78 584.14,-93.82"/>
<polygon fill="black" stroke="black" points="586.36,-96.52 591.74,-87.39 581.84,-91.18 586.36,-96.52"/>
</g>
<!-- nil6 -->
<g id="node16" class="node">
<title>nil6</title>
<polygon fill="black" stroke="black" points="456.44,-1 456.44,-19 485.24,-19 485.24,-1 456.44,-1"/>
<text xml:space="preserve" text-anchor="middle" x="471.31" y="-3.05" font-family="Helvetica,sans-Serif" font-size="16.00" fill="white">NIL</text>
</g>
<!-- n8&#45;&gt;nil6 -->
<g id="edge11" class="edge">
<title>n8&#45;&gt;nil6</title>
<path fill="none" stroke="black" d="M500.63,-58.24C494.91,-49.16 487.95,-38.14 482.21,-29.02"/>
<polygon fill="black" stroke="black" points="485.26,-27.3 476.96,-20.71 479.34,-31.04 485.26,-27.3"/>
</g>
<!-- nil7 -->
<g id="node17" class="node">
<title>nil7</title>
<polygon fill="black" stroke="black" points="535.44,-1 535.44,-19 564.24,-19 564.24,-1 535.44,-1"/>
<text xml:space="preserve" text-anchor="middle" x="550.31" y="-3.05" font-family="Helvetica,sans-Serif" font-size="16.00" fill="white">NIL</text>
</g>
<!-- n8&#45;&gt;nil7 -->
<g id="edge12" class="edge">
<title>n8&#45;&gt;nil7</title>
<path fill="none" stroke="black" d="M522.42,-57.89C527.67,-48.92 533.99,-38.11 539.24,-29.14"/>
<polygon fill="black" stroke="black" points="542.17,-31.05 544.2,-20.65 536.13,-27.51 542.17,-31.05"/>
</g>
<!-- n10 -->
<g id="node20" class="node">
<title>n10</title>
<ellipse fill="black" stroke="black" cx="629.84" cy="-235" rx="21.6" ry="21.6"/>
<text xml:space="preserve" text-anchor="middle" x="629.84" y="-224.57" font-family="Helvetica,sans-Serif" font-size="24.00" fill="white">83</text>
</g>
<!-- n9&#45;&gt;n10 -->
<g id="edge20" class="edge">
<title>n9&#45;&gt;n10</title>
<path fill="none" stroke="black" d="M629.84,-291.96C629.84,-284.66 629.84,-276.3 629.84,-268.3"/>
<polygon fill="black" stroke="black" points="633.34,-268.53 629.84,-258.53 626.34,-268.53 633.34,-268.53"/>
</g>
<!-- n11 -->
<g id="node23" class="node">
<title>n11</title>
<ellipse fill="black" stroke="black" cx="760.84" cy="-235" rx="21.6" ry="21.6"/>
<text xml:space="preserve" text-anchor="middle" x="760.84" y="-224.57" font-family="Helvetica,sans-Serif" font-size="24.00" fill="white">91</text>
</g>
<!-- n9&#45;&gt;n11 -->
<g id="edge23" class="edge">
<title>n9&#45;&gt;n11</title>
<path fill="none" stroke="black" d="M648.33,-302.13C670.27,-289.23 707.09,-267.59 732.61,-252.59"/>
<polygon fill="black" stroke="black" points="734.29,-255.67 741.14,-247.58 730.74,-249.63 734.29,-255.67"/>
</g>
<!-- nil9 -->
<g id="node21" class="node">
<title>nil9</title>
<polygon fill="black" stroke="black" points="588.44,-147 588.44,-165 617.24,-165 617.24,-147 588.44,-147"/>
<text xml:space="preserve" text-anchor="middle" x="603.31" y="-149.05" font-family="Helvetica,sans-Serif" font-size="16.00" fill="white">NIL</text>
</g>
<!-- n10&#45;&gt;nil9 -->
<g id="edge18" class="edge">
<title>n10&#45;&gt;nil9</title>
<path fill="none" stroke="black" d="M622.88,-214.17C618.76,-202.4 613.55,-187.55 609.48,-175.94"/>
<polygon fill="black" stroke="black" points="612.85,-174.98 606.24,-166.7 606.24,-177.29 612.85,-174.98"/>
</g>
<!-- nil10 -->
<g id="node22" class="node">
<title>nil10</title>
<polygon fill="black" stroke="black" points="667.44,-147 667.44,-165 696.24,-165 696.24,-147 667.44,-147"/>
<text xml:space="preserve" text-anchor="middle" x="682.31" y="-149.05" font-family="Helvetica,sans-Serif" font-size="16.00" fill="white">NIL</text>
</g>
<!-- n10&#45;&gt;nil10 -->
<g id="edge19" class="edge">
<title>n10&#45;&gt;nil10</title>
<path fill="none" stroke="black" d="M641.64,-216.53C650.07,-204.05 661.36,-187.32 669.84,-174.77"/>
<polygon fill="black" stroke="black" points="672.62,-176.9 675.32,-166.66 666.82,-172.98 672.62,-176.9"/>
</g>
<!-- nil11 -->
<g id="node24" class="node">
<title>nil11</title>
<polygon fill="black" stroke="black" points="746.44,-147 746.44,-165 775.24,-165 775.24,-147 746.44,-147"/>
<text xml:space="preserve" text-anchor="middle" x="761.31" y="-149.05" font-family="Helvetica,sans-Serif" font-size="16.00" fill="white">NIL</text>
</g>
<!-- n11&#45;&gt;nil11 -->
<g id="edge21" class="edge">
<title>n11&#45;&gt;nil11</title>
<path fill="none" stroke="black" d="M760.84,-212.96C760.84,-201.69 760.84,-187.9 760.84,-176.82"/>
<polygon fill="black" stroke="black" points="764.34,-176.9 760.84,-166.9 757.34,-176.9 764.34,-176.9"/>
</g>
<!-- nil12 -->
<g id="node25" class="node">
<title>nil12</title>
<polygon fill="black" stroke="black" points="825.44,-147 825.44,-165 854.24,-165 854.24,-147 825.44,-147"/>
<text xml:space="preserve" text-anchor="middle" x="840.31" y="-149.05" font-family="Helvetica,sans-Serif" font-size="16.00" fill="white">NIL</text>
</g>
<!-- n11&#45;&gt;nil12 -->
<g id="edge22" class="edge">
<title>n11&#45;&gt;nil12</title>
<path fill="none" stroke="black" d="M776.07,-219.15C789.6,-205.96 809.35,-186.72 823.27,-173.15"/>
<polygon fill="black" stroke="black" points="825.66,-175.71 830.37,-166.22 820.77,-170.7 825.66,-175.71"/>
</g>
</g>
</svg>
