<?xml version="1.0" encoding="UTF-8" standalone="no"?>
<!DOCTYPE svg PUBLIC "-//W3C//DTD SVG 1.1//EN"
 "http://www.w3.org/Graphics/SVG/1.1/DTD/svg11.dtd">
<!-- Generated by graphviz version 14.1.1 (20251213.1925)
 -->
<!-- Title: G Pages: 1 -->
<svg width="543pt" height="265pt"
 viewBox="0.00 0.00 543.00 265.00" xmlns="http://www.w3.org/2000/svg" xmlns:xlink="http://www.w3.org/1999/xlink">
<g id="graph0" class="graph" transform="scale(1 1) rotate(0) translate(4 260.6)">
<title>G</title>
<polygon fill="white" stroke="none" points="-4,4 -4,-260.6 538.58,-260.6 538.58,4 -4,4"/>
<!-- 18 -->
<g id="node1" class="node">
<title>18</title>
<ellipse fill="red" stroke="black" cx="96.35" cy="-77" rx="21.6" ry="21.6"/>
<text xml:space="preserve" text-anchor="middle" x="96.35" y="-66.58" font-family="Helvetica,sans-Serif" font-size="24.00" fill="white">18</text>
</g>
<!-- nil1 -->
<g id="node3" class="node">
<title>nil1</title>
<polygon fill="black" stroke="black" points="22.95,-1 22.95,-19 51.75,-19 51.75,-1 22.95,-1"/>
<text xml:space="preserve" text-anchor="middle" x="37.82" y="-3.05" font-family="Helvetica,sans-Serif" font-size="16.00" fill="white">NIL</text>
</g>
<!-- 18&#45;&gt;nil1 -->
<g id="edge4" class="edge">
<title>18&#45;&gt;nil1</title>
<path fill="none" stroke="black" d="M82.06,-60.27C73.08,-50.37 61.51,-37.62 52.39,-27.57"/>
<polygon fill="black" stroke="black" points="55.17,-25.43 45.86,-20.38 49.99,-30.13 55.17,-25.43"/>
</g>
<!-- nil2 -->
<g id="node4" class="node">
<title>nil2</title>
<polygon fill="black" stroke="black" points="143.95,-1 143.95,-19 172.75,-19 172.75,-1 143.95,-1"/>
<text xml:space="preserve" text-anchor="middle" x="158.82" y="-3.05" font-family="Helvetica,sans-Serif" font-size="16.00" fill="white">NIL</text>
</g>
<!-- 18&#45;&gt;nil2 -->
<g id="edge5" class="edge">
<title>18&#45;&gt;nil2</title>
<path fill="none" stroke="black" d="M111.04,-60.6C120.57,-50.61 132.97,-37.61 142.68,-27.42"/>
<polygon fill="black" stroke="black" points="144.97,-30.09 149.34,-20.44 139.91,-25.26 144.97,-30.09"/>
</g>
<!-- nil0 -->
<g id="node2" class="node">
<title>nil0</title>
<polygon fill="black" stroke="black" points="221.95,-68 221.95,-86 250.75,-86 250.75,-68 221.95,-68"/>
<text xml:space="preserve" text-anchor="middle" x="236.82" y="-70.05" font-family="Helvetica,sans-Serif" font-size="16.00" fill="white">NIL</text>
</g>
<!-- nil3 -->
<g id="node5" class="node">
<title>nil3</title>
<polygon fill="black" stroke="black" points="361.95,-68 361.95,-86 390.75,-86 390.75,-68 361.95,-68"/>
<text xml:space="preserve" text-anchor="middle" x="376.82" y="-70.05" font-family="Helvetica,sans-Serif" font-size="16.00" fill="white">NIL</text>
</g>
<!-- nil4 -->
<g id="node6" class="node">
<title>nil4</title>
<polygon fill="black" stroke="black" points="482.95,-68 482.95,-86 511.75,-86 511.75,-68 482.95,-68"/>
<text xml:space="preserve" text-anchor="middle" x="497.82" y="-70.05" font-family="Helvetica,sans-Serif" font-size="16.00" fill="white">NIL</text>
</g>
<!-- 30 -->
<g id="node7" class="node">
<title>30</title>
<ellipse fill="black" stroke="black" cx="303.35" cy="-235" rx="21.6" ry="21.6"/>
<text xml:space="preserve" text-anchor="middle" x="303.35" y="-224.57" font-family="Helvetica,sans-Serif" font-size="24.00" fill="white">30</text>
</g>
<!-- 0 -->
<g id="node8" class="node">
<title>0</title>
<ellipse fill="black" stroke="black" cx="226.35" cy="-156" rx="21.6" ry="21.6"/>
<text xml:space="preserve" text-anchor="middle" x="226.35" y="-145.57" font-family="Helvetica,sans-Serif" font-size="24.00" fill="white">0</text>
</g>
<!-- 30&#45;&gt;0 -->
<g id="edge1" class="edge">
<title>30&#45;&gt;0</title>
<path fill="none" stroke="black" d="M288.5,-219.15C277.39,-208.04 261.98,-192.63 249.29,-179.94"/>
<polygon fill="black" stroke="black" points="252.03,-177.73 242.48,-173.13 247.08,-182.68 252.03,-177.73"/>
</g>
<!-- 33 -->
<g id="node9" class="node">
<title>33</title>
<ellipse fill="black" stroke="black" cx="383.35" cy="-156" rx="21.6" ry="21.6"/>
<text xml:space="preserve" text-anchor="middle" x="383.35" y="-145.57" font-family="Helvetica,sans-Serif" font-size="24.00" fill="white">33</text>
</g>
<!-- 30&#45;&gt;33 -->
<g id="edge6" class="edge">
<title>30&#45;&gt;33</title>
<path fill="none" stroke="black" d="M318.39,-219.52C330.05,-208.3 346.42,-192.54 359.81,-179.66"/>
<polygon fill="black" stroke="black" points="362.23,-182.19 367,-172.73 357.37,-177.14 362.23,-182.19"/>
</g>
<!-- 0&#45;&gt;18 -->
<g id="edge3" class="edge">
<title>0&#45;&gt;18</title>
<path fill="none" stroke="black" d="M208,-144.13C186.22,-131.23 149.68,-109.59 124.36,-94.59"/>
<polygon fill="black" stroke="black" points="126.29,-91.67 115.91,-89.58 122.73,-97.69 126.29,-91.67"/>
</g>
<!-- 0&#45;&gt;nil0 -->
<g id="edge2" class="edge">
<title>0&#45;&gt;nil0</title>
<path fill="none" stroke="black" d="M229.03,-134.37C230.51,-122.97 232.33,-108.9 233.79,-97.66"/>
<polygon fill="black" stroke="black" points="237.23,-98.35 235.05,-87.98 230.29,-97.45 237.23,-98.35"/>
</g>
<!-- 33&#45;&gt;nil3 -->
<g id="edge7" class="edge">
<title>33&#45;&gt;nil3</title>
<path fill="none" stroke="black" d="M381.47,-134.37C380.43,-122.97 379.16,-108.9 378.13,-97.66"/>
<polygon fill="black" stroke="black" points="381.65,-97.63 377.25,-87.99 374.67,-98.26 381.65,-97.63"/>
</g>
<!-- 33&#45;&gt;nil4 -->
<g id="edge8" class="edge">
<title>33&#45;&gt;nil4</title>
<path fill="none" stroke="black" d="M401.16,-142.97C421.27,-129.39 453.99,-107.28 475.6,-92.69"/>
<polygon fill="black" stroke="black" points="477.35,-95.73 483.67,-87.23 473.43,-89.93 477.35,-95.73"/>
</g>
</g>
</svg>
