<?xml version="1.0" encoding="UTF-8" standalone="no"?>
<!DOCTYPE svg PUBLIC "-//W3C//DTD SVG 1.1//EN"
 "http://www.w3.org/Graphics/SVG/1.1/DTD/svg11.dtd">
<!-- Generated by graphviz version 14.1.1 (20251213.1925)
 -->
<!-- Title: G Pages: 1 -->
<svg width="873pt" height="423pt"
 viewBox="0.00 0.00 873.00 423.00" xmlns="http://www.w3.org/2000/svg" xmlns:xlink="http://www.w3.org/1999/xlink">
<g id="graph0" class="graph" transform="scale(1 1) rotate(0) translate(4 419)">
<title>G</title>
<polygon fill="white" stroke="none" points="-4,4 -4,-419 868.58,-419 868.58,4 -4,4"/>
<!-- n0 -->
<g id="node1" class="node">
<title>n0</title>
<ellipse fill="black" stroke="black" cx="428.64" cy="-393" rx="21.6" ry="21.6"/>
<text xml:space="preserve" text-anchor="middle" x="428.64" y="-382.57" font-family="Helvetica,sans-Serif" font-size="24.00" fill="white">83</text>
</g>
<!-- n1 -->
<g id="node2" class="node">
<title>n1</title>
<ellipse fill="black" stroke="black" cx="361.64" cy="-314" rx="21.6" ry="21.6"/>
<text xml:space="preserve" text-anchor="middle" x="361.64" y="-303.57" font-family="Helvetica,sans-Serif" font-size="24.00" fill="white">39</text>
</g>
<!-- n0&#45;&gt;n1 -->
<g id="edge13" class="edge">
<title>n0&#45;&gt;n1</title>
<path fill="none" stroke="black" d="M414.76,-376.05C405.59,-365.51 393.41,-351.51 383.02,-339.57"/>
<polygon fill="black" stroke="black" points="385.7,-337.32 376.5,-332.08 380.42,-341.92 385.7,-337.32"/>
</g>
<!-- n7 -->
<g id="node15" class="node">
<title>n7</title>
<ellipse fill="black" stroke="black" cx="549.64" cy="-314" rx="21.6" ry="21.6"/>
<text xml:space="preserve" text-anchor="middle" x="549.64" y="-303.57" font-family="Helvetica,sans-Serif" font-size="24.00" fill="white">87</text>
</g>
<!-- n0&#45;&gt;n7 -->
<g id="edge20" class="edge">
<title>n0&#45;&gt;n7</title>
<path fill="none" stroke="black" d="M446.75,-380.47C466.74,-367.75 499.12,-347.15 522.22,-332.45"/>
<polygon fill="black" stroke="black" points="523.96,-335.49 530.52,-327.17 520.2,-329.58 523.96,-335.49"/>
</g>
<!-- n2 -->
<g id="node3" class="node">
<title>n2</title>
<ellipse fill="black" stroke="black" cx="137.64" cy="-235" rx="21.6" ry="21.6"/>
<text xml:space="preserve" text-anchor="middle" x="137.64" y="-224.57" font-family="Helvetica,sans-Serif" font-size="24.00" fill="white">3</text>
</g>
<!-- n1&#45;&gt;n2 -->
<g id="edge3" class="edge">
<title>n1&#45;&gt;n2</title>
<path fill="none" stroke="black" d="M341.36,-306.03C302.07,-292.52 215.3,-262.7 168.69,-246.67"/>
<polygon fill="black" stroke="black" points="170.05,-243.44 159.46,-243.5 167.78,-250.06 170.05,-243.44"/>
</g>
<!-- n3 -->
<g id="node6" class="node">
<title>n3</title>
<ellipse fill="red" stroke="black" cx="361.64" cy="-235" rx="21.6" ry="21.6"/>
<text xml:space="preserve" text-anchor="middle" x="361.64" y="-224.57" font-family="Helvetica,sans-Serif" font-size="24.00" fill="white">40</text>
</g>
<!-- n1&#45;&gt;n3 -->
<g id="edge12" class="edge">
<title>n1&#45;&gt;n3</title>
<path fill="none" stroke="black" d="M361.64,-291.96C361.64,-284.66 361.64,-276.3 361.64,-268.3"/>
<polygon fill="black" stroke="black" points="365.14,-268.53 361.64,-258.53 358.14,-268.53 365.14,-268.53"/>
</g>
<!-- nil0 -->
<g id="node4" class="node">
<title>nil0</title>
<polygon fill="black" stroke="black" points="18.24,-147 18.24,-165 47.04,-165 47.04,-147 18.24,-147"/>
<text xml:space="preserve" text-anchor="middle" x="33.11" y="-149.05" font-family="Helvetica,sans-Serif" font-size="16.00" fill="white">NIL</text>
</g>
<!-- n2&#45;&gt;nil0 -->
<g id="edge1" class="edge">
<title>n2&#45;&gt;nil0</title>
<path fill="none" stroke="black" d="M120.77,-221.63C102.32,-208.1 72.76,-186.42 53.02,-171.95"/>
<polygon fill="black" stroke="black" points="55.32,-169.29 45.19,-166.2 51.18,-174.94 55.32,-169.29"/>
</g>
<!-- nil1 -->
<g id="node5" class="node">
<title>nil1</title>
<polygon fill="black" stroke="black" points="123.24,-147 123.24,-165 152.04,-165 152.04,-147 123.24,-147"/>
<text xml:space="preserve" text-anchor="middle" x="138.11" y="-149.05" font-family="Helvetica,sans-Serif" font-size="16.00" fill="white">NIL</text>
</g>
<!-- n2&#45;&gt;nil1 -->
<g id="edge2" class="edge">
<title>n2&#45;&gt;nil1</title>
<path fill="none" stroke="black" d="M137.64,-212.96C137.64,-201.69 137.64,-187.9 137.64,-176.82"/>
<polygon fill="black" stroke="black" points="141.14,-176.9 137.64,-166.9 134.14,-176.9 141.14,-176.9"/>
</g>
<!-- n4 -->
<g id="node7" class="node">
<title>n4</title>
<ellipse fill="black" stroke="black" cx="258.64" cy="-156" rx="21.6" ry="21.6"/>
<text xml:space="preserve" text-anchor="middle" x="258.64" y="-145.57" font-family="Helvetica,sans-Serif" font-size="24.00" fill="white">39</text>
</g>
<!-- n3&#45;&gt;n4 -->
<g id="edge6" class="edge">
<title>n3&#45;&gt;n4</title>
<path fill="none" stroke="black" d="M344.63,-221.29C328.38,-209.14 303.65,-190.65 284.87,-176.61"/>
<polygon fill="black" stroke="black" points="286.99,-173.82 276.88,-170.64 282.8,-179.43 286.99,-173.82"/>
</g>
<!-- n5 -->
<g id="node10" class="node">
<title>n5</title>
<ellipse fill="black" stroke="black" cx="395.64" cy="-156" rx="21.6" ry="21.6"/>
<text xml:space="preserve" text-anchor="middle" x="395.64" y="-145.57" font-family="Helvetica,sans-Serif" font-size="24.00" fill="white">52</text>
</g>
<!-- n3&#45;&gt;n5 -->
<g id="edge11" class="edge">
<title>n3&#45;&gt;n5</title>
<path fill="none" stroke="black" d="M370.04,-214.97C373.81,-206.42 378.35,-196.15 382.55,-186.63"/>
<polygon fill="black" stroke="black" points="385.65,-188.3 386.48,-177.73 379.24,-185.47 385.65,-188.3"/>
</g>
<!-- nil2 -->
<g id="node8" class="node">
<title>nil2</title>
<polygon fill="black" stroke="black" points="145.24,-68 145.24,-86 174.04,-86 174.04,-68 145.24,-68"/>
<text xml:space="preserve" text-anchor="middle" x="160.11" y="-70.05" font-family="Helvetica,sans-Serif" font-size="16.00" fill="white">NIL</text>
</g>
<!-- n4&#45;&gt;nil2 -->
<g id="edge4" class="edge">
<title>n4&#45;&gt;nil2</title>
<path fill="none" stroke="black" d="M241.84,-141.94C224.54,-128.48 197.59,-107.52 179.3,-93.3"/>
<polygon fill="black" stroke="black" points="181.63,-90.67 171.59,-87.29 177.33,-96.19 181.63,-90.67"/>
</g>
<!-- nil3 -->
<g id="node9" class="node">
<title>nil3</title>
<polygon fill="black" stroke="black" points="251.24,-68 251.24,-86 280.04,-86 280.04,-68 251.24,-68"/>
<text xml:space="preserve" text-anchor="middle" x="266.11" y="-70.05" font-family="Helvetica,sans-Serif" font-size="16.00" fill="white">NIL</text>
</g>
<!-- n4&#45;&gt;nil3 -->
<g id="edge5" class="edge">
<title>n4&#45;&gt;nil3</title>
<path fill="none" stroke="black" d="M260.51,-134.37C261.55,-122.97 262.83,-108.9 263.85,-97.66"/>
<polygon fill="black" stroke="black" points="267.31,-98.26 264.73,-87.99 260.34,-97.63 267.31,-98.26"/>
</g>
<!-- nil4 -->
<g id="node11" class="node">
<title>nil4</title>
<polygon fill="black" stroke="black" points="372.24,-68 372.24,-86 401.04,-86 401.04,-68 372.24,-68"/>
<text xml:space="preserve" text-anchor="middle" x="387.11" y="-70.05" font-family="Helvetica,sans-Serif" font-size="16.00" fill="white">NIL</text>
</g>
<!-- n5&#45;&gt;nil4 -->
<g id="edge7" class="edge">
<title>n5&#45;&gt;nil4</title>
<path fill="none" stroke="black" d="M393.23,-134.37C391.89,-122.97 390.25,-108.9 388.94,-97.66"/>
<polygon fill="black" stroke="black" points="392.44,-97.51 387.81,-87.98 385.49,-98.32 392.44,-97.51"/>
</g>
<!-- n6 -->
<g id="node12" class="node">
<title>n6</title>
<ellipse fill="red" stroke="black" cx="507.64" cy="-77" rx="21.6" ry="21.6"/>
<text xml:space="preserve" text-anchor="middle" x="507.64" y="-66.58" font-family="Helvetica,sans-Serif" font-size="24.00" fill="white">63</text>
</g>
<!-- n5&#45;&gt;n6 -->
<g id="edge10" class="edge">
<title>n5&#45;&gt;n6</title>
<path fill="none" stroke="black" d="M413.14,-142.97C431.3,-130.48 459.94,-110.79 480.93,-96.36"/>
<polygon fill="black" stroke="black" points="482.76,-99.35 489.01,-90.8 478.79,-93.59 482.76,-99.35"/>
</g>
<!-- nil5 -->
<g id="node13" class="node">
<title>nil5</title>
<polygon fill="black" stroke="black" points="439.24,-1 439.24,-19 468.04,-19 468.04,-1 439.24,-1"/>
<text xml:space="preserve" text-anchor="middle" x="454.11" y="-3.05" font-family="Helvetica,sans-Serif" font-size="16.00" fill="white">NIL</text>
</g>
<!-- n6&#45;&gt;nil5 -->
<g id="edge8" class="edge">
<title>n6&#45;&gt;nil5</title>
<path fill="none" stroke="black" d="M494.29,-59.93C486.23,-50.23 475.97,-37.88 467.78,-28.02"/>
<polygon fill="black" stroke="black" points="470.48,-25.79 461.39,-20.33 465.09,-30.26 470.48,-25.79"/>
</g>
<!-- nil6 -->
<g id="node14" class="node">
<title>nil6</title>
<polygon fill="black" stroke="black" points="544.24,-1 544.24,-19 573.04,-19 573.04,-1 544.24,-1"/>
<text xml:space="preserve" text-anchor="middle" x="559.11" y="-3.05" font-family="Helvetica,sans-Serif" font-size="16.00" fill="white">NIL</text>
</g>
<!-- n6&#45;&gt;nil6 -->
<g id="edge9" class="edge">
<title>n6&#45;&gt;nil6</title>
<path fill="none" stroke="black" d="M520.77,-59.26C528.22,-49.77 537.52,-37.91 545.05,-28.32"/>
<polygon fill="black" stroke="black" points="547.73,-30.57 551.15,-20.54 542.23,-26.25 547.73,-30.57"/>
</g>
<!-- n8 -->
<g id="node16" class="node">
<title>n8</title>
<ellipse fill="black" stroke="black" cx="549.64" cy="-235" rx="21.6" ry="21.6"/>
<text xml:space="preserve" text-anchor="middle" x="549.64" y="-224.57" font-family="Helvetica,sans-Serif" font-size="24.00" fill="white">83</text>
</g>
<!-- n7&#45;&gt;n8 -->
<g id="edge16" class="edge">
<title>n7&#45;&gt;n8</title>
<path fill="none" stroke="black" d="M549.64,-291.96C549.64,-284.66 549.64,-276.3 549.64,-268.3"/>
<polygon fill="black" stroke="black" points="553.14,-268.53 549.64,-258.53 546.14,-268.53 553.14,-268.53"/>
</g>
<!-- n9 -->
<g id="node19" class="node">
<title>n9</title>
<ellipse fill="black" stroke="black" cx="726.64" cy="-235" rx="21.6" ry="21.6"/>
<text xml:space="preserve" text-anchor="middle" x="726.64" y="-224.57" font-family="Helvetica,sans-Serif" font-size="24.00" fill="white">91</text>
</g>
<!-- n7&#45;&gt;n9 -->
<g id="edge19" class="edge">
<title>n7&#45;&gt;n9</title>
<path fill="none" stroke="black" d="M569.26,-304.47C600.09,-291.05 660.12,-264.94 696.47,-249.12"/>
<polygon fill="black" stroke="black" points="697.77,-252.38 705.54,-245.18 694.98,-245.96 697.77,-252.38"/>
</g>
<!-- nil7 -->
<g id="node17" class="node">
<title>nil7</title>
<polygon fill="black" stroke="black" points="502.24,-147 502.24,-165 531.04,-165 531.04,-147 502.24,-147"/>
<text xml:space="preserve" text-anchor="middle" x="517.11" y="-149.05" font-family="Helvetica,sans-Serif" font-size="16.00" fill="white">NIL</text>
</g>
<!-- n8&#45;&gt;nil7 -->
<g id="edge14" class="edge">
<title>n8&#45;&gt;nil7</title>
<path fill="none" stroke="black" d="M541.31,-214.57C536.21,-202.67 529.72,-187.53 524.68,-175.76"/>
<polygon fill="black" stroke="black" points="527.97,-174.56 520.82,-166.75 521.54,-177.32 527.97,-174.56"/>
</g>
<!-- nil8 -->
<g id="node18" class="node">
<title>nil8</title>
<polygon fill="black" stroke="black" points="607.24,-147 607.24,-165 636.04,-165 636.04,-147 607.24,-147"/>
<text xml:space="preserve" text-anchor="middle" x="622.11" y="-149.05" font-family="Helvetica,sans-Serif" font-size="16.00" fill="white">NIL</text>
</g>
<!-- n8&#45;&gt;nil8 -->
<g id="edge15" class="edge">
<title>n8&#45;&gt;nil8</title>
<path fill="none" stroke="black" d="M564.21,-218.42C576.36,-205.42 593.64,-186.95 606.06,-173.66"/>
<polygon fill="black" stroke="black" points="608.46,-176.22 612.73,-166.52 603.35,-171.44 608.46,-176.22"/>
</g>
<!-- nil9 -->
<g id="node20" class="node">
<title>nil9</title>
<polygon fill="black" stroke="black" points="712.24,-147 712.24,-165 741.04,-165 741.04,-147 712.24,-147"/>
<text xml:space="preserve" text-anchor="middle" x="727.11" y="-149.05" font-family="Helvetica,sans-Serif" font-size="16.00" fill="white">NIL</text>
</g>
<!-- n9&#45;&gt;nil9 -->
<g id="edge17" class="edge">
<title>n9&#45;&gt;nil9</title>
<path fill="none" stroke="black" d="M726.64,-212.96C726.64,-201.69 726.64,-187.9 726.64,-176.82"/>
<polygon fill="black" stroke="black" points="730.14,-176.9 726.64,-166.9 723.14,-176.9 730.14,-176.9"/>
</g>
<!-- nil10 -->
<g id="node21" class="node">
<title>nil10</title>
<polygon fill="black" stroke="black" points="818.24,-147 818.24,-165 847.04,-165 847.04,-147 818.24,-147"/>
<text xml:space="preserve" text-anchor="middle" x="833.11" y="-149.05" font-family="Helvetica,sans-Serif" font-size="16.00" fill="white">NIL</text>
</g>
<!-- n9&#45;&gt;nil10 -->
<g id="edge18" class="edge">
<title>n9&#45;&gt;nil10</title>
<path fill="none" stroke="black" d="M743.67,-221.63C762.29,-208.1 792.14,-186.42 812.06,-171.95"/>
<polygon fill="black" stroke="black" points="813.95,-174.91 819.98,-166.2 809.83,-169.24 813.95,-174.91"/>
</g>
</g>
</svg>
