<?xml version="1.0" encoding="UTF-8" standalone="no"?>
<!DOCTYPE svg PUBLIC "-//W3C//DTD SVG 1.1//EN"
 "http://www.w3.org/Graphics/SVG/1.1/DTD/svg11.dtd">
<!-- Generated by graphviz version 14.1.1 (20251213.1925)
 -->
<!-- Title: G Pages: 1 -->
<svg width="543pt" height="265pt"
 viewBox="0.00 0.00 543.00 265.00" xmlns="http://www.w3.org/2000/svg" xmlns:xlink="http://www.w3.org/1999/xlink">
<g id="graph0" class="graph" transform="scale(1 1) rotate(0) translate(4 260.6)">
<title>G</title>
<polygon fill="white" stroke="none" points="-4,4 -4,-260.6 538.58,-260.6 538.58,4 -4,4"/>
<!-- n0 -->
<g id="node1" class="node">
<title>n0</title>
<ellipse fill="black" stroke="black" cx="276.16" cy="-235" rx="21.6" ry="21.6"/>
<text xml:space="preserve" text-anchor="middle" x="276.16" y="-224.57" font-family="Helvetica,sans-Serif" font-size="24.00" fill="white">87</text>
</g>
<!-- n1 -->
<g id="node2" class="node">
<title>n1</title>
<ellipse fill="black" stroke="black" cx="190.16" cy="-156" rx="21.6" ry="21.6"/>
<text xml:space="preserve" text-anchor="middle" x="190.16" y="-145.57" font-family="Helvetica,sans-Serif" font-size="24.00" fill="white">83</text>
</g>
<!-- n0&#45;&gt;n1 -->
<g id="edge5" class="edge">
<title>n0&#45;&gt;n1</title>
<path fill="none" stroke="black" d="M260.39,-219.88C247.42,-208.26 228.83,-191.62 214.04,-178.38"/>
<polygon fill="black" stroke="black" points="216.75,-176.11 206.96,-172.04 212.08,-181.32 216.75,-176.11"/>
</g>
<!-- n3 -->
<g id="node7" class="node">
<title>n3</title>
<ellipse fill="black" stroke="black" cx="364.16" cy="-156" rx="21.6" ry="21.6"/>
<text xml:space="preserve" text-anchor="middle" x="364.16" y="-145.57" font-family="Helvetica,sans-Serif" font-size="24.00" fill="white">91</text>
</g>
<!-- n0&#45;&gt;n3 -->
<g id="edge8" class="edge">
<title>n0&#45;&gt;n3</title>
<path fill="none" stroke="black" d="M291.89,-220.23C305.2,-208.59 324.49,-191.71 339.79,-178.32"/>
<polygon fill="black" stroke="black" points="341.91,-181.12 347.13,-171.9 337.3,-175.85 341.91,-181.12"/>
</g>
<!-- nil0 -->
<g id="node3" class="node">
<title>nil0</title>
<polygon fill="black" stroke="black" points="26.76,-68 26.76,-86 55.56,-86 55.56,-68 26.76,-68"/>
<text xml:space="preserve" text-anchor="middle" x="41.64" y="-70.05" font-family="Helvetica,sans-Serif" font-size="16.00" fill="white">NIL</text>
</g>
<!-- n1&#45;&gt;nil0 -->
<g id="edge1" class="edge">
<title>n1&#45;&gt;nil0</title>
<path fill="none" stroke="black" d="M170.99,-145.09C144.11,-131.2 95.21,-105.93 65.7,-90.68"/>
<polygon fill="black" stroke="black" points="67.62,-87.74 57.13,-86.25 64.41,-93.95 67.62,-87.74"/>
</g>
<!-- n2 -->
<g id="node4" class="node">
<title>n2</title>
<ellipse fill="red" stroke="black" cx="196.16" cy="-77" rx="21.6" ry="21.6"/>
<text xml:space="preserve" text-anchor="middle" x="196.16" y="-66.58" font-family="Helvetica,sans-Serif" font-size="24.00" fill="white">83</text>
</g>
<!-- n1&#45;&gt;n2 -->
<g id="edge4" class="edge">
<title>n1&#45;&gt;n2</title>
<path fill="none" stroke="black" d="M191.77,-134.37C192.34,-127 193,-118.52 193.64,-110.41"/>
<polygon fill="black" stroke="black" points="197.12,-110.71 194.41,-100.47 190.14,-110.17 197.12,-110.71"/>
</g>
<!-- nil1 -->
<g id="node5" class="node">
<title>nil1</title>
<polygon fill="black" stroke="black" points="112.76,-1 112.76,-19 141.56,-19 141.56,-1 112.76,-1"/>
<text xml:space="preserve" text-anchor="middle" x="127.64" y="-3.05" font-family="Helvetica,sans-Serif" font-size="16.00" fill="white">NIL</text>
</g>
<!-- n2&#45;&gt;nil1 -->
<g id="edge2" class="edge">
<title>n2&#45;&gt;nil1</title>
<path fill="none" stroke="black" d="M180.85,-61.57C169.95,-51.3 155.3,-37.5 144.05,-26.91"/>
<polygon fill="black" stroke="black" points="146.69,-24.58 137.01,-20.27 141.89,-29.68 146.69,-24.58"/>
</g>
<!-- nil2 -->
<g id="node6" class="node">
<title>nil2</title>
<polygon fill="black" stroke="black" points="246.76,-1 246.76,-19 275.56,-19 275.56,-1 246.76,-1"/>
<text xml:space="preserve" text-anchor="middle" x="261.64" y="-3.05" font-family="Helvetica,sans-Serif" font-size="16.00" fill="white">NIL</text>
</g>
<!-- n2&#45;&gt;nil2 -->
<g id="edge3" class="edge">
<title>n2&#45;&gt;nil2</title>
<path fill="none" stroke="black" d="M211.24,-60.92C221.32,-50.85 234.57,-37.59 244.89,-27.27"/>
<polygon fill="black" stroke="black" points="247.06,-30.05 251.66,-20.5 242.11,-25.1 247.06,-30.05"/>
</g>
<!-- nil3 -->
<g id="node8" class="node">
<title>nil3</title>
<polygon fill="black" stroke="black" points="344.76,-68 344.76,-86 373.56,-86 373.56,-68 344.76,-68"/>
<text xml:space="preserve" text-anchor="middle" x="359.64" y="-70.05" font-family="Helvetica,sans-Serif" font-size="16.00" fill="white">NIL</text>
</g>
<!-- n3&#45;&gt;nil3 -->
<g id="edge6" class="edge">
<title>n3&#45;&gt;nil3</title>
<path fill="none" stroke="black" d="M362.8,-133.96C362.06,-122.69 361.17,-108.9 360.45,-97.82"/>
<polygon fill="black" stroke="black" points="363.94,-97.65 359.8,-87.9 356.96,-98.1 363.94,-97.65"/>
</g>
<!-- nil4 -->
<g id="node9" class="node">
<title>nil4</title>
<polygon fill="black" stroke="black" points="478.76,-68 478.76,-86 507.56,-86 507.56,-68 478.76,-68"/>
<text xml:space="preserve" text-anchor="middle" x="493.64" y="-70.05" font-family="Helvetica,sans-Serif" font-size="16.00" fill="white">NIL</text>
</g>
<!-- n3&#45;&gt;nil4 -->
<g id="edge7" class="edge">
<title>n3&#45;&gt;nil4</title>
<path fill="none" stroke="black" d="M382.64,-143.97C405.44,-130.36 444.25,-107.2 469.28,-92.25"/>
<polygon fill="black" stroke="black" points="470.99,-95.31 477.78,-87.18 467.4,-89.3 470.99,-95.31"/>
</g>
</g>
</svg>
