<?xml version="1.0" encoding="UTF-8" standalone="no"?>
<!DOCTYPE svg PUBLIC "-//W3C//DTD SVG 1.1//EN"
 "http://www.w3.org/Graphics/SVG/1.1/DTD/svg11.dtd">
<!-- Generated by graphviz version 14.1.1 (20251213.1925)
 -->
<!-- Title: G Pages: 1 -->
<svg width="378pt" height="185pt"
 viewBox="0.00 0.00 378.00 185.00" xmlns="http://www.w3.org/2000/svg" xmlns:xlink="http://www.w3.org/1999/xlink">
<g id="graph0" class="graph" transform="scale(1 1) rotate(0) translate(4 181.4)">
<title>G</title>
<polygon fill="white" stroke="none" points="-4,4 -4,-181.4 373.58,-181.4 373.58,4 -4,4"/>
<!-- n0 -->
<g id="node1" class="node">
<title>n0</title>
<ellipse fill="black" stroke="black" cx="182.9" cy="-156" rx="21.6" ry="21.6"/>
<text xml:space="preserve" text-anchor="middle" x="182.9" y="-145.57" font-family="Helvetica,sans-Serif" font-size="24.00" fill="white">87</text>
</g>
<!-- n1 -->
<g id="node2" class="node">
<title>n1</title>
<ellipse fill="red" stroke="black" cx="119.9" cy="-77" rx="21.6" ry="21.6"/>
<text xml:space="preserve" text-anchor="middle" x="119.9" y="-66.58" font-family="Helvetica,sans-Serif" font-size="24.00" fill="white">83</text>
</g>
<!-- n0&#45;&gt;n1 -->
<g id="edge3" class="edge">
<title>n0&#45;&gt;n1</title>
<path fill="none" stroke="black" d="M169.54,-138.67C161.1,-128.36 150.03,-114.83 140.49,-103.17"/>
<polygon fill="black" stroke="black" points="143.24,-101 134.2,-95.48 137.82,-105.43 143.24,-101"/>
</g>
<!-- n2 -->
<g id="node5" class="node">
<title>n2</title>
<ellipse fill="red" stroke="black" cx="247.9" cy="-77" rx="21.6" ry="21.6"/>
<text xml:space="preserve" text-anchor="middle" x="247.9" y="-66.58" font-family="Helvetica,sans-Serif" font-size="24.00" fill="white">91</text>
</g>
<!-- n0&#45;&gt;n2 -->
<g id="edge6" class="edge">
<title>n0&#45;&gt;n2</title>
<path fill="none" stroke="black" d="M196.37,-139.05C205.2,-128.58 216.92,-114.7 226.96,-102.81"/>
<polygon fill="black" stroke="black" points="229.47,-105.25 233.25,-95.36 224.12,-100.74 229.47,-105.25"/>
</g>
<!-- nil0 -->
<g id="node3" class="node">
<title>nil0</title>
<polygon fill="black" stroke="black" points="15.5,-1 15.5,-19 44.3,-19 44.3,-1 15.5,-1"/>
<text xml:space="preserve" text-anchor="middle" x="30.37" y="-3.05" font-family="Helvetica,sans-Serif" font-size="16.00" fill="white">NIL</text>
</g>
<!-- n1&#45;&gt;nil0 -->
<g id="edge1" class="edge">
<title>n1&#45;&gt;nil0</title>
<path fill="none" stroke="black" d="M102.55,-63.47C87.66,-52.71 66.17,-37.2 50.43,-25.83"/>
<polygon fill="black" stroke="black" points="52.86,-23.27 42.71,-20.25 48.77,-28.94 52.86,-23.27"/>
</g>
<!-- nil1 -->
<g id="node4" class="node">
<title>nil1</title>
<polygon fill="black" stroke="black" points="113.5,-1 113.5,-19 142.3,-19 142.3,-1 113.5,-1"/>
<text xml:space="preserve" text-anchor="middle" x="128.37" y="-3.05" font-family="Helvetica,sans-Serif" font-size="16.00" fill="white">NIL</text>
</g>
<!-- n1&#45;&gt;nil1 -->
<g id="edge2" class="edge">
<title>n1&#45;&gt;nil1</title>
<path fill="none" stroke="black" d="M122.47,-55.08C123.45,-47.18 124.55,-38.24 125.5,-30.48"/>
<polygon fill="black" stroke="black" points="128.95,-31.12 126.7,-20.77 122,-30.27 128.95,-31.12"/>
</g>
<!-- nil2 -->
<g id="node6" class="node">
<title>nil2</title>
<polygon fill="black" stroke="black" points="226.5,-1 226.5,-19 255.3,-19 255.3,-1 226.5,-1"/>
<text xml:space="preserve" text-anchor="middle" x="241.37" y="-3.05" font-family="Helvetica,sans-Serif" font-size="16.00" fill="white">NIL</text>
</g>
<!-- n2&#45;&gt;nil2 -->
<g id="edge4" class="edge">
<title>n2&#45;&gt;nil2</title>
<path fill="none" stroke="black" d="M245.65,-55.08C244.8,-47.18 243.83,-38.24 243,-30.48"/>
<polygon fill="black" stroke="black" points="246.5,-30.34 241.95,-20.77 239.54,-31.09 246.5,-30.34"/>
</g>
<!-- nil3 -->
<g id="node7" class="node">
<title>nil3</title>
<polygon fill="black" stroke="black" points="325.5,-1 325.5,-19 354.3,-19 354.3,-1 325.5,-1"/>
<text xml:space="preserve" text-anchor="middle" x="340.37" y="-3.05" font-family="Helvetica,sans-Serif" font-size="16.00" fill="white">NIL</text>
</g>
<!-- n2&#45;&gt;nil3 -->
<g id="edge5" class="edge">
<title>n2&#45;&gt;nil3</title>
<path fill="none" stroke="black" d="M265.2,-63.77C280.38,-53.05 302.48,-37.43 318.71,-25.97"/>
<polygon fill="black" stroke="black" points="320.56,-28.95 326.71,-20.32 316.52,-23.23 320.56,-28.95"/>
</g>
</g>
</svg>
