<?xml version="1.0" encoding="UTF-8" standalone="no"?>
<!DOCTYPE svg PUBLIC "-//W3C//DTD SVG 1.1//EN"
 "http://www.w3.org/Graphics/SVG/1.1/DTD/svg11.dtd">
<!-- Generated by graphviz version 14.1.1 (20251213.1925)
 -->
<!-- Title: G Pages: 1 -->
<svg width="543pt" height="265pt"
 viewBox="0.00 0.00 543.00 265.00" xmlns="http://www.w3.org/2000/svg" xmlns:xlink="http://www.w3.org/1999/xlink">
<g id="graph0" class="graph" transform="scale(1 1) rotate(0) translate(4 260.6)">
<title>G</title>
<polygon fill="white" stroke="none" points="-4,4 -4,-260.6 538.58,-260.6 538.58,4 -4,4"/>
<!-- 0 -->
<g id="node1" class="node">
<title>0</title>
<ellipse fill="red" stroke="black" cx="120.74" cy="-77" rx="21.6" ry="21.6"/>
<text xml:space="preserve" text-anchor="middle" x="120.74" y="-66.58" font-family="Helvetica,sans-Serif" font-size="24.00" fill="white">0</text>
</g>
<!-- nil0 -->
<g id="node4" class="node">
<title>nil0</title>
<polygon fill="black" stroke="black" points="14.34,-1 14.34,-19 43.14,-19 43.14,-1 14.34,-1"/>
<text xml:space="preserve" text-anchor="middle" x="29.22" y="-3.05" font-family="Helvetica,sans-Serif" font-size="16.00" fill="white">NIL</text>
</g>
<!-- 0&#45;&gt;nil0 -->
<g id="edge3" class="edge">
<title>0&#45;&gt;nil0</title>
<path fill="none" stroke="black" d="M103.44,-63.77C88.27,-53.05 66.16,-37.43 49.93,-25.97"/>
<polygon fill="black" stroke="black" points="52.12,-23.23 41.94,-20.32 48.08,-28.95 52.12,-23.23"/>
</g>
<!-- nil1 -->
<g id="node5" class="node">
<title>nil1</title>
<polygon fill="black" stroke="black" points="106.34,-1 106.34,-19 135.14,-19 135.14,-1 106.34,-1"/>
<text xml:space="preserve" text-anchor="middle" x="121.22" y="-3.05" font-family="Helvetica,sans-Serif" font-size="16.00" fill="white">NIL</text>
</g>
<!-- 0&#45;&gt;nil1 -->
<g id="edge4" class="edge">
<title>0&#45;&gt;nil1</title>
<path fill="none" stroke="black" d="M120.74,-55.08C120.74,-47.28 120.74,-38.46 120.74,-30.77"/>
<polygon fill="black" stroke="black" points="124.24,-30.78 120.74,-20.78 117.24,-30.78 124.24,-30.78"/>
</g>
<!-- 18 -->
<g id="node2" class="node">
<title>18</title>
<ellipse fill="red" stroke="black" cx="261.74" cy="-77" rx="21.6" ry="21.6"/>
<text xml:space="preserve" text-anchor="middle" x="261.74" y="-66.58" font-family="Helvetica,sans-Serif" font-size="24.00" fill="white">18</text>
</g>
<!-- nil2 -->
<g id="node6" class="node">
<title>nil2</title>
<polygon fill="black" stroke="black" points="199.34,-1 199.34,-19 228.14,-19 228.14,-1 199.34,-1"/>
<text xml:space="preserve" text-anchor="middle" x="214.22" y="-3.05" font-family="Helvetica,sans-Serif" font-size="16.00" fill="white">NIL</text>
</g>
<!-- 18&#45;&gt;nil2 -->
<g id="edge6" class="edge">
<title>18&#45;&gt;nil2</title>
<path fill="none" stroke="black" d="M249.13,-58.92C242.2,-49.53 233.61,-37.9 226.63,-28.45"/>
<polygon fill="black" stroke="black" points="229.5,-26.44 220.74,-20.48 223.87,-30.6 229.5,-26.44"/>
</g>
<!-- nil3 -->
<g id="node7" class="node">
<title>nil3</title>
<polygon fill="black" stroke="black" points="292.34,-1 292.34,-19 321.14,-19 321.14,-1 292.34,-1"/>
<text xml:space="preserve" text-anchor="middle" x="307.22" y="-3.05" font-family="Helvetica,sans-Serif" font-size="16.00" fill="white">NIL</text>
</g>
<!-- 18&#45;&gt;nil3 -->
<g id="edge7" class="edge">
<title>18&#45;&gt;nil3</title>
<path fill="none" stroke="black" d="M273.8,-58.58C280.23,-49.29 288.13,-37.89 294.57,-28.58"/>
<polygon fill="black" stroke="black" points="297.41,-30.63 300.22,-20.42 291.65,-26.65 297.41,-30.63"/>
</g>
<!-- 51 -->
<g id="node3" class="node">
<title>51</title>
<ellipse fill="red" stroke="black" cx="399.74" cy="-77" rx="21.6" ry="21.6"/>
<text xml:space="preserve" text-anchor="middle" x="399.74" y="-66.58" font-family="Helvetica,sans-Serif" font-size="24.00" fill="white">51</text>
</g>
<!-- nil5 -->
<g id="node9" class="node">
<title>nil5</title>
<polygon fill="black" stroke="black" points="385.34,-1 385.34,-19 414.14,-19 414.14,-1 385.34,-1"/>
<text xml:space="preserve" text-anchor="middle" x="400.22" y="-3.05" font-family="Helvetica,sans-Serif" font-size="16.00" fill="white">NIL</text>
</g>
<!-- 51&#45;&gt;nil5 -->
<g id="edge11" class="edge">
<title>51&#45;&gt;nil5</title>
<path fill="none" stroke="black" d="M399.74,-55.08C399.74,-47.28 399.74,-38.46 399.74,-30.77"/>
<polygon fill="black" stroke="black" points="403.24,-30.78 399.74,-20.78 396.24,-30.78 403.24,-30.78"/>
</g>
<!-- nil6 -->
<g id="node10" class="node">
<title>nil6</title>
<polygon fill="black" stroke="black" points="478.34,-1 478.34,-19 507.14,-19 507.14,-1 478.34,-1"/>
<text xml:space="preserve" text-anchor="middle" x="493.22" y="-3.05" font-family="Helvetica,sans-Serif" font-size="16.00" fill="white">NIL</text>
</g>
<!-- 51&#45;&gt;nil6 -->
<g id="edge12" class="edge">
<title>51&#45;&gt;nil6</title>
<path fill="none" stroke="black" d="M417.24,-63.77C432.57,-53.05 454.92,-37.43 471.33,-25.97"/>
<polygon fill="black" stroke="black" points="473.22,-28.91 479.42,-20.31 469.21,-23.17 473.22,-28.91"/>
</g>
<!-- nil4 -->
<g id="node8" class="node">
<title>nil4</title>
<polygon fill="black" stroke="black" points="491.34,-68 491.34,-86 520.14,-86 520.14,-68 491.34,-68"/>
<text xml:space="preserve" text-anchor="middle" x="506.22" y="-70.05" font-family="Helvetica,sans-Serif" font-size="16.00" fill="white">NIL</text>
</g>
<!-- 30 -->
<g id="node11" class="node">
<title>30</title>
<ellipse fill="black" stroke="black" cx="320.74" cy="-235" rx="21.6" ry="21.6"/>
<text xml:space="preserve" text-anchor="middle" x="320.74" y="-224.57" font-family="Helvetica,sans-Serif" font-size="24.00" fill="white">30</text>
</g>
<!-- 12 -->
<g id="node12" class="node">
<title>12</title>
<ellipse fill="black" stroke="black" cx="261.74" cy="-156" rx="21.6" ry="21.6"/>
<text xml:space="preserve" text-anchor="middle" x="261.74" y="-145.57" font-family="Helvetica,sans-Serif" font-size="24.00" fill="white">12</text>
</g>
<!-- 30&#45;&gt;12 -->
<g id="edge1" class="edge">
<title>30&#45;&gt;12</title>
<path fill="none" stroke="black" d="M307.94,-217.29C300.21,-207.2 290.2,-194.13 281.47,-182.74"/>
<polygon fill="black" stroke="black" points="284.3,-180.69 275.44,-174.88 278.74,-184.94 284.3,-180.69"/>
</g>
<!-- 33 -->
<g id="node13" class="node">
<title>33</title>
<ellipse fill="black" stroke="black" cx="399.74" cy="-156" rx="21.6" ry="21.6"/>
<text xml:space="preserve" text-anchor="middle" x="399.74" y="-145.57" font-family="Helvetica,sans-Serif" font-size="24.00" fill="white">33</text>
</g>
<!-- 30&#45;&gt;33 -->
<g id="edge8" class="edge">
<title>30&#45;&gt;33</title>
<path fill="none" stroke="black" d="M335.97,-219.15C347.45,-207.97 363.39,-192.44 376.46,-179.7"/>
<polygon fill="black" stroke="black" points="378.76,-182.34 383.47,-172.86 373.87,-177.33 378.76,-182.34"/>
</g>
<!-- 12&#45;&gt;0 -->
<g id="edge2" class="edge">
<title>12&#45;&gt;0</title>
<path fill="none" stroke="black" d="M243.02,-144.77C219.11,-131.72 177.48,-108.98 149.52,-93.72"/>
<polygon fill="black" stroke="black" points="151.33,-90.71 140.87,-88.99 147.97,-96.86 151.33,-90.71"/>
</g>
<!-- 12&#45;&gt;18 -->
<g id="edge5" class="edge">
<title>12&#45;&gt;18</title>
<path fill="none" stroke="black" d="M261.74,-133.96C261.74,-126.66 261.74,-118.3 261.74,-110.3"/>
<polygon fill="black" stroke="black" points="265.24,-110.53 261.74,-100.53 258.24,-110.53 265.24,-110.53"/>
</g>
<!-- 33&#45;&gt;51 -->
<g id="edge10" class="edge">
<title>33&#45;&gt;51</title>
<path fill="none" stroke="black" d="M399.74,-133.96C399.74,-126.66 399.74,-118.3 399.74,-110.3"/>
<polygon fill="black" stroke="black" points="403.24,-110.53 399.74,-100.53 396.24,-110.53 403.24,-110.53"/>
</g>
<!-- 33&#45;&gt;nil4 -->
<g id="edge9" class="edge">
<title>33&#45;&gt;nil4</title>
<path fill="none" stroke="black" d="M416.77,-142.63C435.4,-129.1 465.24,-107.42 485.16,-92.95"/>
<polygon fill="black" stroke="black" points="487.05,-95.91 493.08,-87.2 482.94,-90.24 487.05,-95.91"/>
</g>
</g>
</svg>
