<?xml version="1.0" encoding="UTF-8" standalone="no"?>
<!DOCTYPE svg PUBLIC "-//W3C//DTD SVG 1.1//EN"
 "http://www.w3.org/Graphics/SVG/1.1/DTD/svg11.dtd">
<!-- Generated by graphviz version 14.1.1 (20251213.1925)
 -->
<!-- Title: G Pages: 1 -->
<svg width="213pt" height="106pt"
 viewBox="0.00 0.00 213.00 106.00" xmlns="http://www.w3.org/2000/svg" xmlns:xlink="http://www.w3.org/1999/xlink">
<g id="graph0" class="graph" transform="scale(1 1) rotate(0) translate(4 102.2)">
<title>G</title>
<polygon fill="white" stroke="none" points="-4,4 -4,-102.2 208.58,-102.2 208.58,4 -4,4"/>
<!-- n0 -->
<g id="node1" class="node">
<title>n0</title>
<ellipse fill="black" stroke="black" cx="101.24" cy="-77" rx="21.6" ry="21.6"/>
<text xml:space="preserve" text-anchor="middle" x="101.24" y="-66.58" font-family="Helvetica,sans-Serif" font-size="24.00" fill="white">83</text>
</g>
<!-- nil0 -->
<g id="node2" class="node">
<title>nil0</title>
<polygon fill="black" stroke="black" points="24.84,-1 24.84,-19 53.64,-19 53.64,-1 24.84,-1"/>
<text xml:space="preserve" text-anchor="middle" x="39.72" y="-3.05" font-family="Helvetica,sans-Serif" font-size="16.00" fill="white">NIL</text>
</g>
<!-- n0&#45;&gt;nil0 -->
<g id="edge1" class="edge">
<title>n0&#45;&gt;nil0</title>
<path fill="none" stroke="black" d="M86.55,-60.6C77.02,-50.61 64.62,-37.61 54.91,-27.42"/>
<polygon fill="black" stroke="black" points="57.68,-25.26 48.25,-20.44 52.62,-30.09 57.68,-25.26"/>
</g>
<!-- nil1 -->
<g id="node3" class="node">
<title>nil1</title>
<polygon fill="black" stroke="black" points="150.84,-1 150.84,-19 179.64,-19 179.64,-1 150.84,-1"/>
<text xml:space="preserve" text-anchor="middle" x="165.72" y="-3.05" font-family="Helvetica,sans-Serif" font-size="16.00" fill="white">NIL</text>
</g>
<!-- n0&#45;&gt;nil1 -->
<g id="edge2" class="edge">
<title>n0&#45;&gt;nil1</title>
<path fill="none" stroke="black" d="M116.09,-60.92C125.91,-50.95 138.8,-37.86 148.91,-27.58"/>
<polygon fill="black" stroke="black" points="151.36,-30.09 155.88,-20.51 146.37,-25.18 151.36,-30.09"/>
</g>
</g>
</svg>
