<?xml version="1.0" encoding="UTF-8" standalone="no"?>
<!DOCTYPE svg PUBLIC "-//W3C//DTD SVG 1.1//EN"
 "http://www.w3.org/Graphics/SVG/1.1/DTD/svg11.dtd">
<!-- Generated by graphviz version 14.1.1 (20251213.1925)
 -->
<!-- Title: G Pages: 1 -->
<svg width="708pt" height="344pt"
 viewBox="0.00 0.00 708.00 344.00" xmlns="http://www.w3.org/2000/svg" xmlns:xlink="http://www.w3.org/1999/xlink">
<g id="graph0" class="graph" transform="scale(1 1) rotate(0) translate(4 339.8)">
<title>G</title>
<polygon fill="white" stroke="none" points="-4,4 -4,-339.8 703.58,-339.8 703.58,4 -4,4"/>
<!-- n0 -->
<g id="node1" class="node">
<title>n0</title>
<ellipse fill="black" stroke="black" cx="442.06" cy="-314" rx="21.6" ry="21.6"/>
<text xml:space="preserve" text-anchor="middle" x="442.06" y="-303.57" font-family="Helvetica,sans-Serif" font-size="24.00" fill="white">87</text>
</g>
<!-- n1 -->
<g id="node2" class="node">
<title>n1</title>
<ellipse fill="red" stroke="black" cx="357.06" cy="-235" rx="21.6" ry="21.6"/>
<text xml:space="preserve" text-anchor="middle" x="357.06" y="-224.57" font-family="Helvetica,sans-Serif" font-size="24.00" fill="white">83</text>
</g>
<!-- n0&#45;&gt;n1 -->
<g id="edge9" class="edge">
<title>n0&#45;&gt;n1</title>
<path fill="none" stroke="black" d="M426.47,-298.88C413.85,-287.44 395.85,-271.14 381.34,-258"/>
<polygon fill="black" stroke="black" points="383.72,-255.43 373.96,-251.31 379.02,-260.62 383.72,-255.43"/>
</g>
<!-- n5 -->
<g id="node11" class="node">
<title>n5</title>
<ellipse fill="black" stroke="black" cx="530.06" cy="-235" rx="21.6" ry="21.6"/>
<text xml:space="preserve" text-anchor="middle" x="530.06" y="-224.57" font-family="Helvetica,sans-Serif" font-size="24.00" fill="white">91</text>
</g>
<!-- n0&#45;&gt;n5 -->
<g id="edge12" class="edge">
<title>n0&#45;&gt;n5</title>
<path fill="none" stroke="black" d="M457.79,-299.23C471.1,-287.59 490.39,-270.71 505.69,-257.32"/>
<polygon fill="black" stroke="black" points="507.81,-260.12 513.03,-250.9 503.2,-254.85 507.81,-260.12"/>
</g>
<!-- n2 -->
<g id="node3" class="node">
<title>n2</title>
<ellipse fill="black" stroke="black" cx="189.06" cy="-156" rx="21.6" ry="21.6"/>
<text xml:space="preserve" text-anchor="middle" x="189.06" y="-145.57" font-family="Helvetica,sans-Serif" font-size="24.00" fill="white">3</text>
</g>
<!-- n1&#45;&gt;n2 -->
<g id="edge5" class="edge">
<title>n1&#45;&gt;n2</title>
<path fill="none" stroke="black" d="M337.46,-225.02C308.25,-211.63 253.07,-186.34 218.85,-170.65"/>
<polygon fill="black" stroke="black" points="220.46,-167.54 209.91,-166.56 217.54,-173.91 220.46,-167.54"/>
</g>
<!-- n4 -->
<g id="node8" class="node">
<title>n4</title>
<ellipse fill="black" stroke="black" cx="363.06" cy="-156" rx="21.6" ry="21.6"/>
<text xml:space="preserve" text-anchor="middle" x="363.06" y="-145.57" font-family="Helvetica,sans-Serif" font-size="24.00" fill="white">83</text>
</g>
<!-- n1&#45;&gt;n4 -->
<g id="edge8" class="edge">
<title>n1&#45;&gt;n4</title>
<path fill="none" stroke="black" d="M358.67,-213.37C359.24,-206 359.9,-197.52 360.54,-189.41"/>
<polygon fill="black" stroke="black" points="364.02,-189.71 361.31,-179.47 357.04,-189.17 364.02,-189.71"/>
</g>
<!-- nil0 -->
<g id="node4" class="node">
<title>nil0</title>
<polygon fill="black" stroke="black" points="26.66,-68 26.66,-86 55.46,-86 55.46,-68 26.66,-68"/>
<text xml:space="preserve" text-anchor="middle" x="41.54" y="-70.05" font-family="Helvetica,sans-Serif" font-size="16.00" fill="white">NIL</text>
</g>
<!-- n2&#45;&gt;nil0 -->
<g id="edge1" class="edge">
<title>n2&#45;&gt;nil0</title>
<path fill="none" stroke="black" d="M170.02,-145.09C143.32,-131.2 94.75,-105.93 65.44,-90.68"/>
<polygon fill="black" stroke="black" points="67.42,-87.77 56.93,-86.26 64.19,-93.98 67.42,-87.77"/>
</g>
<!-- n3 -->
<g id="node5" class="node">
<title>n3</title>
<ellipse fill="red" stroke="black" cx="195.06" cy="-77" rx="21.6" ry="21.6"/>
<text xml:space="preserve" text-anchor="middle" x="195.06" y="-66.58" font-family="Helvetica,sans-Serif" font-size="24.00" fill="white">40</text>
</g>
<!-- n2&#45;&gt;n3 -->
<g id="edge4" class="edge">
<title>n2&#45;&gt;n3</title>
<path fill="none" stroke="black" d="M190.67,-134.37C191.24,-127 191.9,-118.52 192.54,-110.41"/>
<polygon fill="black" stroke="black" points="196.02,-110.71 193.31,-100.47 189.04,-110.17 196.02,-110.71"/>
</g>
<!-- nil1 -->
<g id="node6" class="node">
<title>nil1</title>
<polygon fill="black" stroke="black" points="111.66,-1 111.66,-19 140.46,-19 140.46,-1 111.66,-1"/>
<text xml:space="preserve" text-anchor="middle" x="126.54" y="-3.05" font-family="Helvetica,sans-Serif" font-size="16.00" fill="white">NIL</text>
</g>
<!-- n3&#45;&gt;nil1 -->
<g id="edge2" class="edge">
<title>n3&#45;&gt;nil1</title>
<path fill="none" stroke="black" d="M179.75,-61.57C168.85,-51.3 154.2,-37.5 142.95,-26.91"/>
<polygon fill="black" stroke="black" points="145.58,-24.58 135.91,-20.27 140.78,-29.68 145.58,-24.58"/>
</g>
<!-- nil2 -->
<g id="node7" class="node">
<title>nil2</title>
<polygon fill="black" stroke="black" points="245.66,-1 245.66,-19 274.46,-19 274.46,-1 245.66,-1"/>
<text xml:space="preserve" text-anchor="middle" x="260.54" y="-3.05" font-family="Helvetica,sans-Serif" font-size="16.00" fill="white">NIL</text>
</g>
<!-- n3&#45;&gt;nil2 -->
<g id="edge3" class="edge">
<title>n3&#45;&gt;nil2</title>
<path fill="none" stroke="black" d="M210.14,-60.92C220.22,-50.85 233.47,-37.59 243.79,-27.27"/>
<polygon fill="black" stroke="black" points="245.96,-30.05 250.56,-20.5 241.01,-25.1 245.96,-30.05"/>
</g>
<!-- nil3 -->
<g id="node9" class="node">
<title>nil3</title>
<polygon fill="black" stroke="black" points="342.66,-68 342.66,-86 371.46,-86 371.46,-68 342.66,-68"/>
<text xml:space="preserve" text-anchor="middle" x="357.54" y="-70.05" font-family="Helvetica,sans-Serif" font-size="16.00" fill="white">NIL</text>
</g>
<!-- n4&#45;&gt;nil3 -->
<g id="edge6" class="edge">
<title>n4&#45;&gt;nil3</title>
<path fill="none" stroke="black" d="M361.45,-134.37C360.57,-122.97 359.47,-108.9 358.59,-97.66"/>
<polygon fill="black" stroke="black" points="362.11,-97.69 357.84,-87.99 355.13,-98.23 362.11,-97.69"/>
</g>
<!-- nil4 -->
<g id="node10" class="node">
<title>nil4</title>
<polygon fill="black" stroke="black" points="476.66,-68 476.66,-86 505.46,-86 505.46,-68 476.66,-68"/>
<text xml:space="preserve" text-anchor="middle" x="491.54" y="-70.05" font-family="Helvetica,sans-Serif" font-size="16.00" fill="white">NIL</text>
</g>
<!-- n4&#45;&gt;nil4 -->
<g id="edge7" class="edge">
<title>n4&#45;&gt;nil4</title>
<path fill="none" stroke="black" d="M381.4,-143.97C404.02,-130.36 442.53,-107.2 467.37,-92.25"/>
<polygon fill="black" stroke="black" points="469.03,-95.34 475.79,-87.18 465.42,-89.34 469.03,-95.34"/>
</g>
<!-- nil5 -->
<g id="node12" class="node">
<title>nil5</title>
<polygon fill="black" stroke="black" points="510.66,-147 510.66,-165 539.46,-165 539.46,-147 510.66,-147"/>
<text xml:space="preserve" text-anchor="middle" x="525.54" y="-149.05" font-family="Helvetica,sans-Serif" font-size="16.00" fill="white">NIL</text>
</g>
<!-- n5&#45;&gt;nil5 -->
<g id="edge10" class="edge">
<title>n5&#45;&gt;nil5</title>
<path fill="none" stroke="black" d="M528.69,-212.96C527.96,-201.69 527.07,-187.9 526.35,-176.82"/>
<polygon fill="black" stroke="black" points="529.84,-176.65 525.7,-166.9 522.86,-177.1 529.84,-176.65"/>
</g>
<!-- nil6 -->
<g id="node13" class="node">
<title>nil6</title>
<polygon fill="black" stroke="black" points="644.66,-147 644.66,-165 673.46,-165 673.46,-147 644.66,-147"/>
<text xml:space="preserve" text-anchor="middle" x="659.54" y="-149.05" font-family="Helvetica,sans-Serif" font-size="16.00" fill="white">NIL</text>
</g>
<!-- n5&#45;&gt;nil6 -->
<g id="edge11" class="edge">
<title>n5&#45;&gt;nil6</title>
<path fill="none" stroke="black" d="M548.54,-222.97C571.34,-209.36 610.15,-186.2 635.18,-171.25"/>
<polygon fill="black" stroke="black" points="636.89,-174.31 643.68,-166.18 633.3,-168.3 636.89,-174.31"/>
</g>
</g>
</svg>
