<?xml version="1.0" encoding="UTF-8" standalone="no"?>
<!DOCTYPE svg PUBLIC "-//W3C//DTD SVG 1.1//EN"
 "http://www.w3.org/Graphics/SVG/1.1/DTD/svg11.dtd">
<!-- Generated by graphviz version 14.1.1 (20251213.1925)
 -->
<!-- Title: G Pages: 1 -->
<svg width="873pt" height="423pt"
 viewBox="0.00 0.00 873.00 423.00" xmlns="http://www.w3.org/2000/svg" xmlns:xlink="http://www.w3.org/1999/xlink">
<g id="graph0" class="graph" transform="scale(1 1) rotate(0) translate(4 419)">
<title>G</title>
<polygon fill="white" stroke="none" points="-4,4 -4,-419 868.58,-419 868.58,4 -4,4"/>
<!-- n0 -->
<g id="node1" class="node">
<title>n0</title>
<ellipse fill="black" stroke="black" cx="527.77" cy="-393" rx="21.6" ry="21.6"/>
<text xml:space="preserve" text-anchor="middle" x="527.77" y="-382.57" font-family="Helvetica,sans-Serif" font-size="24.00" fill="white">83</text>
</g>
<!-- n1 -->
<g id="node2" class="node">
<title>n1</title>
<ellipse fill="black" stroke="black" cx="438.77" cy="-314" rx="21.6" ry="21.6"/>
<text xml:space="preserve" text-anchor="middle" x="438.77" y="-303.57" font-family="Helvetica,sans-Serif" font-size="24.00" fill="white">40</text>
</g>
<!-- n0&#45;&gt;n1 -->
<g id="edge19" class="edge">
<title>n0&#45;&gt;n1</title>
<path fill="none" stroke="black" d="M511.86,-378.23C498.4,-366.59 478.89,-349.71 463.41,-336.32"/>
<polygon fill="black" stroke="black" points="465.84,-333.79 455.99,-329.9 461.26,-339.09 465.84,-333.79"/>
</g>
<!-- n10 -->
<g id="node21" class="node">
<title>n10</title>
<ellipse fill="black" stroke="black" cx="600.77" cy="-314" rx="21.6" ry="21.6"/>
<text xml:space="preserve" text-anchor="middle" x="600.77" y="-303.57" font-family="Helvetica,sans-Serif" font-size="24.00" fill="white">87</text>
</g>
<!-- n0&#45;&gt;n10 -->
<g id="edge28" class="edge">
<title>n0&#45;&gt;n10</title>
<path fill="none" stroke="black" d="M542.19,-376.79C552.52,-365.89 566.63,-351.01 578.42,-338.58"/>
<polygon fill="black" stroke="black" points="580.74,-341.21 585.08,-331.54 575.66,-336.39 580.74,-341.21"/>
</g>
<!-- n2 -->
<g id="node3" class="node">
<title>n2</title>
<ellipse fill="red" stroke="black" cx="231.77" cy="-235" rx="21.6" ry="21.6"/>
<text xml:space="preserve" text-anchor="middle" x="231.77" y="-224.57" font-family="Helvetica,sans-Serif" font-size="24.00" fill="white">39</text>
</g>
<!-- n1&#45;&gt;n2 -->
<g id="edge9" class="edge">
<title>n1&#45;&gt;n2</title>
<path fill="none" stroke="black" d="M418.54,-305.48C382.22,-291.96 305.71,-263.5 262.74,-247.52"/>
<polygon fill="black" stroke="black" points="264.09,-244.29 253.49,-244.08 261.65,-250.85 264.09,-244.29"/>
</g>
<!-- n6 -->
<g id="node12" class="node">
<title>n6</title>
<ellipse fill="red" stroke="black" cx="438.77" cy="-235" rx="21.6" ry="21.6"/>
<text xml:space="preserve" text-anchor="middle" x="438.77" y="-224.57" font-family="Helvetica,sans-Serif" font-size="24.00" fill="white">52</text>
</g>
<!-- n1&#45;&gt;n6 -->
<g id="edge18" class="edge">
<title>n1&#45;&gt;n6</title>
<path fill="none" stroke="black" d="M438.77,-291.96C438.77,-284.66 438.77,-276.3 438.77,-268.3"/>
<polygon fill="black" stroke="black" points="442.27,-268.53 438.77,-258.53 435.27,-268.53 442.27,-268.53"/>
</g>
<!-- n3 -->
<g id="node4" class="node">
<title>n3</title>
<ellipse fill="black" stroke="black" cx="105.77" cy="-156" rx="21.6" ry="21.6"/>
<text xml:space="preserve" text-anchor="middle" x="105.77" y="-145.57" font-family="Helvetica,sans-Serif" font-size="24.00" fill="white">3</text>
</g>
<!-- n2&#45;&gt;n3 -->
<g id="edge5" class="edge">
<title>n2&#45;&gt;n3</title>
<path fill="none" stroke="black" d="M213.45,-222.8C192.54,-210.03 158.12,-188.99 133.83,-174.15"/>
<polygon fill="black" stroke="black" points="135.76,-171.23 125.4,-169 132.11,-177.2 135.76,-171.23"/>
</g>
<!-- n5 -->
<g id="node9" class="node">
<title>n5</title>
<ellipse fill="black" stroke="black" cx="231.77" cy="-156" rx="21.6" ry="21.6"/>
<text xml:space="preserve" text-anchor="middle" x="231.77" y="-145.57" font-family="Helvetica,sans-Serif" font-size="24.00" fill="white">39</text>
</g>
<!-- n2&#45;&gt;n5 -->
<g id="edge8" class="edge">
<title>n2&#45;&gt;n5</title>
<path fill="none" stroke="black" d="M231.77,-212.96C231.77,-205.66 231.77,-197.3 231.77,-189.3"/>
<polygon fill="black" stroke="black" points="235.27,-189.53 231.77,-179.53 228.27,-189.53 235.27,-189.53"/>
</g>
<!-- nil0 -->
<g id="node5" class="node">
<title>nil0</title>
<polygon fill="black" stroke="black" points="8.37,-68 8.37,-86 37.17,-86 37.17,-68 8.37,-68"/>
<text xml:space="preserve" text-anchor="middle" x="23.24" y="-70.05" font-family="Helvetica,sans-Serif" font-size="16.00" fill="white">NIL</text>
</g>
<!-- n3&#45;&gt;nil0 -->
<g id="edge1" class="edge">
<title>n3&#45;&gt;nil0</title>
<path fill="none" stroke="black" d="M90.16,-140.52C75.85,-127.24 54.7,-107.62 39.92,-93.91"/>
<polygon fill="black" stroke="black" points="42.48,-91.51 32.77,-87.28 37.72,-96.65 42.48,-91.51"/>
</g>
<!-- n4 -->
<g id="node6" class="node">
<title>n4</title>
<ellipse fill="red" stroke="black" cx="105.77" cy="-77" rx="21.6" ry="21.6"/>
<text xml:space="preserve" text-anchor="middle" x="105.77" y="-66.58" font-family="Helvetica,sans-Serif" font-size="24.00" fill="white">27</text>
</g>
<!-- n3&#45;&gt;n4 -->
<g id="edge4" class="edge">
<title>n3&#45;&gt;n4</title>
<path fill="none" stroke="black" d="M105.77,-133.96C105.77,-126.66 105.77,-118.3 105.77,-110.3"/>
<polygon fill="black" stroke="black" points="109.27,-110.53 105.77,-100.53 102.27,-110.53 109.27,-110.53"/>
</g>
<!-- nil1 -->
<g id="node7" class="node">
<title>nil1</title>
<polygon fill="black" stroke="black" points="54.37,-1 54.37,-19 83.17,-19 83.17,-1 54.37,-1"/>
<text xml:space="preserve" text-anchor="middle" x="69.24" y="-3.05" font-family="Helvetica,sans-Serif" font-size="16.00" fill="white">NIL</text>
</g>
<!-- n4&#45;&gt;nil1 -->
<g id="edge2" class="edge">
<title>n4&#45;&gt;nil1</title>
<path fill="none" stroke="black" d="M95.46,-57.89C90.35,-48.92 84.2,-38.11 79.09,-29.14"/>
<polygon fill="black" stroke="black" points="82.25,-27.61 74.26,-20.66 76.17,-31.08 82.25,-27.61"/>
</g>
<!-- nil2 -->
<g id="node8" class="node">
<title>nil2</title>
<polygon fill="black" stroke="black" points="127.37,-1 127.37,-19 156.17,-19 156.17,-1 127.37,-1"/>
<text xml:space="preserve" text-anchor="middle" x="142.24" y="-3.05" font-family="Helvetica,sans-Serif" font-size="16.00" fill="white">NIL</text>
</g>
<!-- n4&#45;&gt;nil2 -->
<g id="edge3" class="edge">
<title>n4&#45;&gt;nil2</title>
<path fill="none" stroke="black" d="M115.99,-57.55C120.9,-48.68 126.77,-38.09 131.66,-29.25"/>
<polygon fill="black" stroke="black" points="134.68,-31.02 136.47,-20.57 128.56,-27.62 134.68,-31.02"/>
</g>
<!-- nil3 -->
<g id="node10" class="node">
<title>nil3</title>
<polygon fill="black" stroke="black" points="175.37,-68 175.37,-86 204.17,-86 204.17,-68 175.37,-68"/>
<text xml:space="preserve" text-anchor="middle" x="190.24" y="-70.05" font-family="Helvetica,sans-Serif" font-size="16.00" fill="white">NIL</text>
</g>
<!-- n5&#45;&gt;nil3 -->
<g id="edge6" class="edge">
<title>n5&#45;&gt;nil3</title>
<path fill="none" stroke="black" d="M221.81,-136.75C215.13,-124.49 206.35,-108.41 199.68,-96.17"/>
<polygon fill="black" stroke="black" points="202.84,-94.66 194.98,-87.56 196.7,-98.01 202.84,-94.66"/>
</g>
<!-- nil4 -->
<g id="node11" class="node">
<title>nil4</title>
<polygon fill="black" stroke="black" points="248.37,-68 248.37,-86 277.17,-86 277.17,-68 248.37,-68"/>
<text xml:space="preserve" text-anchor="middle" x="263.24" y="-70.05" font-family="Helvetica,sans-Serif" font-size="16.00" fill="white">NIL</text>
</g>
<!-- n5&#45;&gt;nil4 -->
<g id="edge7" class="edge">
<title>n5&#45;&gt;nil4</title>
<path fill="none" stroke="black" d="M239.59,-135.57C244.38,-123.67 250.48,-108.53 255.22,-96.76"/>
<polygon fill="black" stroke="black" points="258.35,-98.35 258.84,-87.76 251.86,-95.73 258.35,-98.35"/>
</g>
<!-- n7 -->
<g id="node13" class="node">
<title>n7</title>
<ellipse fill="black" stroke="black" cx="397.77" cy="-156" rx="21.6" ry="21.6"/>
<text xml:space="preserve" text-anchor="middle" x="397.77" y="-145.57" font-family="Helvetica,sans-Serif" font-size="24.00" fill="white">49</text>
</g>
<!-- n6&#45;&gt;n7 -->
<g id="edge12" class="edge">
<title>n6&#45;&gt;n7</title>
<path fill="none" stroke="black" d="M428.84,-215.36C424.06,-206.38 418.22,-195.4 412.89,-185.41"/>
<polygon fill="black" stroke="black" points="416.1,-183.99 408.31,-176.8 409.92,-187.28 416.1,-183.99"/>
</g>
<!-- n8 -->
<g id="node16" class="node">
<title>n8</title>
<ellipse fill="black" stroke="black" cx="491.77" cy="-156" rx="21.6" ry="21.6"/>
<text xml:space="preserve" text-anchor="middle" x="491.77" y="-145.57" font-family="Helvetica,sans-Serif" font-size="24.00" fill="white">63</text>
</g>
<!-- n6&#45;&gt;n8 -->
<g id="edge17" class="edge">
<title>n6&#45;&gt;n8</title>
<path fill="none" stroke="black" d="M450.79,-216.53C457.44,-206.88 465.83,-194.69 473.28,-183.86"/>
<polygon fill="black" stroke="black" points="476.14,-185.87 478.93,-175.65 470.38,-181.9 476.14,-185.87"/>
</g>
<!-- nil5 -->
<g id="node14" class="node">
<title>nil5</title>
<polygon fill="black" stroke="black" points="321.37,-68 321.37,-86 350.17,-86 350.17,-68 321.37,-68"/>
<text xml:space="preserve" text-anchor="middle" x="336.24" y="-70.05" font-family="Helvetica,sans-Serif" font-size="16.00" fill="white">NIL</text>
</g>
<!-- n7&#45;&gt;nil5 -->
<g id="edge10" class="edge">
<title>n7&#45;&gt;nil5</title>
<path fill="none" stroke="black" d="M384.62,-138.67C374.31,-125.87 360,-108.1 349.54,-95.1"/>
<polygon fill="black" stroke="black" points="352.36,-93.02 343.36,-87.43 346.91,-97.41 352.36,-93.02"/>
</g>
<!-- nil6 -->
<g id="node15" class="node">
<title>nil6</title>
<polygon fill="black" stroke="black" points="393.37,-68 393.37,-86 422.17,-86 422.17,-68 393.37,-68"/>
<text xml:space="preserve" text-anchor="middle" x="408.24" y="-70.05" font-family="Helvetica,sans-Serif" font-size="16.00" fill="white">NIL</text>
</g>
<!-- n7&#45;&gt;nil6 -->
<g id="edge11" class="edge">
<title>n7&#45;&gt;nil6</title>
<path fill="none" stroke="black" d="M400.45,-134.37C401.93,-122.97 403.76,-108.9 405.21,-97.66"/>
<polygon fill="black" stroke="black" points="408.66,-98.35 406.47,-87.98 401.71,-97.45 408.66,-98.35"/>
</g>
<!-- n9 -->
<g id="node17" class="node">
<title>n9</title>
<ellipse fill="red" stroke="black" cx="491.77" cy="-77" rx="21.6" ry="21.6"/>
<text xml:space="preserve" text-anchor="middle" x="491.77" y="-66.58" font-family="Helvetica,sans-Serif" font-size="24.00" fill="white">56</text>
</g>
<!-- n8&#45;&gt;n9 -->
<g id="edge15" class="edge">
<title>n8&#45;&gt;n9</title>
<path fill="none" stroke="black" d="M491.77,-133.96C491.77,-126.66 491.77,-118.3 491.77,-110.3"/>
<polygon fill="black" stroke="black" points="495.27,-110.53 491.77,-100.53 488.27,-110.53 495.27,-110.53"/>
</g>
<!-- nil9 -->
<g id="node20" class="node">
<title>nil9</title>
<polygon fill="black" stroke="black" points="561.37,-68 561.37,-86 590.17,-86 590.17,-68 561.37,-68"/>
<text xml:space="preserve" text-anchor="middle" x="576.24" y="-70.05" font-family="Helvetica,sans-Serif" font-size="16.00" fill="white">NIL</text>
</g>
<!-- n8&#45;&gt;nil9 -->
<g id="edge16" class="edge">
<title>n8&#45;&gt;nil9</title>
<path fill="none" stroke="black" d="M507.18,-140.88C521.61,-127.65 543.16,-107.89 558.25,-94.06"/>
<polygon fill="black" stroke="black" points="560.56,-96.69 565.56,-87.35 555.83,-91.53 560.56,-96.69"/>
</g>
<!-- nil7 -->
<g id="node18" class="node">
<title>nil7</title>
<polygon fill="black" stroke="black" points="440.37,-1 440.37,-19 469.17,-19 469.17,-1 440.37,-1"/>
<text xml:space="preserve" text-anchor="middle" x="455.24" y="-3.05" font-family="Helvetica,sans-Serif" font-size="16.00" fill="white">NIL</text>
</g>
<!-- n9&#45;&gt;nil7 -->
<g id="edge13" class="edge">
<title>n9&#45;&gt;nil7</title>
<path fill="none" stroke="black" d="M481.46,-57.89C476.35,-48.92 470.2,-38.11 465.09,-29.14"/>
<polygon fill="black" stroke="black" points="468.25,-27.61 460.26,-20.66 462.17,-31.08 468.25,-27.61"/>
</g>
<!-- nil8 -->
<g id="node19" class="node">
<title>nil8</title>
<polygon fill="black" stroke="black" points="513.37,-1 513.37,-19 542.17,-19 542.17,-1 513.37,-1"/>
<text xml:space="preserve" text-anchor="middle" x="528.24" y="-3.05" font-family="Helvetica,sans-Serif" font-size="16.00" fill="white">NIL</text>
</g>
<!-- n9&#45;&gt;nil8 -->
<g id="edge14" class="edge">
<title>n9&#45;&gt;nil8</title>
<path fill="none" stroke="black" d="M501.99,-57.55C506.9,-48.68 512.77,-38.09 517.66,-29.25"/>
<polygon fill="black" stroke="black" points="520.68,-31.02 522.47,-20.57 514.56,-27.62 520.68,-31.02"/>
</g>
<!-- n11 -->
<g id="node22" class="node">
<title>n11</title>
<ellipse fill="black" stroke="black" cx="600.77" cy="-235" rx="21.6" ry="21.6"/>
<text xml:space="preserve" text-anchor="middle" x="600.77" y="-224.57" font-family="Helvetica,sans-Serif" font-size="24.00" fill="white">83</text>
</g>
<!-- n10&#45;&gt;n11 -->
<g id="edge22" class="edge">
<title>n10&#45;&gt;n11</title>
<path fill="none" stroke="black" d="M600.77,-291.96C600.77,-284.66 600.77,-276.3 600.77,-268.3"/>
<polygon fill="black" stroke="black" points="604.27,-268.53 600.77,-258.53 597.27,-268.53 604.27,-268.53"/>
</g>
<!-- n12 -->
<g id="node25" class="node">
<title>n12</title>
<ellipse fill="black" stroke="black" cx="721.77" cy="-235" rx="21.6" ry="21.6"/>
<text xml:space="preserve" text-anchor="middle" x="721.77" y="-224.57" font-family="Helvetica,sans-Serif" font-size="24.00" fill="white">91</text>
</g>
<!-- n10&#45;&gt;n12 -->
<g id="edge27" class="edge">
<title>n10&#45;&gt;n12</title>
<path fill="none" stroke="black" d="M618.88,-301.47C638.87,-288.75 671.25,-268.15 694.35,-253.45"/>
<polygon fill="black" stroke="black" points="696.09,-256.49 702.65,-248.17 692.33,-250.58 696.09,-256.49"/>
</g>
<!-- nil10 -->
<g id="node23" class="node">
<title>nil10</title>
<polygon fill="black" stroke="black" points="561.37,-147 561.37,-165 590.17,-165 590.17,-147 561.37,-147"/>
<text xml:space="preserve" text-anchor="middle" x="576.24" y="-149.05" font-family="Helvetica,sans-Serif" font-size="16.00" fill="white">NIL</text>
</g>
<!-- n11&#45;&gt;nil10 -->
<g id="edge20" class="edge">
<title>n11&#45;&gt;nil10</title>
<path fill="none" stroke="black" d="M594.33,-214.17C590.51,-202.4 585.69,-187.55 581.92,-175.94"/>
<polygon fill="black" stroke="black" points="585.34,-175.14 578.92,-166.71 578.68,-177.3 585.34,-175.14"/>
</g>
<!-- nil11 -->
<g id="node24" class="node">
<title>nil11</title>
<polygon fill="black" stroke="black" points="634.37,-147 634.37,-165 663.17,-165 663.17,-147 634.37,-147"/>
<text xml:space="preserve" text-anchor="middle" x="649.24" y="-149.05" font-family="Helvetica,sans-Serif" font-size="16.00" fill="white">NIL</text>
</g>
<!-- n11&#45;&gt;nil11 -->
<g id="edge21" class="edge">
<title>n11&#45;&gt;nil11</title>
<path fill="none" stroke="black" d="M611.9,-216.14C619.61,-203.77 629.84,-187.36 637.57,-174.97"/>
<polygon fill="black" stroke="black" points="640.47,-176.94 642.79,-166.6 634.52,-173.23 640.47,-176.94"/>
</g>
<!-- nil12 -->
<g id="node26" class="node">
<title>nil12</title>
<polygon fill="black" stroke="black" points="707.37,-147 707.37,-165 736.17,-165 736.17,-147 707.37,-147"/>
<text xml:space="preserve" text-anchor="middle" x="722.24" y="-149.05" font-family="Helvetica,sans-Serif" font-size="16.00" fill="white">NIL</text>
</g>
<!-- n12&#45;&gt;nil12 -->
<g id="edge23" class="edge">
<title>n12&#45;&gt;nil12</title>
<path fill="none" stroke="black" d="M721.77,-212.96C721.77,-201.69 721.77,-187.9 721.77,-176.82"/>
<polygon fill="black" stroke="black" points="725.27,-176.9 721.77,-166.9 718.27,-176.9 725.27,-176.9"/>
</g>
<!-- n13 -->
<g id="node27" class="node">
<title>n13</title>
<ellipse fill="red" stroke="black" cx="804.77" cy="-156" rx="21.6" ry="21.6"/>
<text xml:space="preserve" text-anchor="middle" x="804.77" y="-145.57" font-family="Helvetica,sans-Serif" font-size="24.00" fill="white">94</text>
</g>
<!-- n12&#45;&gt;n13 -->
<g id="edge26" class="edge">
<title>n12&#45;&gt;n13</title>
<path fill="none" stroke="black" d="M737.38,-219.52C749.67,-208.12 767,-192.04 781.01,-179.04"/>
<polygon fill="black" stroke="black" points="783.17,-181.81 788.12,-172.45 778.41,-176.68 783.17,-181.81"/>
</g>
<!-- nil13 -->
<g id="node28" class="node">
<title>nil13</title>
<polygon fill="black" stroke="black" points="755.37,-68 755.37,-86 784.17,-86 784.17,-68 755.37,-68"/>
<text xml:space="preserve" text-anchor="middle" x="770.24" y="-70.05" font-family="Helvetica,sans-Serif" font-size="16.00" fill="white">NIL</text>
</g>
<!-- n13&#45;&gt;nil13 -->
<g id="edge24" class="edge">
<title>n13&#45;&gt;nil13</title>
<path fill="none" stroke="black" d="M796.12,-135.97C790.66,-123.95 783.63,-108.5 778.21,-96.58"/>
<polygon fill="black" stroke="black" points="781.56,-95.48 774.24,-87.83 775.19,-98.38 781.56,-95.48"/>
</g>
<!-- nil14 -->
<g id="node29" class="node">
<title>nil14</title>
<polygon fill="black" stroke="black" points="827.37,-68 827.37,-86 856.17,-86 856.17,-68 827.37,-68"/>
<text xml:space="preserve" text-anchor="middle" x="842.24" y="-70.05" font-family="Helvetica,sans-Serif" font-size="16.00" fill="white">NIL</text>
</g>
<!-- n13&#45;&gt;nil14 -->
<g id="edge25" class="edge">
<title>n13&#45;&gt;nil14</title>
<path fill="none" stroke="black" d="M813.91,-135.97C819.69,-123.95 827.11,-108.5 832.84,-96.58"/>
<polygon fill="black" stroke="black" points="835.88,-98.34 837.05,-87.81 829.57,-95.31 835.88,-98.34"/>
</g>
</g>
</svg>
