<?xml version="1.0" encoding="UTF-8" standalone="no"?>
<!DOCTYPE svg PUBLIC "-//W3C//DTD SVG 1.1//EN"
 "http://www.w3.org/Graphics/SVG/1.1/DTD/svg11.dtd">
<!-- Generated by graphviz version 14.1.1 (20251213.1925)
 -->
<!-- Title: G Pages: 1 -->
<svg width="708pt" height="344pt"
 viewBox="0.00 0.00 708.00 344.00" xmlns="http://www.w3.org/2000/svg" xmlns:xlink="http://www.w3.org/1999/xlink">
<g id="graph0" class="graph" transform="scale(1 1) rotate(0) translate(4 339.8)">
<title>G</title>
<polygon fill="white" stroke="none" points="-4,4 -4,-339.8 703.58,-339.8 703.58,4 -4,4"/>
<!-- 12 -->
<g id="node1" class="node">
<title>12</title>
<ellipse fill="red" stroke="black" cx="312.89" cy="-235" rx="21.6" ry="21.6"/>
<text xml:space="preserve" text-anchor="middle" x="312.89" y="-224.57" font-family="Helvetica,sans-Serif" font-size="24.00" fill="white">12</text>
</g>
<!-- 0 -->
<g id="node15" class="node">
<title>0</title>
<ellipse fill="black" stroke="black" cx="164.89" cy="-156" rx="21.6" ry="21.6"/>
<text xml:space="preserve" text-anchor="middle" x="164.89" y="-145.57" font-family="Helvetica,sans-Serif" font-size="24.00" fill="white">0</text>
</g>
<!-- 12&#45;&gt;0 -->
<g id="edge2" class="edge">
<title>12&#45;&gt;0</title>
<path fill="none" stroke="black" d="M293.84,-224.09C268.53,-210.92 223.57,-187.53 194,-172.14"/>
<polygon fill="black" stroke="black" points="195.69,-169.08 185.2,-167.57 192.46,-175.29 195.69,-169.08"/>
</g>
<!-- 18 -->
<g id="node16" class="node">
<title>18</title>
<ellipse fill="black" stroke="black" cx="312.89" cy="-156" rx="21.6" ry="21.6"/>
<text xml:space="preserve" text-anchor="middle" x="312.89" y="-145.57" font-family="Helvetica,sans-Serif" font-size="24.00" fill="white">18</text>
</g>
<!-- 12&#45;&gt;18 -->
<g id="edge7" class="edge">
<title>12&#45;&gt;18</title>
<path fill="none" stroke="black" d="M312.89,-212.96C312.89,-205.66 312.89,-197.3 312.89,-189.3"/>
<polygon fill="black" stroke="black" points="316.39,-189.53 312.89,-179.53 309.39,-189.53 316.39,-189.53"/>
</g>
<!-- 1 -->
<g id="node2" class="node">
<title>1</title>
<ellipse fill="red" stroke="black" cx="67.89" cy="-77" rx="21.6" ry="21.6"/>
<text xml:space="preserve" text-anchor="middle" x="67.89" y="-66.58" font-family="Helvetica,sans-Serif" font-size="24.00" fill="white">1</text>
</g>
<!-- nil1 -->
<g id="node6" class="node">
<title>nil1</title>
<polygon fill="black" stroke="black" points="11.49,-1 11.49,-19 40.29,-19 40.29,-1 11.49,-1"/>
<text xml:space="preserve" text-anchor="middle" x="26.36" y="-3.05" font-family="Helvetica,sans-Serif" font-size="16.00" fill="white">NIL</text>
</g>
<!-- 1&#45;&gt;nil1 -->
<g id="edge5" class="edge">
<title>1&#45;&gt;nil1</title>
<path fill="none" stroke="black" d="M56.41,-58.24C50.54,-49.16 43.42,-38.14 37.53,-29.02"/>
<polygon fill="black" stroke="black" points="40.52,-27.2 32.16,-20.7 34.64,-31 40.52,-27.2"/>
</g>
<!-- nil2 -->
<g id="node7" class="node">
<title>nil2</title>
<polygon fill="black" stroke="black" points="96.49,-1 96.49,-19 125.29,-19 125.29,-1 96.49,-1"/>
<text xml:space="preserve" text-anchor="middle" x="111.36" y="-3.05" font-family="Helvetica,sans-Serif" font-size="16.00" fill="white">NIL</text>
</g>
<!-- 1&#45;&gt;nil2 -->
<g id="edge6" class="edge">
<title>1&#45;&gt;nil2</title>
<path fill="none" stroke="black" d="M79.41,-58.58C85.56,-49.29 93.1,-37.89 99.26,-28.58"/>
<polygon fill="black" stroke="black" points="102.05,-30.71 104.65,-20.43 96.21,-26.84 102.05,-30.71"/>
</g>
<!-- 33 -->
<g id="node3" class="node">
<title>33</title>
<ellipse fill="red" stroke="black" cx="438.89" cy="-156" rx="21.6" ry="21.6"/>
<text xml:space="preserve" text-anchor="middle" x="438.89" y="-145.57" font-family="Helvetica,sans-Serif" font-size="24.00" fill="white">33</text>
</g>
<!-- nil5 -->
<g id="node10" class="node">
<title>nil5</title>
<polygon fill="black" stroke="black" points="404.49,-68 404.49,-86 433.29,-86 433.29,-68 404.49,-68"/>
<text xml:space="preserve" text-anchor="middle" x="419.36" y="-70.05" font-family="Helvetica,sans-Serif" font-size="16.00" fill="white">NIL</text>
</g>
<!-- 33&#45;&gt;nil5 -->
<g id="edge12" class="edge">
<title>33&#45;&gt;nil5</title>
<path fill="none" stroke="black" d="M433.63,-134.77C430.61,-123.12 426.83,-108.57 423.85,-97.11"/>
<polygon fill="black" stroke="black" points="427.29,-96.44 421.39,-87.65 420.52,-98.2 427.29,-96.44"/>
</g>
<!-- nil6 -->
<g id="node11" class="node">
<title>nil6</title>
<polygon fill="black" stroke="black" points="489.49,-68 489.49,-86 518.29,-86 518.29,-68 489.49,-68"/>
<text xml:space="preserve" text-anchor="middle" x="504.36" y="-70.05" font-family="Helvetica,sans-Serif" font-size="16.00" fill="white">NIL</text>
</g>
<!-- 33&#45;&gt;nil6 -->
<g id="edge13" class="edge">
<title>33&#45;&gt;nil6</title>
<path fill="none" stroke="black" d="M452.35,-139.05C463.25,-126.14 478.54,-108.02 489.64,-94.88"/>
<polygon fill="black" stroke="black" points="492.1,-97.39 495.88,-87.49 486.75,-92.87 492.1,-97.39"/>
</g>
<!-- 51 -->
<g id="node4" class="node">
<title>51</title>
<ellipse fill="red" stroke="black" cx="588.89" cy="-156" rx="21.6" ry="21.6"/>
<text xml:space="preserve" text-anchor="middle" x="588.89" y="-145.57" font-family="Helvetica,sans-Serif" font-size="24.00" fill="white">51</text>
</g>
<!-- nil7 -->
<g id="node12" class="node">
<title>nil7</title>
<polygon fill="black" stroke="black" points="574.49,-68 574.49,-86 603.29,-86 603.29,-68 574.49,-68"/>
<text xml:space="preserve" text-anchor="middle" x="589.36" y="-70.05" font-family="Helvetica,sans-Serif" font-size="16.00" fill="white">NIL</text>
</g>
<!-- 51&#45;&gt;nil7 -->
<g id="edge15" class="edge">
<title>51&#45;&gt;nil7</title>
<path fill="none" stroke="black" d="M588.89,-133.96C588.89,-122.69 588.89,-108.9 588.89,-97.82"/>
<polygon fill="black" stroke="black" points="592.39,-97.9 588.89,-87.9 585.39,-97.9 592.39,-97.9"/>
</g>
<!-- nil8 -->
<g id="node13" class="node">
<title>nil8</title>
<polygon fill="black" stroke="black" points="659.49,-68 659.49,-86 688.29,-86 688.29,-68 659.49,-68"/>
<text xml:space="preserve" text-anchor="middle" x="674.36" y="-70.05" font-family="Helvetica,sans-Serif" font-size="16.00" fill="white">NIL</text>
</g>
<!-- 51&#45;&gt;nil8 -->
<g id="edge16" class="edge">
<title>51&#45;&gt;nil8</title>
<path fill="none" stroke="black" d="M604.48,-140.88C619.22,-127.52 641.3,-107.52 656.59,-93.67"/>
<polygon fill="black" stroke="black" points="658.51,-96.66 663.57,-87.35 653.81,-91.47 658.51,-96.66"/>
</g>
<!-- nil0 -->
<g id="node5" class="node">
<title>nil0</title>
<polygon fill="black" stroke="black" points="150.49,-68 150.49,-86 179.29,-86 179.29,-68 150.49,-68"/>
<text xml:space="preserve" text-anchor="middle" x="165.36" y="-70.05" font-family="Helvetica,sans-Serif" font-size="16.00" fill="white">NIL</text>
</g>
<!-- nil3 -->
<g id="node8" class="node">
<title>nil3</title>
<polygon fill="black" stroke="black" points="235.49,-68 235.49,-86 264.29,-86 264.29,-68 235.49,-68"/>
<text xml:space="preserve" text-anchor="middle" x="250.36" y="-70.05" font-family="Helvetica,sans-Serif" font-size="16.00" fill="white">NIL</text>
</g>
<!-- nil4 -->
<g id="node9" class="node">
<title>nil4</title>
<polygon fill="black" stroke="black" points="320.49,-68 320.49,-86 349.29,-86 349.29,-68 320.49,-68"/>
<text xml:space="preserve" text-anchor="middle" x="335.36" y="-70.05" font-family="Helvetica,sans-Serif" font-size="16.00" fill="white">NIL</text>
</g>
<!-- 30 -->
<g id="node14" class="node">
<title>30</title>
<ellipse fill="black" stroke="black" cx="366.89" cy="-314" rx="21.6" ry="21.6"/>
<text xml:space="preserve" text-anchor="middle" x="366.89" y="-303.57" font-family="Helvetica,sans-Serif" font-size="24.00" fill="white">30</text>
</g>
<!-- 30&#45;&gt;12 -->
<g id="edge1" class="edge">
<title>30&#45;&gt;12</title>
<path fill="none" stroke="black" d="M354.9,-295.91C348.03,-286.11 339.25,-273.6 331.5,-262.54"/>
<polygon fill="black" stroke="black" points="334.5,-260.72 325.89,-254.55 328.77,-264.74 334.5,-260.72"/>
</g>
<!-- 50 -->
<g id="node17" class="node">
<title>50</title>
<ellipse fill="black" stroke="black" cx="438.89" cy="-235" rx="21.6" ry="21.6"/>
<text xml:space="preserve" text-anchor="middle" x="438.89" y="-224.57" font-family="Helvetica,sans-Serif" font-size="24.00" fill="white">50</text>
</g>
<!-- 30&#45;&gt;50 -->
<g id="edge10" class="edge">
<title>30&#45;&gt;50</title>
<path fill="none" stroke="black" d="M381.46,-297.42C391.51,-286.67 405.07,-272.17 416.48,-259.96"/>
<polygon fill="black" stroke="black" points="419.03,-262.36 423.3,-252.66 413.92,-257.58 419.03,-262.36"/>
</g>
<!-- 0&#45;&gt;1 -->
<g id="edge4" class="edge">
<title>0&#45;&gt;1</title>
<path fill="none" stroke="black" d="M148.43,-141.94C133.24,-129.88 110.46,-111.8 93,-97.94"/>
<polygon fill="black" stroke="black" points="95.62,-95.54 85.61,-92.07 91.26,-101.03 95.62,-95.54"/>
</g>
<!-- 0&#45;&gt;nil0 -->
<g id="edge3" class="edge">
<title>0&#45;&gt;nil0</title>
<path fill="none" stroke="black" d="M164.89,-133.96C164.89,-122.69 164.89,-108.9 164.89,-97.82"/>
<polygon fill="black" stroke="black" points="168.39,-97.9 164.89,-87.9 161.39,-97.9 168.39,-97.9"/>
</g>
<!-- 18&#45;&gt;nil3 -->
<g id="edge8" class="edge">
<title>18&#45;&gt;nil3</title>
<path fill="none" stroke="black" d="M299.53,-138.67C289.05,-125.87 274.51,-108.1 263.88,-95.1"/>
<polygon fill="black" stroke="black" points="266.64,-92.94 257.59,-87.42 261.22,-97.38 266.64,-92.94"/>
</g>
<!-- 18&#45;&gt;nil4 -->
<g id="edge9" class="edge">
<title>18&#45;&gt;nil4</title>
<path fill="none" stroke="black" d="M318.67,-134.77C322,-123.12 326.15,-108.57 329.43,-97.11"/>
<polygon fill="black" stroke="black" points="332.75,-98.21 332.13,-87.64 326.02,-96.29 332.75,-98.21"/>
</g>
<!-- 50&#45;&gt;33 -->
<g id="edge11" class="edge">
<title>50&#45;&gt;33</title>
<path fill="none" stroke="black" d="M438.89,-212.96C438.89,-205.66 438.89,-197.3 438.89,-189.3"/>
<polygon fill="black" stroke="black" points="442.39,-189.53 438.89,-179.53 435.39,-189.53 442.39,-189.53"/>
</g>
<!-- 50&#45;&gt;51 -->
<g id="edge14" class="edge">
<title>50&#45;&gt;51</title>
<path fill="none" stroke="black" d="M457.88,-224.25C483.69,-211 530.06,-187.2 560.14,-171.76"/>
<polygon fill="black" stroke="black" points="561.4,-175.04 568.7,-167.36 558.2,-168.82 561.4,-175.04"/>
</g>
</g>
</svg>
