<?xml version="1.0" encoding="UTF-8" standalone="no"?>
<!DOCTYPE svg PUBLIC "-//W3C//DTD SVG 1.1//EN"
 "http://www.w3.org/Graphics/SVG/1.1/DTD/svg11.dtd">
<!-- Generated by graphviz version 14.1.1 (20251213.1925)
 -->
<!-- Title: G Pages: 1 -->
<svg width="378pt" height="185pt"
 viewBox="0.00 0.00 378.00 185.00" xmlns="http://www.w3.org/2000/svg" xmlns:xlink="http://www.w3.org/1999/xlink">
<g id="graph0" class="graph" transform="scale(1 1) rotate(0) translate(4 181.4)">
<title>G</title>
<polygon fill="white" stroke="none" points="-4,4 -4,-181.4 373.58,-181.4 373.58,4 -4,4"/>
<!-- n0 -->
<g id="node1" class="node">
<title>n0</title>
<ellipse fill="black" stroke="black" cx="144.81" cy="-156" rx="21.6" ry="21.6"/>
<text xml:space="preserve" text-anchor="middle" x="144.81" y="-145.57" font-family="Helvetica,sans-Serif" font-size="24.00" fill="white">83</text>
</g>
<!-- nil0 -->
<g id="node2" class="node">
<title>nil0</title>
<polygon fill="black" stroke="black" points="35.41,-68 35.41,-86 64.21,-86 64.21,-68 35.41,-68"/>
<text xml:space="preserve" text-anchor="middle" x="50.28" y="-70.05" font-family="Helvetica,sans-Serif" font-size="16.00" fill="white">NIL</text>
</g>
<!-- n0&#45;&gt;nil0 -->
<g id="edge1" class="edge">
<title>n0&#45;&gt;nil0</title>
<path fill="none" stroke="black" d="M128.26,-141.59C111.76,-128.21 86.42,-107.67 69.03,-93.58"/>
<polygon fill="black" stroke="black" points="71.44,-91.03 61.47,-87.45 67.03,-96.47 71.44,-91.03"/>
</g>
<!-- n1 -->
<g id="node3" class="node">
<title>n1</title>
<ellipse fill="red" stroke="black" cx="238.81" cy="-77" rx="21.6" ry="21.6"/>
<text xml:space="preserve" text-anchor="middle" x="238.81" y="-66.58" font-family="Helvetica,sans-Serif" font-size="24.00" fill="white">91</text>
</g>
<!-- n0&#45;&gt;n1 -->
<g id="edge4" class="edge">
<title>n0&#45;&gt;n1</title>
<path fill="none" stroke="black" d="M161.18,-141.59C175.65,-129.74 196.98,-112.27 213.62,-98.63"/>
<polygon fill="black" stroke="black" points="215.62,-101.52 221.14,-92.48 211.18,-96.11 215.62,-101.52"/>
</g>
<!-- nil1 -->
<g id="node4" class="node">
<title>nil1</title>
<polygon fill="black" stroke="black" points="140.41,-1 140.41,-19 169.21,-19 169.21,-1 140.41,-1"/>
<text xml:space="preserve" text-anchor="middle" x="155.28" y="-3.05" font-family="Helvetica,sans-Serif" font-size="16.00" fill="white">NIL</text>
</g>
<!-- n1&#45;&gt;nil1 -->
<g id="edge2" class="edge">
<title>n1&#45;&gt;nil1</title>
<path fill="none" stroke="black" d="M222.21,-63.16C208.49,-52.54 188.96,-37.43 174.45,-26.2"/>
<polygon fill="black" stroke="black" points="177,-23.75 166.95,-20.4 172.72,-29.29 177,-23.75"/>
</g>
<!-- nil2 -->
<g id="node5" class="node">
<title>nil2</title>
<polygon fill="black" stroke="black" points="304.41,-1 304.41,-19 333.21,-19 333.21,-1 304.41,-1"/>
<text xml:space="preserve" text-anchor="middle" x="319.28" y="-3.05" font-family="Helvetica,sans-Serif" font-size="16.00" fill="white">NIL</text>
</g>
<!-- n1&#45;&gt;nil2 -->
<g id="edge3" class="edge">
<title>n1&#45;&gt;nil2</title>
<path fill="none" stroke="black" d="M255.39,-62.53C268.2,-52.12 285.97,-37.68 299.44,-26.74"/>
<polygon fill="black" stroke="black" points="301.63,-29.47 307.18,-20.45 297.22,-24.04 301.63,-29.47"/>
</g>
</g>
</svg>
