<?xml version="1.0" encoding="UTF-8" standalone="no"?>
<!DOCTYPE svg PUBLIC "-//W3C//DTD SVG 1.1//EN"
 "http://www.w3.org/Graphics/SVG/1.1/DTD/svg11.dtd">
<!-- Generated by graphviz version 14.1.1 (20251213.1925)
 -->
<!-- Title: G Pages: 1 -->
<svg width="378pt" height="185pt"
 viewBox="0.00 0.00 378.00 185.00" xmlns="http://www.w3.org/2000/svg" xmlns:xlink="http://www.w3.org/1999/xlink">
<g id="graph0" class="graph" transform="scale(1 1) rotate(0) translate(4 181.4)">
<title>G</title>
<polygon fill="white" stroke="none" points="-4,4 -4,-181.4 373.58,-181.4 373.58,4 -4,4"/>
<!-- 33 -->
<g id="node1" class="node">
<title>33</title>
<ellipse fill="red" stroke="black" cx="130.47" cy="-77" rx="21.6" ry="21.6"/>
<text xml:space="preserve" text-anchor="middle" x="130.47" y="-66.58" font-family="Helvetica,sans-Serif" font-size="24.00" fill="white">33</text>
</g>
<!-- nil1 -->
<g id="node3" class="node">
<title>nil1</title>
<polygon fill="black" stroke="black" points="36.07,-1 36.07,-19 64.87,-19 64.87,-1 36.07,-1"/>
<text xml:space="preserve" text-anchor="middle" x="50.95" y="-3.05" font-family="Helvetica,sans-Serif" font-size="16.00" fill="white">NIL</text>
</g>
<!-- 33&#45;&gt;nil1 -->
<g id="edge3" class="edge">
<title>33&#45;&gt;nil1</title>
<path fill="none" stroke="black" d="M113.89,-62.53C101.08,-52.12 83.31,-37.68 69.84,-26.74"/>
<polygon fill="black" stroke="black" points="72.06,-24.04 62.1,-20.45 67.65,-29.47 72.06,-24.04"/>
</g>
<!-- nil2 -->
<g id="node4" class="node">
<title>nil2</title>
<polygon fill="black" stroke="black" points="200.07,-1 200.07,-19 228.87,-19 228.87,-1 200.07,-1"/>
<text xml:space="preserve" text-anchor="middle" x="214.95" y="-3.05" font-family="Helvetica,sans-Serif" font-size="16.00" fill="white">NIL</text>
</g>
<!-- 33&#45;&gt;nil2 -->
<g id="edge4" class="edge">
<title>33&#45;&gt;nil2</title>
<path fill="none" stroke="black" d="M147.07,-63.16C160.79,-52.54 180.32,-37.43 194.83,-26.2"/>
<polygon fill="black" stroke="black" points="196.56,-29.29 202.33,-20.4 192.27,-23.75 196.56,-29.29"/>
</g>
<!-- nil0 -->
<g id="node2" class="node">
<title>nil0</title>
<polygon fill="black" stroke="black" points="305.07,-68 305.07,-86 333.87,-86 333.87,-68 305.07,-68"/>
<text xml:space="preserve" text-anchor="middle" x="319.95" y="-70.05" font-family="Helvetica,sans-Serif" font-size="16.00" fill="white">NIL</text>
</g>
<!-- 30 -->
<g id="node5" class="node">
<title>30</title>
<ellipse fill="black" stroke="black" cx="224.47" cy="-156" rx="21.6" ry="21.6"/>
<text xml:space="preserve" text-anchor="middle" x="224.47" y="-145.57" font-family="Helvetica,sans-Serif" font-size="24.00" fill="white">30</text>
</g>
<!-- 30&#45;&gt;33 -->
<g id="edge2" class="edge">
<title>30&#45;&gt;33</title>
<path fill="none" stroke="black" d="M208.1,-141.59C193.63,-129.74 172.3,-112.27 155.66,-98.63"/>
<polygon fill="black" stroke="black" points="158.1,-96.11 148.14,-92.48 153.66,-101.52 158.1,-96.11"/>
</g>
<!-- 30&#45;&gt;nil0 -->
<g id="edge1" class="edge">
<title>30&#45;&gt;nil0</title>
<path fill="none" stroke="black" d="M241.02,-141.59C257.52,-128.21 282.86,-107.67 300.25,-93.58"/>
<polygon fill="black" stroke="black" points="302.25,-96.47 307.81,-87.45 297.84,-91.03 302.25,-96.47"/>
</g>
</g>
</svg>
