<?xml version="1.0" encoding="UTF-8" standalone="no"?>
<!DOCTYPE svg PUBLIC "-//W3C//DTD SVG 1.1//EN"
 "http://www.w3.org/Graphics/SVG/1.1/DTD/svg11.dtd">
<!-- Generated by graphviz version 14.1.1 (20251213.1925)
 -->
<!-- Title: G Pages: 1 -->
<svg width="873pt" height="423pt"
 viewBox="0.00 0.00 873.00 423.00" xmlns="http://www.w3.org/2000/svg" xmlns:xlink="http://www.w3.org/1999/xlink">
<g id="graph0" class="graph" transform="scale(1 1) rotate(0) translate(4 419)">
<title>G</title>
<polygon fill="white" stroke="none" points="-4,4 -4,-419 868.58,-419 868.58,4 -4,4"/>
<!-- n0 -->
<g id="node1" class="node">
<title>n0</title>
<ellipse fill="black" stroke="black" cx="428.64" cy="-393" rx="21.6" ry="21.6"/>
<text xml:space="preserve" text-anchor="middle" x="428.64" y="-382.57" font-family="Helvetica,sans-Serif" font-size="24.00" fill="white">83</text>
</g>
<!-- n1 -->
<g id="node2" class="node">
<title>n1</title>
<ellipse fill="black" stroke="black" cx="361.64" cy="-314" rx="21.6" ry="21.6"/>
<text xml:space="preserve" text-anchor="middle" x="361.64" y="-303.57" font-family="Helvetica,sans-Serif" font-size="24.00" fill="white">39</text>
</g>
<!-- n0&#45;&gt;n1 -->
<g id="edge15" class="edge">
<title>n0&#45;&gt;n1</title>
<path fill="none" stroke="black" d="M414.76,-376.05C405.59,-365.51 393.41,-351.51 383.02,-339.57"/>
<polygon fill="black" stroke="black" points="385.7,-337.32 376.5,-332.08 380.42,-341.92 385.7,-337.32"/>
</g>
<!-- n8 -->
<g id="node17" class="node">
<title>n8</title>
<ellipse fill="black" stroke="black" cx="549.64" cy="-314" rx="21.6" ry="21.6"/>
<text xml:space="preserve" text-anchor="middle" x="549.64" y="-303.57" font-family="Helvetica,sans-Serif" font-size="24.00" fill="white">87</text>
</g>
<!-- n0&#45;&gt;n8 -->
<g id="edge22" class="edge">
<title>n0&#45;&gt;n8</title>
<path fill="none" stroke="black" d="M446.75,-380.47C466.74,-367.75 499.12,-347.15 522.22,-332.45"/>
<polygon fill="black" stroke="black" points="523.96,-335.49 530.52,-327.17 520.2,-329.58 523.96,-335.49"/>
</g>
<!-- n2 -->
<g id="node3" class="node">
<title>n2</title>
<ellipse fill="black" stroke="black" cx="137.64" cy="-235" rx="21.6" ry="21.6"/>
<text xml:space="preserve" text-anchor="middle" x="137.64" y="-224.57" font-family="Helvetica,sans-Serif" font-size="24.00" fill="white">3</text>
</g>
<!-- n1&#45;&gt;n2 -->
<g id="edge3" class="edge">
<title>n1&#45;&gt;n2</title>
<path fill="none" stroke="black" d="M341.36,-306.03C302.07,-292.52 215.3,-262.7 168.69,-246.67"/>
<polygon fill="black" stroke="black" points="170.05,-243.44 159.46,-243.5 167.78,-250.06 170.05,-243.44"/>
</g>
<!-- n3 -->
<g id="node6" class="node">
<title>n3</title>
<ellipse fill="red" stroke="black" cx="361.64" cy="-235" rx="21.6" ry="21.6"/>
<text xml:space="preserve" text-anchor="middle" x="361.64" y="-224.57" font-family="Helvetica,sans-Serif" font-size="24.00" fill="white">40</text>
</g>
<!-- n1&#45;&gt;n3 -->
<g id="edge14" class="edge">
<title>n1&#45;&gt;n3</title>
<path fill="none" stroke="black" d="M361.64,-291.96C361.64,-284.66 361.64,-276.3 361.64,-268.3"/>
<polygon fill="black" stroke="black" points="365.14,-268.53 361.64,-258.53 358.14,-268.53 365.14,-268.53"/>
</g>
<!-- nil0 -->
<g id="node4" class="node">
<title>nil0</title>
<polygon fill="black" stroke="black" points="18.24,-147 18.24,-165 47.04,-165 47.04,-147 18.24,-147"/>
<text xml:space="preserve" text-anchor="middle" x="33.11" y="-149.05" font-family="Helvetica,sans-Serif" font-size="16.00" fill="white">NIL</text>
</g>
<!-- n2&#45;&gt;nil0 -->
<g id="edge1" class="edge">
<title>n2&#45;&gt;nil0</title>
<path fill="none" stroke="black" d="M120.77,-221.63C102.32,-208.1 72.76,-186.42 53.02,-171.95"/>
<polygon fill="black" stroke="black" points="55.32,-169.29 45.19,-166.2 51.18,-174.94 55.32,-169.29"/>
</g>
<!-- nil1 -->
<g id="node5" class="node">
<title>nil1</title>
<polygon fill="black" stroke="black" points="123.24,-147 123.24,-165 152.04,-165 152.04,-147 123.24,-147"/>
<text xml:space="preserve" text-anchor="middle" x="138.11" y="-149.05" font-family="Helvetica,sans-Serif" font-size="16.00" fill="white">NIL</text>
</g>
<!-- n2&#45;&gt;nil1 -->
<g id="edge2" class="edge">
<title>n2&#45;&gt;nil1</title>
<path fill="none" stroke="black" d="M137.64,-212.96C137.64,-201.69 137.64,-187.9 137.64,-176.82"/>
<polygon fill="black" stroke="black" points="141.14,-176.9 137.64,-166.9 134.14,-176.9 141.14,-176.9"/>
</g>
<!-- n4 -->
<g id="node7" class="node">
<title>n4</title>
<ellipse fill="black" stroke="black" cx="258.64" cy="-156" rx="21.6" ry="21.6"/>
<text xml:space="preserve" text-anchor="middle" x="258.64" y="-145.57" font-family="Helvetica,sans-Serif" font-size="24.00" fill="white">39</text>
</g>
<!-- n3&#45;&gt;n4 -->
<g id="edge6" class="edge">
<title>n3&#45;&gt;n4</title>
<path fill="none" stroke="black" d="M344.63,-221.29C328.38,-209.14 303.65,-190.65 284.87,-176.61"/>
<polygon fill="black" stroke="black" points="286.99,-173.82 276.88,-170.64 282.8,-179.43 286.99,-173.82"/>
</g>
<!-- n5 -->
<g id="node10" class="node">
<title>n5</title>
<ellipse fill="black" stroke="black" cx="395.64" cy="-156" rx="21.6" ry="21.6"/>
<text xml:space="preserve" text-anchor="middle" x="395.64" y="-145.57" font-family="Helvetica,sans-Serif" font-size="24.00" fill="white">52</text>
</g>
<!-- n3&#45;&gt;n5 -->
<g id="edge13" class="edge">
<title>n3&#45;&gt;n5</title>
<path fill="none" stroke="black" d="M370.04,-214.97C373.81,-206.42 378.35,-196.15 382.55,-186.63"/>
<polygon fill="black" stroke="black" points="385.65,-188.3 386.48,-177.73 379.24,-185.47 385.65,-188.3"/>
</g>
<!-- nil2 -->
<g id="node8" class="node">
<title>nil2</title>
<polygon fill="black" stroke="black" points="143.24,-68 143.24,-86 172.04,-86 172.04,-68 143.24,-68"/>
<text xml:space="preserve" text-anchor="middle" x="158.11" y="-70.05" font-family="Helvetica,sans-Serif" font-size="16.00" fill="white">NIL</text>
</g>
<!-- n4&#45;&gt;nil2 -->
<g id="edge4" class="edge">
<title>n4&#45;&gt;nil2</title>
<path fill="none" stroke="black" d="M241.96,-142.29C224.31,-128.83 196.45,-107.59 177.63,-93.24"/>
<polygon fill="black" stroke="black" points="179.99,-90.64 169.92,-87.36 175.75,-96.21 179.99,-90.64"/>
</g>
<!-- nil3 -->
<g id="node9" class="node">
<title>nil3</title>
<polygon fill="black" stroke="black" points="248.24,-68 248.24,-86 277.04,-86 277.04,-68 248.24,-68"/>
<text xml:space="preserve" text-anchor="middle" x="263.11" y="-70.05" font-family="Helvetica,sans-Serif" font-size="16.00" fill="white">NIL</text>
</g>
<!-- n4&#45;&gt;nil3 -->
<g id="edge5" class="edge">
<title>n4&#45;&gt;nil3</title>
<path fill="none" stroke="black" d="M259.73,-133.96C260.32,-122.69 261.03,-108.9 261.61,-97.82"/>
<polygon fill="black" stroke="black" points="265.1,-98.07 262.12,-87.9 258.11,-97.7 265.1,-98.07"/>
</g>
<!-- n6 -->
<g id="node11" class="node">
<title>n6</title>
<ellipse fill="red" stroke="black" cx="390.64" cy="-77" rx="21.6" ry="21.6"/>
<text xml:space="preserve" text-anchor="middle" x="390.64" y="-66.58" font-family="Helvetica,sans-Serif" font-size="24.00" fill="white">49</text>
</g>
<!-- n5&#45;&gt;n6 -->
<g id="edge9" class="edge">
<title>n5&#45;&gt;n6</title>
<path fill="none" stroke="black" d="M394.27,-133.96C393.8,-126.66 393.26,-118.3 392.74,-110.3"/>
<polygon fill="black" stroke="black" points="396.24,-110.28 392.1,-100.53 389.26,-110.73 396.24,-110.28"/>
</g>
<!-- n7 -->
<g id="node14" class="node">
<title>n7</title>
<ellipse fill="red" stroke="black" cx="527.64" cy="-77" rx="21.6" ry="21.6"/>
<text xml:space="preserve" text-anchor="middle" x="527.64" y="-66.58" font-family="Helvetica,sans-Serif" font-size="24.00" fill="white">63</text>
</g>
<!-- n5&#45;&gt;n7 -->
<g id="edge12" class="edge">
<title>n5&#45;&gt;n7</title>
<path fill="none" stroke="black" d="M414.27,-144.13C436.38,-131.23 473.48,-109.59 499.19,-94.59"/>
<polygon fill="black" stroke="black" points="500.92,-97.64 507.79,-89.58 497.39,-91.59 500.92,-97.64"/>
</g>
<!-- nil4 -->
<g id="node12" class="node">
<title>nil4</title>
<polygon fill="black" stroke="black" points="278.24,-1 278.24,-19 307.04,-19 307.04,-1 278.24,-1"/>
<text xml:space="preserve" text-anchor="middle" x="293.11" y="-3.05" font-family="Helvetica,sans-Serif" font-size="16.00" fill="white">NIL</text>
</g>
<!-- n6&#45;&gt;nil4 -->
<g id="edge7" class="edge">
<title>n6&#45;&gt;nil4</title>
<path fill="none" stroke="black" d="M373.12,-64.38C356.83,-53.57 332.48,-37.43 314.84,-25.72"/>
<polygon fill="black" stroke="black" points="316.86,-22.87 306.59,-20.26 312.99,-28.7 316.86,-22.87"/>
</g>
<!-- nil5 -->
<g id="node13" class="node">
<title>nil5</title>
<polygon fill="black" stroke="black" points="383.24,-1 383.24,-19 412.04,-19 412.04,-1 383.24,-1"/>
<text xml:space="preserve" text-anchor="middle" x="398.11" y="-3.05" font-family="Helvetica,sans-Serif" font-size="16.00" fill="white">NIL</text>
</g>
<!-- n6&#45;&gt;nil5 -->
<g id="edge8" class="edge">
<title>n6&#45;&gt;nil5</title>
<path fill="none" stroke="black" d="M392.89,-55.08C393.74,-47.18 394.7,-38.24 395.54,-30.48"/>
<polygon fill="black" stroke="black" points="398.99,-31.09 396.59,-20.77 392.04,-30.34 398.99,-31.09"/>
</g>
<!-- nil6 -->
<g id="node15" class="node">
<title>nil6</title>
<polygon fill="black" stroke="black" points="504.24,-1 504.24,-19 533.04,-19 533.04,-1 504.24,-1"/>
<text xml:space="preserve" text-anchor="middle" x="519.11" y="-3.05" font-family="Helvetica,sans-Serif" font-size="16.00" fill="white">NIL</text>
</g>
<!-- n7&#45;&gt;nil6 -->
<g id="edge10" class="edge">
<title>n7&#45;&gt;nil6</title>
<path fill="none" stroke="black" d="M524.79,-55.43C523.7,-47.52 522.45,-38.52 521.36,-30.69"/>
<polygon fill="black" stroke="black" points="524.84,-30.29 520,-20.86 517.91,-31.25 524.84,-30.29"/>
</g>
<!-- nil7 -->
<g id="node16" class="node">
<title>nil7</title>
<polygon fill="black" stroke="black" points="609.24,-1 609.24,-19 638.04,-19 638.04,-1 609.24,-1"/>
<text xml:space="preserve" text-anchor="middle" x="624.11" y="-3.05" font-family="Helvetica,sans-Serif" font-size="16.00" fill="white">NIL</text>
</g>
<!-- n7&#45;&gt;nil7 -->
<g id="edge11" class="edge">
<title>n7&#45;&gt;nil7</title>
<path fill="none" stroke="black" d="M545.25,-64.08C561.26,-53.23 584.95,-37.19 602.1,-25.59"/>
<polygon fill="black" stroke="black" points="603.75,-28.69 610.07,-20.19 599.83,-22.89 603.75,-28.69"/>
</g>
<!-- n9 -->
<g id="node18" class="node">
<title>n9</title>
<ellipse fill="black" stroke="black" cx="549.64" cy="-235" rx="21.6" ry="21.6"/>
<text xml:space="preserve" text-anchor="middle" x="549.64" y="-224.57" font-family="Helvetica,sans-Serif" font-size="24.00" fill="white">83</text>
</g>
<!-- n8&#45;&gt;n9 -->
<g id="edge18" class="edge">
<title>n8&#45;&gt;n9</title>
<path fill="none" stroke="black" d="M549.64,-291.96C549.64,-284.66 549.64,-276.3 549.64,-268.3"/>
<polygon fill="black" stroke="black" points="553.14,-268.53 549.64,-258.53 546.14,-268.53 553.14,-268.53"/>
</g>
<!-- n10 -->
<g id="node21" class="node">
<title>n10</title>
<ellipse fill="black" stroke="black" cx="726.64" cy="-235" rx="21.6" ry="21.6"/>
<text xml:space="preserve" text-anchor="middle" x="726.64" y="-224.57" font-family="Helvetica,sans-Serif" font-size="24.00" fill="white">91</text>
</g>
<!-- n8&#45;&gt;n10 -->
<g id="edge21" class="edge">
<title>n8&#45;&gt;n10</title>
<path fill="none" stroke="black" d="M569.26,-304.47C600.09,-291.05 660.12,-264.94 696.47,-249.12"/>
<polygon fill="black" stroke="black" points="697.77,-252.38 705.54,-245.18 694.98,-245.96 697.77,-252.38"/>
</g>
<!-- nil8 -->
<g id="node19" class="node">
<title>nil8</title>
<polygon fill="black" stroke="black" points="502.24,-147 502.24,-165 531.04,-165 531.04,-147 502.24,-147"/>
<text xml:space="preserve" text-anchor="middle" x="517.11" y="-149.05" font-family="Helvetica,sans-Serif" font-size="16.00" fill="white">NIL</text>
</g>
<!-- n9&#45;&gt;nil8 -->
<g id="edge16" class="edge">
<title>n9&#45;&gt;nil8</title>
<path fill="none" stroke="black" d="M541.31,-214.57C536.21,-202.67 529.72,-187.53 524.68,-175.76"/>
<polygon fill="black" stroke="black" points="527.97,-174.56 520.82,-166.75 521.54,-177.32 527.97,-174.56"/>
</g>
<!-- nil9 -->
<g id="node20" class="node">
<title>nil9</title>
<polygon fill="black" stroke="black" points="607.24,-147 607.24,-165 636.04,-165 636.04,-147 607.24,-147"/>
<text xml:space="preserve" text-anchor="middle" x="622.11" y="-149.05" font-family="Helvetica,sans-Serif" font-size="16.00" fill="white">NIL</text>
</g>
<!-- n9&#45;&gt;nil9 -->
<g id="edge17" class="edge">
<title>n9&#45;&gt;nil9</title>
<path fill="none" stroke="black" d="M564.21,-218.42C576.36,-205.42 593.64,-186.95 606.06,-173.66"/>
<polygon fill="black" stroke="black" points="608.46,-176.22 612.73,-166.52 603.35,-171.44 608.46,-176.22"/>
</g>
<!-- nil10 -->
<g id="node22" class="node">
<title>nil10</title>
<polygon fill="black" stroke="black" points="712.24,-147 712.24,-165 741.04,-165 741.04,-147 712.24,-147"/>
<text xml:space="preserve" text-anchor="middle" x="727.11" y="-149.05" font-family="Helvetica,sans-Serif" font-size="16.00" fill="white">NIL</text>
</g>
<!-- n10&#45;&gt;nil10 -->
<g id="edge19" class="edge">
<title>n10&#45;&gt;nil10</title>
<path fill="none" stroke="black" d="M726.64,-212.96C726.64,-201.69 726.64,-187.9 726.64,-176.82"/>
<polygon fill="black" stroke="black" points="730.14,-176.9 726.64,-166.9 723.14,-176.9 730.14,-176.9"/>
</g>
<!-- nil11 -->
<g id="node23" class="node">
<title>nil11</title>
<polygon fill="black" stroke="black" points="818.24,-147 818.24,-165 847.04,-165 847.04,-147 818.24,-147"/>
<text xml:space="preserve" text-anchor="middle" x="833.11" y="-149.05" font-family="Helvetica,sans-Serif" font-size="16.00" fill="white">NIL</text>
</g>
<!-- n10&#45;&gt;nil11 -->
<g id="edge20" class="edge">
<title>n10&#45;&gt;nil11</title>
<path fill="none" stroke="black" d="M743.67,-221.63C762.29,-208.1 792.14,-186.42 812.06,-171.95"/>
<polygon fill="black" stroke="black" points="813.95,-174.91 819.98,-166.2 809.83,-169.24 813.95,-174.91"/>
</g>
</g>
</svg>
